<svg width="46" height="46" viewBox="0 0 46 46" fill="none" xmlns="http://www.w3.org/2000/svg">
<g clip-path="url(#clip0_94_615)">
<path d="M34.716 32.0428L42.8127 40.1377L40.1377 42.8126L32.0429 34.7159C29.031 37.1304 25.2846 38.4437 21.4244 38.4382C12.0327 38.4382 4.41046 30.816 4.41046 21.4243C4.41046 12.0326 12.0327 4.4104 21.4244 4.4104C30.816 4.4104 38.4382 12.0326 38.4382 21.4243C38.4437 25.2846 37.1305 29.0309 34.716 32.0428ZM30.9238 30.6401C33.3229 28.1729 34.6628 24.8657 34.6574 21.4243C34.6574 14.1121 28.7347 8.19126 21.4244 8.19126C14.1122 8.19126 8.19133 14.1121 8.19133 21.4243C8.19133 28.7346 14.1122 34.6573 21.4244 34.6573C24.8657 34.6627 28.173 33.3229 30.6402 30.9237L30.9238 30.6401Z" fill="#86C446"/>
</g>
<defs>
<clipPath id="clip0_94_615">
<rect width="45.3704" height="45.3704" fill="white" transform="translate(0.629669 0.629639)"/>
</clipPath>
</defs>
</svg>
