<svg width="56" height="56" viewBox="0 0 56 56" fill="none" xmlns="http://www.w3.org/2000/svg">
<path d="M51.3333 49H4.66667V44.3333H7.00001V9.33333C7.00001 8.71449 7.24584 8.121 7.68342 7.68342C8.12101 7.24583 8.7145 7 9.33334 7H42C42.6188 7 43.2123 7.24583 43.6499 7.68342C44.0875 8.121 44.3333 8.71449 44.3333 9.33333V21H49V44.3333H51.3333V49ZM39.6667 44.3333H44.3333V25.6667H30.3333V44.3333H35V30.3333H39.6667V44.3333ZM39.6667 21V11.6667H11.6667V44.3333H25.6667V21H39.6667ZM16.3333 25.6667H21V30.3333H16.3333V25.6667ZM16.3333 35H21V39.6667H16.3333V35ZM16.3333 16.3333H21V21H16.3333V16.3333Z" fill="url(#paint0_linear_512_238)"/>
<defs>
<linearGradient id="paint0_linear_512_238" x1="4.66667" y1="7" x2="46.4346" y2="53.4088" gradientUnits="userSpaceOnUse">
<stop stop-color="#86C446"/>
<stop offset="1" stop-color="#05ADE4"/>
</linearGradient>
</defs>
</svg>
