<svg width="56" height="56" viewBox="0 0 56 56" fill="none" xmlns="http://www.w3.org/2000/svg">
<path d="M46.6667 14H53.6667V18.6667H51.3333V44.3333H53.6667V49H2.33333V44.3333H4.66666V18.6667H2.33333V14H9.33333V9.33333C9.33333 8.71449 9.57916 8.121 10.0167 7.68342C10.4543 7.24583 11.0478 7 11.6667 7H44.3333C44.9522 7 45.5457 7.24583 45.9832 7.68342C46.4208 8.121 46.6667 8.71449 46.6667 9.33333V14ZM46.6667 18.6667H9.33333V44.3333H16.3333V28H21V44.3333H25.6667V28H30.3333V44.3333H35V28H39.6667V44.3333H46.6667V18.6667ZM14 11.6667V14H42V11.6667H14Z" fill="url(#paint0_linear_102_210)"/>
<defs>
<linearGradient id="paint0_linear_102_210" x1="2.33333" y1="7" x2="43.5016" y2="57.3168" gradientUnits="userSpaceOnUse">
<stop stop-color="#86C446"/>
<stop offset="1" stop-color="#05ADE4"/>
</linearGradient>
</defs>
</svg>
