<svg width="45" height="45" viewBox="0 0 45 45" fill="none" xmlns="http://www.w3.org/2000/svg">
<g clip-path="url(#clip0_94_642)">
<path d="M6.52803 8.94273C8.66969 6.80069 11.5422 5.54782 14.5691 5.43551C17.5961 5.32319 20.5535 6.35975 22.848 8.3372C25.1405 6.36305 28.094 5.32765 31.1173 5.4383C34.1407 5.54894 37.0106 6.79745 39.1527 8.93388C41.2947 11.0703 42.5507 13.937 42.6693 16.96C42.7878 19.983 41.7602 22.9393 39.792 25.2369L25.4566 39.6184C24.798 40.2773 23.9147 40.6628 22.9838 40.6977C22.0528 40.7327 21.1431 40.4144 20.437 39.8067L20.2339 39.6203L5.90034 25.2369C3.93324 22.9412 2.9051 19.9877 3.02147 16.9668C3.13785 13.9459 4.39016 11.0802 6.52803 8.94273ZM9.13849 11.5532C7.62879 13.0633 6.75853 15.0968 6.70834 17.2315C6.65815 19.3663 7.43188 21.4384 8.86895 23.0178L9.13849 23.3021L22.8462 37.0098L32.6363 27.2178L26.1102 20.6917L24.1533 22.6486C23.639 23.163 23.0285 23.5712 22.3566 23.8497C21.6846 24.1282 20.9644 24.2716 20.237 24.2718C18.768 24.2722 17.359 23.6889 16.32 22.6504C15.281 21.6119 14.6971 20.2032 14.6968 18.7342C14.6964 17.2652 15.2797 15.8562 16.3182 14.8172L20.1988 10.9347C18.6544 9.7022 16.7214 9.06032 14.7465 9.12426C12.7717 9.18821 10.8842 9.95379 9.4228 11.2837L9.13849 11.5532ZM24.805 16.7741C25.1512 16.428 25.6207 16.2336 26.1102 16.2336C26.5997 16.2336 27.0692 16.428 27.4154 16.7741L35.2468 24.6055L36.5539 23.3021C38.0889 21.7682 38.9628 19.6946 38.9886 17.5247C39.0145 15.3548 38.1904 13.2609 36.6924 11.6908C35.1944 10.1208 33.1416 9.19911 30.9729 9.12302C28.8041 9.04693 26.6917 9.82242 25.0874 11.2837L24.805 11.5532L18.9305 17.4277C18.6105 17.7474 18.4191 18.1736 18.3925 18.6252C18.366 19.0768 18.5062 19.5224 18.7865 19.8775L18.9305 20.0381C19.2503 20.3581 19.6764 20.5496 20.128 20.5761C20.5796 20.6026 21.0253 20.4624 21.3803 20.1821L21.541 20.0381L24.805 16.7741Z" fill="url(#paint0_linear_94_642)"/>
</g>
<defs>
<linearGradient id="paint0_linear_94_642" x1="3.01257" y1="5.42725" x2="38.0441" y2="44.8215" gradientUnits="userSpaceOnUse">
<stop stop-color="#86C446"/>
<stop offset="1" stop-color="#05ADE4"/>
</linearGradient>
<clipPath id="clip0_94_642">
<rect width="44.3077" height="44.3077" fill="white" transform="translate(0.692322 0.692383)"/>
</clipPath>
</defs>
</svg>
