<svg width="45" height="45" viewBox="0 0 45 45" fill="none" xmlns="http://www.w3.org/2000/svg">
<g clip-path="url(#clip0_94_624)">
<path d="M37.2225 40.6667H7.88918C7.40295 40.6667 6.93663 40.4735 6.59282 40.1297C6.249 39.7859 6.05585 39.3196 6.05585 38.8333V5.83333C6.05585 5.3471 6.249 4.88079 6.59282 4.53697C6.93663 4.19315 7.40295 4 7.88918 4H37.2225C37.7087 4 38.1751 4.19315 38.5189 4.53697C38.8627 4.88079 39.0558 5.3471 39.0558 5.83333V38.8333C39.0558 39.3196 38.8627 39.7859 38.5189 40.1297C38.1751 40.4735 37.7087 40.6667 37.2225 40.6667ZM35.3892 37V7.66667H9.72251V37H35.3892ZM15.2225 13.1667H29.8892V16.8333H15.2225V13.1667ZM15.2225 20.5H29.8892V24.1667H15.2225V20.5ZM15.2225 27.8333H24.3892V31.5H15.2225V27.8333Z" fill="#86C446"/>
</g>
<defs>
<clipPath id="clip0_94_624">
<rect width="44" height="44" fill="white" transform="translate(0.555664 0.333252)"/>
</clipPath>
</defs>
</svg>
