<svg width="360" height="473" viewBox="0 0 360 473" fill="none" xmlns="http://www.w3.org/2000/svg">
<path opacity="0.0628953" d="M356 65C337.775 65 323 50.4493 323 32.5C323 14.5507 337.775 0 356 0C374.225 0 389 14.5507 389 32.5C389 50.4493 374.225 65 356 65Z" fill="url(#paint0_linear_512_1299)"/>
<path opacity="0.0628953" d="M21 473C2.7746 473 -12 458.449 -12 440.5C-12 422.551 2.7746 408 21 408C39.2254 408 54 422.551 54 440.5C54 458.449 39.2254 473 21 473Z" fill="url(#paint1_linear_512_1299)"/>
<defs>
<linearGradient id="paint0_linear_512_1299" x1="389" y1="0" x2="324.008" y2="65.9923" gradientUnits="userSpaceOnUse">
<stop stop-color="#86C446"/>
<stop offset="1" stop-color="#05ADE4"/>
</linearGradient>
<linearGradient id="paint1_linear_512_1299" x1="54" y1="408" x2="-10.9924" y2="473.992" gradientUnits="userSpaceOnUse">
<stop stop-color="#86C446"/>
<stop offset="1" stop-color="#05ADE4"/>
</linearGradient>
</defs>
</svg>
