<svg width="43" height="42" viewBox="0 0 43 42" fill="none" xmlns="http://www.w3.org/2000/svg">
<path d="M21.5 42C33.3741 42 43 32.598 43 21C43 9.40202 33.3741 0 21.5 0C9.62588 0 0 9.40202 0 21C0 32.598 9.62588 42 21.5 42Z" fill="white"/>
<path fill-rule="evenodd" clip-rule="evenodd" d="M16.8031 21.0147C17.494 21.3382 18.0328 21.8235 18.4197 22.4706C18.8066 23.1177 19 23.8823 19 24.7647C19 26.0294 18.6269 27.0515 17.8808 27.8309C17.1347 28.6103 16.1814 29 15.0207 29C13.8601 29 12.8998 28.6029 12.1399 27.8088C11.38 27.0147 11 26 11 24.7647C11 24.1765 11.0691 23.5882 11.2073 23C11.3454 22.4118 11.6494 21.5294 12.1192 20.3529L14.5233 14H18.6269L16.8031 21.0147ZM27.8031 21.0147C28.494 21.3382 29.0328 21.8235 29.4197 22.4706C29.8066 23.1177 30 23.8823 30 24.7647C30 26.0294 29.6269 27.0515 28.8808 27.8309C28.1347 28.6103 27.1814 29 26.0207 29C24.8601 29 23.8998 28.6029 23.1399 27.8088C22.38 27.0147 22 26 22 24.7647C22 24.1765 22.0691 23.5882 22.2073 23C22.3454 22.4118 22.6494 21.5294 23.1192 20.3529L25.5233 14H29.6269L27.8031 21.0147Z" fill="url(#paint0_linear_94_549)"/>
<defs>
<linearGradient id="paint0_linear_94_549" x1="11" y1="14" x2="25.5904" y2="32.4812" gradientUnits="userSpaceOnUse">
<stop stop-color="#86C446"/>
<stop offset="1" stop-color="#05ADE4"/>
</linearGradient>
</defs>
</svg>
