<svg width="20" height="20" viewBox="0 0 20 20" fill="none" xmlns="http://www.w3.org/2000/svg">
<path d="M0 6.70833C0 4.33546 0 3.14902 0.469111 2.24594C0.864425 1.48493 1.48493 0.864425 2.24594 0.469111C3.14902 0 4.33546 0 6.70833 0H13.2917C15.6645 0 16.851 0 17.7541 0.469111C18.5151 0.864425 19.1356 1.48493 19.5309 2.24594C20 3.14902 20 4.33546 20 6.70833V13.2917C20 15.6645 20 16.851 19.5309 17.7541C19.1356 18.5151 18.5151 19.1356 17.7541 19.5309C16.851 20 15.6645 20 13.2917 20H6.70833C4.33546 20 3.14902 20 2.24594 19.5309C1.48493 19.1356 0.864425 18.5151 0.469111 17.7541C0 16.851 0 15.6645 0 13.2917V6.70833Z" fill="url(#paint0_linear_316_62515)"/>
<path d="M13.8886 12.7776L14.333 9.99978H11.6663V8.05534C11.6663 7.27756 11.9441 6.66645 13.1663 6.66645H14.4441V4.11089C13.7219 3.99978 12.9441 3.88867 12.2219 3.88867C9.94412 3.88867 8.33301 5.27756 8.33301 7.77756V9.99978H5.83301V12.7776H8.33301V19.9998C9.44412 19.9998 10.5552 19.9998 11.6663 19.9998V12.7776H13.8886Z" fill="white"/>
<defs>
<linearGradient id="paint0_linear_316_62515" x1="10" y1="19.4156" x2="10" y2="0" gradientUnits="userSpaceOnUse">
<stop stop-color="#0062E0"/>
<stop offset="1" stop-color="#19AFFF"/>
</linearGradient>
</defs>
</svg>
