<svg width="20" height="20" viewBox="0 0 20 20" fill="none" xmlns="http://www.w3.org/2000/svg">
<g clip-path="url(#clip0_316_62516)">
<path d="M0.0117188 6.70833C0.0117188 4.33546 0.0117188 3.14902 0.480829 2.24594C0.876144 1.48493 1.49665 0.864425 2.25766 0.469111C3.16074 0 4.34717 0 6.72005 0H13.3034C15.6763 0 16.8627 0 17.7658 0.469111C18.5268 0.864425 19.1473 1.48493 19.5426 2.24594C20.0117 3.14902 20.0117 4.33546 20.0117 6.70833V13.2917C20.0117 15.6645 20.0117 16.851 19.5426 17.7541C19.1473 18.5151 18.5268 19.1356 17.7658 19.5309C16.8627 20 15.6763 20 13.3034 20H6.72005C4.34717 20 3.16074 20 2.25766 19.5309C1.49665 19.1356 0.876144 18.5151 0.480829 17.7541C0.0117188 16.851 0.0117188 15.6645 0.0117188 13.2917V6.70833Z" fill="url(#paint0_radial_316_62516)"/>
<path d="M0.0117188 6.70833C0.0117188 4.33546 0.0117188 3.14902 0.480829 2.24594C0.876144 1.48493 1.49665 0.864425 2.25766 0.469111C3.16074 0 4.34717 0 6.72005 0H13.3034C15.6763 0 16.8627 0 17.7658 0.469111C18.5268 0.864425 19.1473 1.48493 19.5426 2.24594C20.0117 3.14902 20.0117 4.33546 20.0117 6.70833V13.2917C20.0117 15.6645 20.0117 16.851 19.5426 17.7541C19.1473 18.5151 18.5268 19.1356 17.7658 19.5309C16.8627 20 15.6763 20 13.3034 20H6.72005C4.34717 20 3.16074 20 2.25766 19.5309C1.49665 19.1356 0.876144 18.5151 0.480829 17.7541C0.0117188 16.851 0.0117188 15.6645 0.0117188 13.2917V6.70833Z" fill="url(#paint1_radial_316_62516)"/>
<path d="M9.99967 2.72852C8.02458 2.72852 7.77671 2.73715 7.00098 2.77246C6.22676 2.80791 5.69829 2.93049 5.23588 3.11033C4.75756 3.29609 4.35182 3.54458 3.94759 3.94897C3.54305 4.35321 3.29458 4.75897 3.10822 5.23715C2.92792 5.69973 2.8052 6.22836 2.77035 7.0023C2.73565 7.77806 2.72656 8.02609 2.72656 10.0012C2.72656 11.9764 2.73535 12.2235 2.7705 12.9993C2.80611 13.7735 2.92868 14.302 3.10837 14.7644C3.29427 15.2428 3.54275 15.6485 3.94713 16.0528C4.35121 16.4573 4.75696 16.7064 5.23497 16.8922C5.69768 17.072 6.2263 17.1946 7.00037 17.23C7.77611 17.2653 8.02383 17.274 9.99877 17.274C11.974 17.274 12.2211 17.2653 12.9969 17.23C13.7711 17.1946 14.3002 17.072 14.7629 16.8922C15.241 16.7064 15.6462 16.4573 16.0502 16.0528C16.4548 15.6485 16.7033 15.2428 16.8896 14.7646C17.0684 14.302 17.1911 13.7734 17.2275 12.9994C17.2623 12.2237 17.2714 11.9764 17.2714 10.0012C17.2714 8.02609 17.2623 7.77821 17.2275 7.00245C17.1911 6.22821 17.0684 5.69973 16.8896 5.2373C16.7033 4.75897 16.4548 4.35321 16.0502 3.94897C15.6457 3.54442 15.2412 3.29594 14.7624 3.11033C14.2988 2.93049 13.77 2.80791 12.9958 2.77246C12.2201 2.73715 11.9731 2.72852 9.9974 2.72852H9.99967ZM9.34727 4.03912C9.5409 4.03882 9.75695 4.03912 9.99967 4.03912C11.9414 4.03912 12.1716 4.04609 12.9384 4.08094C13.6474 4.11336 14.0323 4.23185 14.2886 4.33139C14.628 4.46321 14.87 4.62079 15.1244 4.87533C15.3789 5.12988 15.5365 5.3723 15.6686 5.7117C15.7681 5.96776 15.8868 6.35261 15.919 7.0617C15.9539 7.82836 15.9615 8.05867 15.9615 9.99958C15.9615 11.9405 15.9539 12.1708 15.919 12.9375C15.8866 13.6465 15.7681 14.0314 15.6686 14.2875C15.5368 14.6268 15.3789 14.8685 15.1244 15.1229C14.8698 15.3775 14.6282 15.535 14.2886 15.6668C14.0326 15.7668 13.6474 15.885 12.9384 15.9175C12.1717 15.9523 11.9414 15.9599 9.99967 15.9599C8.05776 15.9599 7.82762 15.9523 7.06098 15.9175C6.35191 15.8847 5.96707 15.7662 5.71056 15.6667C5.37118 15.5349 5.12876 15.3773 4.87422 15.1228C4.61969 14.8682 4.46212 14.6264 4.33 14.2868C4.23046 14.0308 4.11182 13.6459 4.07955 12.9368C4.0447 12.1702 4.03773 11.9399 4.03773 9.99776C4.03773 8.05564 4.0447 7.82655 4.07955 7.05988C4.11198 6.35079 4.23046 5.96594 4.33 5.70958C4.46181 5.37018 4.61969 5.12776 4.87422 4.87321C5.12876 4.61867 5.37118 4.46109 5.71056 4.32897C5.96692 4.22897 6.35191 4.11079 7.06098 4.07821C7.73187 4.04791 7.99186 4.03882 9.34727 4.0373V4.03912ZM13.8817 5.2467C13.3999 5.2467 13.009 5.63715 13.009 6.11912C13.009 6.60094 13.3999 6.99185 13.8817 6.99185C14.3635 6.99185 14.7544 6.60094 14.7544 6.11912C14.7544 5.6373 14.3635 5.24639 13.8817 5.24639V5.2467ZM9.99967 6.26639C7.93716 6.26639 6.26494 7.93867 6.26494 10.0012C6.26494 12.0638 7.93716 13.7353 9.99967 13.7353C12.0622 13.7353 13.7338 12.0638 13.7338 10.0012C13.7338 7.93867 12.062 6.26639 9.99952 6.26639H9.99967ZM9.99967 7.577C11.3384 7.577 12.4238 8.6623 12.4238 10.0012C12.4238 11.34 11.3384 12.4255 9.99967 12.4255C8.66078 12.4255 7.57551 11.34 7.57551 10.0012C7.57551 8.6623 8.66078 7.577 9.99967 7.577V7.577Z" fill="white"/>
</g>
<defs>
<radialGradient id="paint0_radial_316_62516" cx="0" cy="0" r="1" gradientUnits="userSpaceOnUse" gradientTransform="translate(5.32424 21.5404) rotate(-90) scale(19.8215 18.4355)">
<stop stop-color="#FFDD55"/>
<stop offset="0.1" stop-color="#FFDD55"/>
<stop offset="0.5" stop-color="#FF543E"/>
<stop offset="1" stop-color="#C837AB"/>
</radialGradient>
<radialGradient id="paint1_radial_316_62516" cx="0" cy="0" r="1" gradientUnits="userSpaceOnUse" gradientTransform="translate(-3.33839 1.44077) rotate(78.6806) scale(8.86028 36.5225)">
<stop stop-color="#3771C8"/>
<stop offset="0.128" stop-color="#3771C8"/>
<stop offset="1" stop-color="#6600FF" stop-opacity="0"/>
</radialGradient>
<clipPath id="clip0_316_62516">
<rect width="20" height="20" fill="white"/>
</clipPath>
</defs>
</svg>
