<svg width="20" height="20" viewBox="0 0 20 20" fill="none" xmlns="http://www.w3.org/2000/svg">
<path d="M20 6.70833C20 4.33546 20 3.14902 19.5309 2.24594C19.1356 1.48493 18.5151 0.864425 17.7541 0.469111C16.851 0 15.6645 0 13.2917 0H6.70833C4.33546 0 3.14902 0 2.24594 0.469111C1.48493 0.864425 0.864426 1.48493 0.469111 2.24594C6.25849e-07 3.14902 4.76837e-07 4.33546 4.76837e-07 6.70833V13.2917C4.76837e-07 15.6645 6.25849e-07 16.851 0.469111 17.7541C0.864426 18.5151 1.48493 19.1356 2.24594 19.5309C3.14902 20 4.33546 20 6.70833 20H13.2917C15.6645 20 16.851 20 17.7541 19.5309C18.5151 19.1356 19.1356 18.5151 19.5309 17.7541C20 16.851 20 15.6645 20 13.2917V6.70833Z" fill="#1265BF"/>
<path d="M15.5111 6.21023C14.5529 6.21023 13.7761 5.43344 13.7761 4.47523C13.7761 3.51702 14.5529 2.74023 15.5111 2.74023C16.4693 2.74023 17.2461 3.51702 17.2461 4.47523C17.2461 5.43344 16.4693 6.21023 15.5111 6.21023Z" fill="white"/>
<path d="M12.1871 7.49244H9.31169V8.8097C9.31169 8.8097 8.53141 7.24911 6.40834 7.24911C4.51448 7.24911 2.94562 8.18208 2.94562 11.0258V17.0225H5.9254V11.7525C5.9254 10.0749 6.821 9.89041 7.50346 9.89041C8.91979 9.89041 9.16226 11.1121 9.16226 11.9713V17.0225H12.1871V7.49244Z" fill="white"/>
<path d="M17.0235 7.49244H13.9987V17.0225H17.0235V7.49244Z" fill="white"/>
</svg>
