<svg width="20" height="20" viewBox="0 0 20 20" fill="none" xmlns="http://www.w3.org/2000/svg">
<path d="M0 6.70833C0 4.33546 0 3.14902 0.469111 2.24594C0.864425 1.48493 1.48493 0.864425 2.24594 0.469111C3.14902 0 4.33546 0 6.70833 0H13.2917C15.6645 0 16.851 0 17.7541 0.469111C18.5151 0.864425 19.1356 1.48493 19.5309 2.24594C20 3.14902 20 4.33546 20 6.70833V13.2917C20 15.6645 20 16.851 19.5309 17.7541C19.1356 18.5151 18.5151 19.1356 17.7541 19.5309C16.851 20 15.6645 20 13.2917 20H6.70833C4.33546 20 3.14902 20 2.24594 19.5309C1.48493 19.1356 0.864425 18.5151 0.469111 17.7541C0 16.851 0 15.6645 0 13.2917V6.70833Z" fill="#1EA1F2"/>
<path fill-rule="evenodd" clip-rule="evenodd" d="M15.5511 7.56401C15.5559 7.68892 15.5575 7.81379 15.5575 7.93871C15.5575 11.726 12.8934 16.0982 8.02153 16.0982C6.52498 16.0982 5.13341 15.6212 3.96094 14.8093C4.16819 14.832 4.37868 14.849 4.5924 14.849C5.83324 14.849 6.9761 14.389 7.88264 13.6168C6.72363 13.5998 5.74496 12.7651 5.40743 11.6295C5.56946 11.6635 5.73633 11.6806 5.90698 11.6806C6.14761 11.6806 6.38124 11.6466 6.60519 11.5785C5.39234 11.3173 4.47881 10.159 4.47881 8.76783C4.47881 8.75079 4.47881 8.74508 4.47881 8.73373C4.83626 8.94381 5.24538 9.07434 5.67981 9.09138C4.96814 8.57467 4.50033 7.69459 4.50033 6.70092C4.50033 6.17854 4.63061 5.68452 4.85993 5.25867C6.16591 6.99616 8.11843 8.13748 10.3196 8.25672C10.2744 8.04663 10.2513 7.82524 10.2513 7.60379C10.2513 6.0196 11.4372 4.73633 12.9004 4.73633C13.6621 4.73633 14.3501 5.08274 14.833 5.63919C15.4375 5.51428 16.0038 5.27581 16.5163 4.94648C16.3177 5.6165 15.8983 6.17851 15.3503 6.53055C15.8865 6.46242 16.3979 6.30923 16.8721 6.0821C16.5163 6.65559 16.0684 7.16086 15.5511 7.56401Z" fill="white"/>
</svg>
