<svg width="16" height="16" viewBox="0 0 16 16" fill="none" xmlns="http://www.w3.org/2000/svg">
<path d="M0 2C0 0.895431 0.895431 0 2 0H14C15.1046 0 16 0.895431 16 2V14C16 15.1046 15.1046 16 14 16H2C0.895431 16 0 15.1046 0 14V2Z" fill="#A1AADB"/>
<path fill-rule="evenodd" clip-rule="evenodd" d="M7.81004 4H5.44369V7.14278H4V8.1904H5.44369V11.3333H7.81004C9.05907 11.3333 9.32821 11.2025 9.86648 10.9409C9.90826 10.9206 9.95167 10.8995 9.99729 10.8776C10.6305 10.5738 11.1226 10.146 11.4735 9.59429C11.8245 9.04254 12 8.40001 12 7.66667C12 6.93333 11.8245 6.2908 11.4735 5.73905C11.1226 5.1873 10.6305 4.75953 9.99729 4.45572C9.36409 4.1519 8.63501 4 7.81004 4ZM7.20211 8.1904V9.94007H7.72315C8.48299 9.94007 9.08904 9.73579 9.54133 9.32721C9.99362 8.91864 10.2198 8.36515 10.2198 7.66673C10.2198 6.96832 9.99362 6.41483 9.54133 6.00625C9.08904 5.59768 8.48299 5.3934 7.72315 5.3934H7.20211V7.14278H8.88468V8.1904H7.20211Z" fill="white"/>
</svg>
