<svg width="16" height="16" viewBox="0 0 16 16" fill="none" xmlns="http://www.w3.org/2000/svg">
<path d="M0 2C0 0.895431 0.895431 0 2 0H14C15.1046 0 16 0.895431 16 2V14C16 15.1046 15.1046 16 14 16H2C0.895431 16 0 15.1046 0 14V2Z" fill="#81C784"/>
<path d="M9.04795 4.21523C8.50552 4.52403 8.18434 5.08167 8.18434 5.66971C8.18434 5.97851 8.3123 6.28971 8.4725 6.56735C8.60046 6.81534 8.6632 7.24818 8.21658 7.46498C7.89788 7.64978 7.48093 7.52658 7.29023 7.21698C7.09949 6.96898 6.87576 6.72098 6.58761 6.53615C6.04518 6.22735 5.40529 6.22735 4.86282 6.53615C4.32035 6.84494 4 7.40398 4 7.99218C4 8.58038 4.3187 9.13782 4.8627 9.44746C5.40513 9.75626 6.04501 9.75626 6.58748 9.44746C6.87564 9.29226 7.09932 9.04586 7.25791 8.76662C7.38587 8.54982 7.7376 8.27062 8.18426 8.51862C8.50296 8.70342 8.59873 9.10746 8.44018 9.41626C8.28002 9.69546 8.18426 10.0051 8.18426 10.3139C8.18426 10.9027 8.50296 11.4595 9.04787 11.7684C9.5903 12.0772 10.2302 12.0772 10.7727 11.7684C11.3151 11.4596 11.6363 10.9019 11.6363 10.3139C11.6363 9.72586 11.3168 9.16826 10.7727 8.85862C10.4846 8.70342 10.165 8.64182 9.81415 8.64182C9.52599 8.64182 9.14372 8.45702 9.14372 7.99218C9.14372 7.62018 9.43187 7.34254 9.81415 7.34254C10.1328 7.34254 10.4846 7.28094 10.7727 7.12574C11.3152 6.81694 11.6363 6.25931 11.6363 5.67131C11.6363 5.08331 11.3168 4.52567 10.7727 4.21683C10.5168 4.06163 10.1981 4.00003 9.91003 4.00003C9.62353 3.99843 9.30235 4.06163 9.04808 4.21523" fill="white"/>
</svg>
