<svg width="16" height="16" viewBox="0 0 16 16" fill="none" xmlns="http://www.w3.org/2000/svg">
<path d="M0 2C0 0.895431 0.895431 0 2 0H14C15.1046 0 16 0.895431 16 2V14C16 15.1046 15.1046 16 14 16H2C0.895431 16 0 15.1046 0 14V2Z" fill="#64B5F6"/>
<path fill-rule="evenodd" clip-rule="evenodd" d="M11.0247 6.90995C11.1583 6.01562 10.4774 5.53485 9.54629 5.21413L9.84832 4.00265L9.11068 3.81887L8.81663 4.99843C8.62298 4.95012 8.42386 4.90454 8.22601 4.85938L8.52216 3.67206L7.78515 3.48828L7.48291 4.69934C7.32245 4.66279 7.16492 4.62667 7.01202 4.58865L7.01286 4.58487L5.99587 4.33094L5.7997 5.11856C5.7997 5.11856 6.34684 5.24396 6.33529 5.25173C6.63396 5.32629 6.68814 5.52393 6.6789 5.68062L6.33487 7.06075C6.35545 7.066 6.38212 7.07356 6.41153 7.08532L6.33382 7.066L5.85137 8.99936C5.81482 9.0901 5.7222 9.2262 5.51342 9.17453C5.52078 9.18524 4.97742 9.04074 4.97742 9.04074L4.61133 9.88508L5.57118 10.1243C5.67955 10.1515 5.7866 10.1794 5.89248 10.207C5.96103 10.2249 6.02909 10.2427 6.09669 10.26L5.79151 11.4855L6.5281 11.6693L6.83055 10.457C7.03155 10.5116 7.22688 10.562 7.41801 10.6095L7.11682 11.8161L7.85425 11.9999L8.15943 10.7769C9.41691 11.0148 10.3627 10.9189 10.7603 9.78174C11.081 8.86599 10.7445 8.33776 10.0829 7.99309C10.5647 7.88156 10.9277 7.56462 11.0245 6.90995H11.0247ZM9.33963 9.27246C9.13028 10.1129 7.81443 9.76518 7.2129 9.60621C7.15904 9.59197 7.1109 9.57925 7.0698 9.56903L7.47474 7.94568C7.52497 7.95821 7.58633 7.97198 7.65584 7.98758L7.65589 7.98759C8.27819 8.12724 9.55352 8.41342 9.33984 9.27246H9.33963ZM7.78094 7.2344C8.28285 7.3683 9.3769 7.66017 9.56749 6.89666C9.76234 6.11556 8.69849 5.88014 8.17892 5.76516C8.12051 5.75223 8.06898 5.74083 8.02689 5.73034L7.65975 7.20268C7.69449 7.21134 7.73526 7.22221 7.78094 7.2344Z" fill="white"/>
</svg>
