<svg width="16" height="16" viewBox="0 0 16 16" fill="none" xmlns="http://www.w3.org/2000/svg">
<path d="M0 2C0 0.895431 0.895431 0 2 0H14C15.1046 0 16 0.895431 16 2V14C16 15.1046 15.1046 16 14 16H2C0.895431 16 0 15.1046 0 14V2Z" fill="#FFD54F"/>
<path d="M8.37565 3.27734L8.31836 3.47206V9.1222L8.37565 9.17938L10.9984 7.62909L8.37565 3.27734Z" fill="white"/>
<path d="M8.37566 3.27734L5.75293 7.62909L8.37566 9.1794V6.43699V3.27734Z" fill="white"/>
<path d="M8.37603 10.0319L8.34375 10.0713V12.084L8.37603 12.1783L11.0003 8.48242L8.37603 10.0319Z" fill="white"/>
<path d="M8.37566 12.1783V10.0319L5.75293 8.48242L8.37566 12.1783Z" fill="white"/>
<path d="M8.37598 9.17987L10.9987 7.6296L8.37598 6.4375V9.17987Z" fill="white"/>
<path d="M5.75293 7.6296L8.37562 9.17989V6.4375L5.75293 7.6296Z" fill="white"/>
</svg>
