<svg width="16" height="16" viewBox="0 0 16 16" fill="none" xmlns="http://www.w3.org/2000/svg">
<path d="M0 2C0 0.895431 0.895431 0 2 0H14C15.1046 0 16 0.895431 16 2V14C16 15.1046 15.1046 16 14 16H2C0.895431 16 0 15.1046 0 14V2Z" fill="#F591B3"/>
<path fill-rule="evenodd" clip-rule="evenodd" d="M7.04779 3.15625C7.62825 3.15625 8.20658 3.15625 8.78704 3.15625C8.75289 3.54891 8.71661 3.94371 8.6846 4.33638C9.36109 4.38546 10.0205 4.60313 10.6138 4.92537C10.3577 5.56985 10.0995 6.21434 9.84125 6.85882C9.34189 6.43414 8.6846 6.1994 8.02945 6.20793C7.86513 6.2122 7.6944 6.24421 7.55783 6.33811C7.4682 6.4 7.40204 6.49603 7.38283 6.60273C7.3679 6.68809 7.37216 6.78413 7.41911 6.86095C7.47246 6.94631 7.56636 6.99753 7.66026 7.02954C7.85232 7.09783 8.05933 7.1021 8.25993 7.12344C8.73155 7.18106 9.20531 7.26215 9.65132 7.43074C9.99704 7.56305 10.3278 7.76152 10.5647 8.05175C10.7888 8.3185 10.9189 8.65568 10.968 9.0014C11.0256 9.40047 11.0086 9.81447 10.8848 10.2029C10.7888 10.5144 10.6244 10.8047 10.411 11.0501C9.9693 11.5623 9.32055 11.8696 8.65472 11.9485C8.67607 12.3689 8.70167 12.7872 8.72515 13.2076C8.17456 13.2076 7.62612 13.2076 7.07767 13.2076C7.09901 12.7915 7.12675 12.3753 7.14595 11.9592C6.70421 11.9442 6.26673 11.8461 5.85486 11.6903C5.45579 11.5388 5.07593 11.3382 4.72168 11.1034C4.98203 10.4333 5.24239 9.76325 5.50487 9.09103C5.80151 9.34071 6.11735 9.57332 6.46306 9.75045C6.83438 9.94038 7.24625 10.062 7.66453 10.0663C7.86299 10.0684 8.06786 10.0578 8.25566 9.98946C8.3709 9.94678 8.484 9.87209 8.53522 9.75472C8.58857 9.63094 8.5843 9.47516 8.50321 9.36419C8.44559 9.2895 8.36449 9.23828 8.27913 9.202C8.16389 9.15505 8.04439 9.12944 7.92275 9.11024C7.4746 9.03768 7.02431 8.97792 6.5911 8.83708C6.24325 8.72397 5.90394 8.56605 5.62651 8.32277C5.45152 8.17126 5.30641 7.98559 5.20397 7.77646C5.05032 7.46489 4.9927 7.11277 4.99697 6.76705C4.99697 6.38079 5.07593 5.98813 5.268 5.64881C5.43445 5.34578 5.6884 5.09823 5.97436 4.9083C6.32008 4.67996 6.70634 4.52417 7.09901 4.39826C7.08193 3.98426 7.06486 3.57025 7.04779 3.15625Z" fill="white"/>
</svg>
