<svg width="368" height="225" viewBox="0 0 368 225" fill="none" xmlns="http://www.w3.org/2000/svg">
<path d="M367.998 144.512C368.005 150.608 367.265 156.682 365.795 162.6C365.301 164.594 364.727 166.546 364.072 168.457C363.272 170.816 362.344 173.13 361.293 175.389C360.763 176.532 360.203 177.652 359.613 178.749C359.623 185.001 358.332 191.186 355.821 196.915C351.283 207.193 343.191 215.504 333.019 220.332C326.659 223.356 319.709 224.947 312.662 224.991H70.6672C59.9004 225.013 49.3194 222.194 40.0002 216.819L39.8569 216.739C38.5295 215.964 37.2354 215.144 35.9745 214.279C33.1375 212.325 30.4721 210.135 28.007 207.732C24.6706 204.482 21.7307 200.851 19.2482 196.915C13.4176 187.687 10.3289 177.002 10.3398 166.097C4.43507 155.77 0.991974 143.4 0.991974 130.108C0.991974 113.337 6.46354 98.038 15.453 86.4568C17.3271 84.0372 19.38 81.7606 21.5945 79.6459C23.7795 77.5534 26.128 75.6373 28.6178 73.9159C30.6098 72.5371 32.6917 71.2921 34.8496 70.189C35.7501 69.7325 36.6538 69.3008 37.5729 68.9001C38.38 68.543 39.1963 68.2107 40.0221 67.897C41.0129 67.5222 42.0163 67.1775 43.0321 66.8628C44.0478 66.5481 45.0501 66.2727 46.0389 66.0367C47.493 65.6826 48.972 65.3948 50.476 65.1733C51.7224 64.99 52.9687 64.8627 54.2151 64.7664C55.206 64.6919 56.2062 64.6515 57.2126 64.6391H57.7579C58.8672 64.6391 59.9702 64.6826 61.0639 64.7571C61.1792 64.5273 61.3038 64.2944 61.4191 64.0676C61.8554 63.2384 62.3072 62.4123 62.7621 61.6048C62.7611 61.5976 62.7611 61.5903 62.7621 61.5831C62.84 61.4402 62.9179 61.3005 62.9989 61.1638C63.3666 60.5023 63.7498 59.847 64.1424 59.1979C64.3232 58.8873 64.5008 58.5954 64.6846 58.3034C64.7235 58.2309 64.7662 58.1604 64.8124 58.0922C64.9993 57.7817 65.1894 57.4711 65.3826 57.1605C66.3444 55.6284 67.3446 54.1231 68.3832 52.6448L68.6481 52.2659C68.8101 52.0361 68.9597 51.8125 69.1404 51.5827C69.5704 50.9833 70.0129 50.3807 70.4584 49.7907C70.77 49.3683 71.0816 48.949 71.4181 48.5484C72.2283 47.5131 73.0592 46.4779 73.9109 45.4426C74.7626 44.4074 75.6475 43.3856 76.5656 42.3773C76.6903 42.2375 76.8149 42.1009 76.9458 41.9642L78.2763 40.517C78.3417 40.4486 78.3978 40.3865 78.4601 40.3244C78.619 40.1536 78.7717 39.9828 78.9431 39.8182C79.6566 39.0635 80.3889 38.3243 81.1242 37.5883C84.8666 33.8731 88.8535 30.4108 93.0582 27.2245C93.2234 27.0941 93.3916 26.9698 93.5568 26.8456C94.3482 26.2524 95.1521 25.6654 95.956 25.0878C100.378 21.926 105 19.0524 109.794 16.4849C110.124 16.2955 110.461 16.1184 110.8 15.9445C115.098 13.6783 119.518 11.6503 124.04 9.86974C126.505 8.89765 129.025 7.98456 131.562 7.14913C133.251 6.59631 134.946 6.07144 136.663 5.57763C139.346 4.80741 142.049 4.11691 144.77 3.50612C152.787 1.71314 160.943 0.605552 169.149 0.19542C171.642 0.0691206 174.163 0.00390131 176.712 -0.000239652C189.01 -0.0164683 201.261 1.5281 213.168 4.59622C213.291 4.78166 213.459 4.93284 213.657 5.03552C213.855 5.13821 214.076 5.18903 214.299 5.1832H215.346C215.801 5.30743 216.253 5.43166 216.708 5.5621C219.248 6.29091 221.752 7.08701 224.22 7.9504L224.843 8.17401C230.934 10.3328 236.861 12.9276 242.576 15.9383C247.728 18.6457 252.689 21.7006 257.423 25.0816C258.152 25.6033 258.871 26.1292 259.58 26.6593C260.44 26.1106 261.314 25.5847 262.203 25.0816C265.637 23.1325 269.283 21.583 273.072 20.4633C280.992 18.1273 289.372 17.8006 297.451 19.513C307.811 21.7025 317.19 27.1375 324.765 34.8677C327.849 38.0305 330.594 41.5049 332.956 45.2346C333.128 45.5017 333.299 45.7719 333.464 46.0452C335.495 49.3462 337.24 52.8133 338.68 56.4089C338.733 56.5425 338.786 56.6667 338.833 56.7972C340.163 60.1641 341.236 63.6265 342.043 67.1547C342.08 67.3349 342.124 67.5119 342.161 67.692C342.915 71.1065 343.427 74.5697 343.694 78.0558C343.694 78.18 343.694 78.3074 343.719 78.4378C343.85 80.2412 343.916 82.0632 343.918 83.9039C343.918 85.5499 343.862 87.1835 343.759 88.8047C343.759 88.9817 343.735 89.165 343.719 89.3482C343.691 89.8172 343.65 90.2799 343.61 90.752C345.99 92.6653 348.217 94.7596 350.272 97.0162C351.179 98.0038 352.058 99.0287 352.908 100.091C355.496 103.324 357.77 106.794 359.701 110.455C364.97 120.368 367.998 132.03 367.998 144.512Z" fill="url(#paint0_linear_118_3491)" fill-opacity="0.2"/>
<path opacity="0.1" d="M332.79 219.183C332.79 221.304 325.458 223.292 312.664 225H70.6692C59.9024 225.023 49.3214 222.204 40.0022 216.829L39.8589 216.748C43.5357 215.413 50.1726 214.167 59.2057 213.043L59.6108 212.993C63.6615 212.5 68.1889 212.031 73.137 211.586C73.2616 211.586 73.3894 211.568 73.514 211.552C77.4401 211.204 81.6165 210.878 86.0432 210.574C86.1834 210.574 86.3205 210.549 86.4607 210.543C88.1682 210.421 89.9111 210.305 91.6892 210.195L92.3747 210.152C105.321 209.35 120.038 208.711 135.998 208.288H136.016C138.252 208.226 140.511 208.171 142.794 208.124C145.332 208.064 147.902 208.011 150.502 207.965C152.487 207.922 154.497 207.891 156.513 207.86H156.56C165.655 207.723 175.053 207.655 184.662 207.655C208.424 207.655 230.884 208.086 250.785 208.863H250.841C253.901 208.981 256.905 209.111 259.834 209.245L262.327 209.363C265.632 209.52 268.851 209.689 271.986 209.869C308.847 211.959 332.79 215.354 332.79 219.183Z" fill="#2A3842"/>
<g opacity="0.2">
<path opacity="0.2" d="M212.97 206.228C212.96 206.563 212.921 206.896 212.855 207.225C210.686 206.881 208.505 206.57 206.311 206.293C206.311 206.206 206.311 206.116 206.311 206.026C206.332 205.095 206.6 204.185 207.09 203.392C207.732 202.38 208.707 201.746 209.782 201.78C210.857 201.814 211.789 202.507 212.366 203.554C212.802 204.376 213.01 205.299 212.97 206.228Z" fill="#3F3D56"/>
<path opacity="0.2" d="M213.149 200.92C213.225 198.518 211.795 196.524 209.955 196.466C208.114 196.408 206.561 198.308 206.484 200.71C206.408 203.112 207.838 205.106 209.679 205.164C211.519 205.222 213.073 203.322 213.149 200.92Z" fill="#3F3D56"/>
<path opacity="0.2" d="M213.319 195.603C213.395 193.202 211.965 191.208 210.125 191.15C208.284 191.092 206.73 192.992 206.654 195.394C206.578 197.795 208.008 199.789 209.849 199.847C211.689 199.905 213.243 198.005 213.319 195.603Z" fill="#3F3D56"/>
<path opacity="0.2" d="M213.486 190.287C213.562 187.885 212.132 185.891 210.291 185.833C208.451 185.775 206.897 187.675 206.821 190.077C206.745 192.479 208.175 194.473 210.016 194.531C211.856 194.589 213.41 192.689 213.486 190.287Z" fill="#3F3D56"/>
<path opacity="0.2" d="M213.653 184.969C213.729 182.567 212.299 180.573 210.458 180.515C208.618 180.457 207.064 182.357 206.988 184.759C206.912 187.161 208.342 189.155 210.182 189.213C212.023 189.271 213.577 187.37 213.653 184.969Z" fill="#3F3D56"/>
<path opacity="0.2" d="M198.98 148.076C198.541 147.484 198.145 146.861 197.795 146.213L206.601 145.054L197.122 144.828C196.277 142.828 195.849 140.677 195.865 138.507C195.882 136.337 196.343 134.193 197.219 132.206L209.72 139.178L198.269 130.221C199.424 128.359 200.952 126.754 202.758 125.507C204.563 124.26 206.607 123.397 208.762 122.973C210.917 122.548 213.137 122.571 215.282 123.04C217.428 123.509 219.453 124.414 221.232 125.698C223.011 126.983 224.506 128.619 225.622 130.505C226.738 132.39 227.452 134.485 227.719 136.658C227.987 138.832 227.802 141.036 227.176 143.135C226.55 145.234 225.496 147.181 224.081 148.856C224.764 149.777 225.344 150.769 225.811 151.816L214.254 157.344L226.509 153.67C227.28 156.208 227.405 158.898 226.871 161.496C226.336 164.094 225.16 166.518 223.449 168.549C225.228 170.955 226.292 173.812 226.519 176.792C226.746 179.773 226.127 182.757 224.733 185.403C223.339 188.049 221.225 190.251 218.634 191.757C216.044 193.262 213.08 194.011 210.083 193.916C207.086 193.822 204.175 192.889 201.685 191.224C199.195 189.559 197.225 187.229 196 184.5C194.776 181.772 194.347 178.755 194.762 175.794C195.177 172.834 196.419 170.05 198.347 167.76C196.221 164.885 195.127 161.381 195.24 157.811C195.353 154.241 196.667 150.812 198.97 148.076H198.98Z" fill="#2A3842"/>
<path opacity="0.1" d="M227.188 158.816C227.079 162.388 225.761 165.818 223.449 168.549C225.228 170.955 226.292 173.812 226.519 176.792C226.746 179.773 226.127 182.757 224.733 185.403C223.339 188.049 221.225 190.251 218.635 191.757C216.044 193.262 213.08 194.011 210.083 193.916C207.086 193.822 204.175 192.889 201.685 191.224C199.195 189.559 197.225 187.229 196 184.5C194.776 181.771 194.347 178.755 194.762 175.794C195.177 172.834 196.419 170.05 198.347 167.76C196.3 164.987 227.244 157.03 227.188 158.816Z" fill="#2A3842"/>
</g>
<g opacity="0.2">
<path opacity="0.2" d="M165.608 206.228C165.598 206.563 165.56 206.896 165.493 207.225C163.324 206.881 161.143 206.57 158.95 206.293C158.95 206.206 158.95 206.116 158.95 206.026C158.97 205.095 159.239 204.185 159.729 203.392C160.37 202.38 161.346 201.746 162.421 201.78C163.496 201.814 164.427 202.507 165.004 203.554C165.44 204.376 165.648 205.299 165.608 206.228Z" fill="#3F3D56"/>
<path opacity="0.2" d="M165.784 200.921C165.86 198.519 164.43 196.525 162.589 196.467C160.749 196.409 159.195 198.309 159.119 200.711C159.043 203.113 160.473 205.107 162.313 205.165C164.154 205.223 165.708 203.323 165.784 200.921Z" fill="#3F3D56"/>
<path opacity="0.2" d="M165.954 195.606C166.03 193.204 164.6 191.21 162.759 191.152C160.919 191.094 159.365 192.994 159.289 195.396C159.213 197.798 160.643 199.792 162.484 199.85C164.324 199.908 165.878 198.008 165.954 195.606Z" fill="#3F3D56"/>
<path opacity="0.2" d="M166.121 190.288C166.197 187.887 164.767 185.892 162.926 185.834C161.086 185.776 159.532 187.677 159.456 190.078C159.38 192.48 160.81 194.474 162.65 194.532C164.491 194.59 166.045 192.69 166.121 190.288Z" fill="#3F3D56"/>
<path opacity="0.2" d="M166.288 184.971C166.364 182.569 164.934 180.575 163.093 180.517C161.253 180.459 159.699 182.359 159.623 184.761C159.547 187.163 160.977 189.157 162.818 189.215C164.658 189.273 166.212 187.373 166.288 184.971Z" fill="#3F3D56"/>
<path opacity="0.2" d="M151.618 148.076C151.179 147.484 150.783 146.861 150.434 146.213L159.239 145.054L149.761 144.828C148.915 142.828 148.487 140.677 148.504 138.507C148.52 136.337 148.981 134.193 149.857 132.206L162.358 139.178L150.907 130.221C152.062 128.359 153.59 126.754 155.396 125.507C157.201 124.26 159.245 123.397 161.4 122.973C163.555 122.548 165.775 122.571 167.92 123.04C170.066 123.509 172.092 124.414 173.871 125.698C175.65 126.983 177.144 128.619 178.26 130.505C179.376 132.39 180.09 134.485 180.358 136.658C180.625 138.832 180.44 141.036 179.814 143.135C179.188 145.234 178.135 147.181 176.72 148.856C177.402 149.777 177.982 150.769 178.449 151.816L166.892 157.344L179.147 153.67C179.919 156.208 180.043 158.898 179.509 161.496C178.975 164.094 177.798 166.518 176.087 168.549C177.866 170.955 178.93 173.812 179.157 176.792C179.384 179.773 178.765 182.757 177.371 185.403C175.977 188.049 173.863 190.251 171.273 191.757C168.682 193.262 165.719 194.011 162.721 193.916C159.724 193.822 156.814 192.889 154.323 191.224C151.833 189.559 149.863 187.229 148.639 184.5C147.414 181.772 146.985 178.755 147.4 175.794C147.815 172.834 149.057 170.05 150.985 167.76C148.86 164.885 147.765 161.381 147.878 157.811C147.991 154.241 149.305 150.812 151.608 148.076H151.618Z" fill="#2A3842"/>
<path opacity="0.1" d="M179.826 158.816C179.717 162.388 178.399 165.818 176.087 168.549C177.866 170.955 178.93 173.812 179.157 176.792C179.384 179.773 178.765 182.757 177.371 185.403C175.977 188.049 173.863 190.251 171.273 191.757C168.682 193.262 165.719 194.011 162.721 193.916C159.724 193.822 156.814 192.889 154.323 191.224C151.833 189.559 149.863 187.229 148.639 184.5C147.414 181.771 146.985 178.755 147.4 175.794C147.815 172.834 149.057 170.05 150.985 167.76C148.938 164.987 179.882 157.03 179.826 158.816Z" fill="#2A3842"/>
</g>
<path d="M50.1754 210.173L53.444 210.163H58.0525L63.8793 115.818L121.583 19.8418L119.075 17.1585V10.3632L56.669 113.594L50.1754 210.173Z" fill="#F1C0C0"/>
<path opacity="0.1" d="M53.7931 210.165H58.0526L63.8794 115.819L121.583 19.8433L119.075 17.1599L59.5545 114.381L53.7931 210.165Z" fill="black"/>
<path d="M40.5441 210.958L190.062 222.363L190.19 222.372L334.89 213.502L334.999 213.496V207.405L175.557 204.489L42.5352 204.362H41.563L41.4571 205.045L40.5441 210.958Z" fill="#F1C0C0"/>
<path opacity="0.1" d="M40.5441 210.958L190.062 222.363L190.19 222.372L334.89 213.502L334.999 213.384V207.533H334.871L190.062 212.353L42.5352 204.362H42.5134L42.2517 204.533L41.4571 205.045L40.5441 210.958Z" fill="black"/>
<path opacity="0.1" d="M40.5441 210.957L190.062 222.362V212.352L42.2517 204.532L41.4571 205.044L40.5441 210.957Z" fill="black"/>
<path d="M119.056 17.0331L184.974 87.5515L182.936 211.594L188.535 212.268L188.629 212.28H194.228L194.898 92.8778L318.329 133.973L320.41 207.143L324.916 207.647L326.443 207.817L322.909 128.898L193.879 83.747L123.129 10.4365H119.056V17.0331Z" fill="#F1C0C0"/>
<path opacity="0.1" d="M194.39 90.5931L194.898 92.8758L318.329 133.971L320.41 207.141L324.916 207.645L321.382 132.449L194.39 90.5931Z" fill="black"/>
<path opacity="0.1" d="M119.056 17.0331L184.974 87.5515L182.936 211.594L188.535 212.268L190.062 83.4924L119.056 10.4365V17.0331Z" fill="black"/>
<path d="M194.63 140.376L239.901 149.261L239.917 149.264L319.208 164.833L322.838 163.383L322.825 163.128L322.589 158.082L194.677 132.32L194.63 140.376Z" fill="#F1C0C0"/>
<path opacity="0.1" d="M239.917 149.265L319.208 164.833L322.838 163.383L322.825 163.128L239.917 149.265Z" fill="black"/>
<path d="M242.948 108.874L244.173 176.063L244.805 210.534L250.38 210.347L253.888 210.229L252.798 109.846L250.38 109.045L249.85 108.874H242.948Z" fill="#F1C0C0"/>
<path opacity="0.1" d="M242.998 108.858V108.873L244.173 176.062L244.806 210.533L250.38 210.346V108.858H242.998Z" fill="black"/>
<path d="M155.631 126.033C155.958 126.211 156.271 126.413 156.566 126.639C156.915 126.944 157.228 127.286 157.501 127.661C158.837 129.385 160.071 131.388 159.94 133.562C159.943 133.878 159.883 134.192 159.764 134.485C159.645 134.778 159.469 135.045 159.246 135.27C158.694 135.739 157.903 135.761 157.18 135.761C156.394 135.761 155.569 135.761 154.889 135.357C154.21 134.953 153.643 134.167 152.839 134.186C152.726 134.205 152.61 134.205 152.496 134.186C152.219 134.096 152.163 133.733 151.982 133.503C151.671 133.09 151.013 133.192 150.524 133.372C150.035 133.552 149.493 133.823 149.01 133.615C148.729 133.467 148.5 133.239 148.352 132.959C147.196 131.096 146.95 128.857 146.732 126.692C146.598 125.375 145.576 120.884 148.396 121.906C149.642 122.353 150.808 123.248 151.942 123.903L155.631 126.033Z" fill="white"/>
<path d="M152.846 126.477C153.097 126.658 153.403 126.749 153.713 126.737C154.023 126.724 154.32 126.609 154.556 126.409C155.02 125.991 155.316 125.419 155.388 124.8C155.7 124.704 155.859 125.111 156.058 125.359C156.407 125.782 157.117 125.775 157.435 126.226C157.657 126.536 157.607 126.968 157.762 127.319C157.965 127.772 158.467 128.008 158.809 128.375C159.133 128.775 159.367 129.24 159.495 129.738L160.006 131.266C160.25 131.902 160.408 132.567 160.473 133.245C160.506 133.583 160.47 133.925 160.368 134.25C160.267 134.574 160.101 134.876 159.881 135.136C159.196 135.872 158.071 135.95 157.077 135.928C156.745 135.935 156.414 135.896 156.092 135.813C155.211 135.54 154.647 134.655 154.413 133.763C154.179 132.872 154.204 131.937 154.067 131.024C153.919 130.127 153.657 129.253 153.288 128.421C153.014 127.775 152.26 126.813 152.272 126.126C152.497 126.126 152.659 126.331 152.846 126.477Z" fill="white"/>
<path d="M153.964 123.332C153.818 122.891 153.733 122.432 153.711 121.969C153.711 121.037 154.138 120.161 154.568 119.329L151.007 119.81C150.577 119.869 150.097 119.956 149.854 120.313C149.761 120.49 149.713 120.687 149.713 120.886C149.713 121.086 149.761 121.282 149.854 121.459C150.032 121.814 150.174 122.185 150.278 122.568C150.286 122.903 150.324 123.237 150.393 123.565C150.504 123.806 150.659 124.024 150.851 124.208C151.87 125.332 152.633 126.658 153.393 127.972C153.372 127.935 155.54 126.261 155.453 125.714C155.403 125.404 154.777 125.031 154.578 124.733C154.302 124.3 154.095 123.828 153.964 123.332Z" fill="#BE6F72"/>
<path d="M184.5 111.198V114.257L131.944 124.475L129.217 126.121H119.81V124.397L171.447 111.962L184.5 111.198Z" fill="#F1C0C0"/>
<path opacity="0.1" d="M184.5 114.256L131.944 124.474L129.217 126.12H119.81L171.831 115.023L184.5 114.256Z" fill="black"/>
<path d="M142.304 198.04C141.719 197.333 140.91 196.844 140.011 196.654C139.111 196.463 138.173 196.582 137.35 196.99C137.174 197.073 137.018 197.194 136.895 197.344C136.583 197.779 136.783 198.378 136.811 198.915C136.882 200.226 135.836 201.291 134.894 202.207C134.39 202.698 133.876 203.223 133.648 203.891C133.421 204.558 133.589 205.406 134.2 205.754C134.466 205.887 134.756 205.968 135.053 205.99C136.049 206.184 137.071 206.212 138.076 206.074C139.07 205.885 140.045 205.322 140.475 204.409C140.558 204.162 140.695 203.936 140.877 203.748C141.425 203.316 142.267 203.822 142.89 203.515C143.404 203.26 143.426 202.86 143.432 202.332C143.451 200.872 143.233 199.22 142.304 198.04Z" fill="#181729"/>
<path d="M149.782 197.982C150.165 198.989 150.218 200.085 150.268 201.16C150.296 201.781 150.315 202.445 149.978 202.97C149.642 203.495 148.984 203.771 148.355 203.902C147.056 204.169 145.551 203.917 144.713 202.889C144.071 202.104 143.937 201.026 144.055 200.007C144.155 199.172 144.367 198.194 143.765 197.6C143.609 197.442 143.407 197.33 143.264 197.159C142.952 196.78 143.002 196.209 143.17 195.743C143.389 195.298 143.554 194.827 143.659 194.342C143.684 194.113 147.878 194.504 148.265 194.693C148.791 194.951 148.71 195.383 148.869 195.905C149.09 196.631 149.514 197.287 149.782 197.982Z" fill="#181729"/>
<path d="M150.552 153.367C151.375 153.898 151.692 154.942 151.82 155.911C152.172 158.566 151.555 161.249 151.509 163.93C151.465 167.684 152.556 171.508 151.624 175.144C151.066 177.318 151.54 179.803 151.016 181.999C150.86 182.651 150.574 183.266 150.424 183.918C150.113 185.331 150.44 186.81 150.879 188.192C151.019 188.564 151.109 188.954 151.144 189.35C151.123 189.96 150.968 190.558 150.689 191.102L148.82 195.509C148.611 196.002 147.788 196.083 147.262 196.148C146.271 196.266 145.165 196.35 144.376 195.738C143.588 195.127 143.398 194.102 143.276 193.145C143.043 191.309 142.939 189.459 142.965 187.608C142.999 187.125 142.956 186.639 142.837 186.17C142.666 185.639 142.289 185.179 142.186 184.617C142.055 183.89 142.426 183.176 142.563 182.443C142.657 181.773 142.646 181.094 142.532 180.427C142.41 179.433 142.27 178.44 142.111 177.452C141.887 176.07 142.208 174.707 142.423 173.321C142.625 172.02 142.366 170.694 142.111 169.402C142.133 170.451 142.002 171.497 141.721 172.508C141.556 173.001 141.32 173.474 141.176 173.977C140.537 176.235 141.899 178.604 141.706 180.943C141.616 182.036 141.186 183.117 141.307 184.195C141.391 184.983 141.759 185.707 142.011 186.459C142.264 187.21 142.395 188.07 142.011 188.772C140.999 190.679 141.756 193.273 142.662 195.229C142.847 195.576 143.007 195.935 143.142 196.304C143.41 197.186 143.186 198.133 143.258 199.052C142.997 199.095 142.729 199.078 142.476 199.002C142.223 198.926 141.99 198.793 141.796 198.614C141.659 198.472 141.547 198.304 141.413 198.155C141.039 197.799 140.595 197.523 140.111 197.344C139.826 197.185 139.501 197.111 139.176 197.13C138.833 197.225 138.525 197.416 138.288 197.68C137.98 197.95 137.653 198.198 137.309 198.422C137.163 198.534 136.992 198.609 136.811 198.642C136.72 198.656 136.626 198.641 136.544 198.6C136.462 198.558 136.395 198.491 136.353 198.409C136.333 198.358 136.322 198.303 136.318 198.248C136.203 197.31 136.141 196.366 136.135 195.422C136.135 193.797 134.184 192.679 133.938 191.074C133.742 189.779 134.106 188.459 133.985 187.154C133.925 186.483 133.738 185.825 133.751 185.154C133.751 184.719 133.851 184.294 133.885 183.862C133.913 183.383 133.906 182.902 133.863 182.424L133.767 180.924C133.673 179.443 133.57 177.93 132.984 176.576C132.29 174.995 131.878 173.305 131.769 171.582C131.707 170.495 131.747 169.408 131.623 168.318C131.511 167.334 131.261 166.355 131.333 165.368C131.392 164.604 131.645 163.864 131.704 163.1C131.825 161.631 131.264 160.203 130.825 158.796C130.386 157.389 130.062 155.83 130.638 154.473C130.72 154.25 130.858 154.051 131.037 153.895C131.258 153.749 131.509 153.656 131.772 153.622C137.118 152.502 142.598 152.154 148.044 152.588C148.931 152.638 149.793 152.906 150.552 153.367Z" fill="#3F3D56"/>
<path d="M132.863 120.38C135.62 120.38 137.855 118.152 137.855 115.404C137.855 112.657 135.62 110.429 132.863 110.429C130.106 110.429 127.871 112.657 127.871 115.404C127.871 118.152 130.106 120.38 132.863 120.38Z" fill="#BE6F72"/>
<path d="M131.897 121.621C131.969 121.905 131.969 122.203 131.897 122.487C131.818 122.686 131.708 122.87 131.57 123.034C131.087 123.655 130.552 124.235 129.971 124.767C130.267 125.425 130.8 125.949 131.464 126.236C132.123 126.516 132.815 126.713 133.523 126.823C133.877 126.915 134.245 126.941 134.608 126.897C134.942 126.813 135.259 126.67 135.543 126.475L138.316 124.819C138.734 124.594 139.122 124.315 139.469 123.99C139.977 123.469 140.265 122.773 140.273 122.046C140.286 121.916 140.25 121.785 140.173 121.68C140.067 121.587 139.933 121.532 139.793 121.521C138.817 121.307 138.048 120.518 137.612 119.624C137.217 118.707 136.962 117.736 136.854 116.745L133.897 118.297C133.458 118.53 133.022 118.763 132.567 118.965C132.277 119.096 131.691 119.204 131.486 119.468C131.093 119.956 131.794 121.034 131.897 121.621Z" fill="#BE6F72"/>
<path d="M129.99 123.863C129.569 124.207 129.24 124.65 129.034 125.152C128.84 125.773 129.034 126.428 129.208 127.043C130.026 129.664 130.651 132.341 131.078 135.053C131.339 136.916 131.436 138.807 131.564 140.693C131.825 144.538 132.206 150.668 132.713 154.488C134.583 154.572 136.406 154.029 138.26 153.83C141.725 153.463 145.292 154.302 148.686 153.519C147.863 150.28 147.041 144.749 146.218 141.513C145.854 140.237 145.602 138.933 145.464 137.615C145.392 136.668 145.436 135.717 145.448 134.764C145.476 132.9 145.373 131.037 145.271 129.174C145.152 127 145.034 124.826 144.517 122.698C144.481 122.427 144.353 122.176 144.155 121.987C143.844 121.76 143.438 121.841 143.068 121.891C141.932 122.034 140.783 121.763 139.833 121.127C139.422 120.847 138.871 120.505 138.487 120.816C138.324 121.003 138.216 121.232 138.176 121.478C138.006 121.917 137.744 122.315 137.408 122.646C137.072 122.976 136.668 123.231 136.225 123.394C135.337 123.714 134.407 123.905 133.464 123.959C133.176 124.021 132.875 123.987 132.608 123.863C132.165 123.593 132.134 122.62 131.576 122.555C131.087 122.499 130.32 123.549 129.99 123.863Z" fill="white"/>
<path d="M137.362 131.446C136.212 130.349 135.707 128.759 134.869 127.408C134.299 126.5 133.569 125.7 132.716 125.048C132.287 124.765 131.894 124.433 131.545 124.057C131.249 123.694 131.024 123.209 130.576 123.069C130.39 123.029 130.198 123.035 130.015 123.085C129.832 123.135 129.664 123.229 129.525 123.358C129.251 123.619 128.991 123.895 128.746 124.184C127.425 125.548 125.104 125.737 124.057 127.315C123.775 127.649 123.583 128.05 123.499 128.48C123.198 130.776 123.794 133.1 125.163 134.971C125.428 135.404 125.836 135.733 126.316 135.902C126.251 136.481 126.328 137.068 126.54 137.61C127.117 139.576 127.826 141.501 128.662 143.372C128.462 144.103 128.323 144.85 128.245 145.605C128.027 147.502 128.229 149.428 128.024 151.328C127.855 152.881 127.4 154.394 127.385 155.95C127.385 156.198 127.407 156.493 127.622 156.621C127.736 156.679 127.864 156.706 127.992 156.698L131.825 156.813C134.05 156.878 136.296 156.944 138.487 156.534C138.779 156.491 139.061 156.401 139.325 156.27C140.067 155.857 140.313 154.925 140.431 154.096C140.586 153.02 140.647 151.933 140.615 150.847C141.079 152.31 141.631 153.822 143.033 154.456C143.775 154.791 144.622 154.766 145.435 154.745C147.188 154.667 148.935 154.487 150.667 154.207C150.774 154.221 150.882 154.209 150.983 154.173C151.085 154.137 151.176 154.077 151.25 154C151.324 153.922 151.379 153.828 151.411 153.726C151.442 153.623 151.449 153.515 151.43 153.409L151.449 151.714C151.486 148.269 150.63 144.977 150.296 141.549C150.19 140.468 150.2 139.374 149.935 138.315C149.826 137.871 149.667 137.437 149.57 136.989C149.487 136.551 149.435 136.108 149.414 135.663L149.171 132.247C149.056 130.666 148.891 129.141 148.769 127.563C148.703 126.027 148.479 124.502 148.103 123.01C147.831 122.079 147.268 121.023 146.292 120.908C145.772 120.849 145.267 121.076 144.772 121.234C143.554 121.616 142.247 121.611 141.033 121.218C140.657 121.071 140.266 120.967 139.867 120.908C139.666 120.881 139.462 120.907 139.274 120.985C139.087 121.062 138.924 121.188 138.802 121.349C138.681 121.592 138.624 121.861 138.636 122.132C138.49 125.234 138.219 128.43 137.362 131.446Z" fill="#A0CD69"/>
<path d="M132.349 131.539C130.912 130.03 129.438 128.493 127.587 127.533C126.858 127.154 126.029 126.868 125.222 127.011C124.415 127.154 123.664 127.853 123.702 128.67C123.727 129.176 124.035 129.623 124.132 130.12C124.244 130.679 124.082 131.275 124.256 131.816C124.398 132.172 124.61 132.496 124.88 132.769L127.086 135.375C128.021 136.462 128.955 137.564 130.158 138.316C131.361 139.067 132.919 139.418 134.24 138.884C135.18 138.449 135.961 137.734 136.477 136.838C137.026 135.968 137.412 135.018 137.926 134.12C138.726 132.686 139.782 131.409 141.042 130.353C140.394 130.185 139.581 129.949 139.172 129.421C139.056 129.253 138.957 129.074 138.876 128.887L138.372 127.8C138.2 127.791 138.028 127.818 137.867 127.878C137.707 127.938 137.56 128.031 137.437 128.151C137.22 128.4 136.988 128.636 136.742 128.856C136.303 129.185 135.708 129.275 135.309 129.651C135.154 129.812 135.015 129.987 134.891 130.173C134.589 130.568 134.207 130.894 133.768 131.13C133.33 131.366 132.846 131.505 132.349 131.539Z" fill="white"/>
<path d="M141.158 125.046C142.239 123.08 142.189 120.722 142.498 118.502C142.531 117.914 142.738 117.349 143.093 116.877C143.716 116.176 144.816 116.166 145.757 116.256C146.034 116.287 146.38 116.418 146.364 116.694C146.343 116.793 146.294 116.885 146.224 116.958C145.312 118.132 144.776 119.551 144.685 121.033C145.174 121.371 145.931 120.676 146.402 121.033C146.713 121.294 146.57 121.809 146.383 122.182C145.949 123.045 145.501 123.903 145.04 124.754C144.672 125.504 144.192 126.194 143.616 126.8C143.22 127.179 142.756 127.477 142.354 127.85C141.419 128.723 140.855 129.956 139.89 130.807C139.808 130.895 139.697 130.951 139.578 130.965C139.455 130.956 139.339 130.905 139.251 130.819C138.768 130.428 138.368 129.946 138.073 129.4C137.705 128.723 137.761 128.524 138.341 128.046C139.425 127.192 140.482 126.275 141.158 125.046Z" fill="#BE6F72"/>
<path d="M130.542 130.204C130.729 130.318 130.959 130.449 131.165 130.353C131.249 130.302 131.32 130.233 131.374 130.151C131.73 129.677 132.027 129.162 132.259 128.617C132.298 128.54 132.321 128.455 132.324 128.368C132.324 128.169 132.146 128.023 131.981 127.908C131.096 127.346 130.145 126.896 129.149 126.567C128.326 126.256 127.466 125.986 126.594 126.064C126.266 126.086 125.946 126.173 125.653 126.322C125.36 126.47 125.1 126.676 124.889 126.927C124.266 127.725 125.31 127.967 125.964 128.256C127.479 128.943 129.118 129.34 130.542 130.204Z" fill="#95BD63"/>
<path opacity="0.1" d="M129.56 135.484C129.55 135.555 129.556 135.627 129.579 135.695C129.601 135.763 129.64 135.825 129.691 135.875C129.781 135.434 129.663 134.968 129.756 134.524C129.894 133.856 130.545 133.353 130.601 132.683C129.407 132.45 129.569 134.763 129.56 135.484Z" fill="black"/>
<path opacity="0.2" d="M184.5 111.198V114.257L171.831 115.024L171.448 111.962L184.5 111.198Z" fill="black"/>
<path d="M128.369 116.146C129.161 115.503 128.703 114.155 129.239 113.292C129.55 112.819 130.077 112.571 130.594 112.36C131.218 112.069 131.887 111.884 132.573 111.813C132.916 111.78 133.262 111.825 133.586 111.944C133.91 112.063 134.202 112.253 134.442 112.5C134.645 112.729 134.782 113.009 134.972 113.248C135.207 113.527 135.514 113.737 135.86 113.856C136.205 113.976 136.577 113.999 136.935 113.925C137.35 113.832 137.78 113.518 137.751 113.096C137.705 112.839 137.573 112.605 137.378 112.431L136.486 111.447C135.474 110.329 134.349 109.142 132.863 108.863C131.828 108.667 130.769 108.944 129.772 109.276C129.37 109.409 128.918 109.608 128.806 110.015C128.731 110.294 128.843 110.599 128.778 110.881C128.65 111.444 127.927 111.633 127.59 112.105C127.254 112.577 127.357 113.136 127.26 113.658C127.164 114.18 126.883 114.689 126.849 115.229C126.827 115.556 126.992 116.161 127.36 116.279C127.728 116.397 128.142 115.757 128.369 116.146Z" fill="#3F3D56"/>
<path d="M137.449 112.647C137.187 111.28 136.62 109.99 135.792 108.87C135.055 107.824 134.03 107.013 132.841 106.535C132.246 106.303 131.607 106.209 130.971 106.259C130.334 106.309 129.718 106.502 129.167 106.824C128.35 107.405 127.713 108.205 127.332 109.131C126.525 110.864 126.226 112.982 127.164 114.647C127.537 114.194 128.179 114.399 128.746 114.234C129.457 114.032 130.058 113.56 130.734 113.265C132.775 112.367 135.268 113.094 137.449 112.647Z" fill="#FED253"/>
<path opacity="0.1" d="M127.64 112.551C127.569 111.992 127.522 111.343 127.921 110.945C127.941 110.921 127.966 110.901 127.995 110.888C128.023 110.876 128.055 110.869 128.086 110.871C128.114 110.88 128.139 110.894 128.161 110.913C128.183 110.933 128.201 110.956 128.214 110.982C128.444 111.345 128.64 111.727 128.8 112.125C128.567 112.072 128.324 112.089 128.102 112.175C127.88 112.261 127.689 112.411 127.553 112.607" fill="black"/>
<path opacity="0.1" d="M134.923 110.974L134.81 109.865C134.792 109.774 134.8 109.679 134.832 109.592C134.879 109.519 134.952 109.465 135.036 109.442C135.12 109.419 135.209 109.428 135.287 109.467C135.44 109.552 135.567 109.678 135.652 109.831C135.911 110.228 136.126 110.652 136.294 111.095C135.792 110.998 135.276 111.005 134.776 111.113" fill="black"/>
<path opacity="0.1" d="M137.711 155.973V158.507L135.565 158.65H124.272V155.973H137.711Z" fill="black"/>
<path d="M137.711 155.972V158.649H124.272L88.5698 114.073V111.967H96.0543L137.711 155.972Z" fill="#F1C0C0"/>
<path opacity="0.1" d="M137.711 155.972V158.649H124.272L88.5698 114.073V111.967H96.0543L137.711 155.972Z" fill="black"/>
<path opacity="0.1" d="M137.711 155.972V158.649H124.272L88.5698 114.073V111.967L124.465 155.972H137.711Z" fill="black"/>
<path d="M93.2502 200.652C93.2737 200.778 93.2709 200.908 93.2419 201.032C93.2129 201.157 93.1584 201.275 93.0818 201.378C93.0052 201.481 92.9081 201.567 92.7966 201.63C92.6851 201.694 92.5616 201.734 92.4338 201.748C91.5676 202.04 90.6484 202.329 90.0346 202.991C89.4207 203.652 89.2992 204.879 90.0346 205.416C90.4104 205.642 90.842 205.76 91.2809 205.755C92.6924 205.851 94.1632 205.833 95.4438 205.236C96.3599 204.814 97.223 204.093 98.2295 204.159C98.7498 204.19 99.3045 204.432 99.7687 204.196C100.233 203.96 100.364 203.301 100.367 202.752C100.379 201.604 100.205 200.462 99.8529 199.369C99.8061 199.22 97.8244 199.106 97.5876 199.059L95.1852 198.748C94.7303 198.689 93.7488 198.348 93.3904 198.727C93.0321 199.106 93.2502 200.202 93.2502 200.652Z" fill="#181729"/>
<path d="M107.586 192.898C107.688 193.458 107.853 194.004 108.078 194.526C108.412 195.371 108.839 196.268 109.655 196.678C110.397 197.048 111.306 196.914 112.061 196.563C112.375 196.433 112.651 196.225 112.861 195.958C113.105 195.535 113.213 195.049 113.173 194.563C113.173 193.361 113.101 192.119 112.55 191.051C112.076 190.119 111.25 189.318 111.238 188.286L108.399 188.833C108.247 188.848 108.103 188.905 107.982 188.998C107.892 189.092 107.829 189.209 107.801 189.336C107.498 190.498 107.425 191.708 107.586 192.898Z" fill="#181729"/>
<path d="M73.6881 163.395C73.5697 164.395 73.6196 165.467 74.1431 166.33C74.6665 167.193 75.7696 167.765 76.723 167.42C76.7719 167.408 76.8177 167.386 76.8579 167.355C76.898 167.325 76.9316 167.287 76.9567 167.243C76.9821 167.138 76.9677 167.028 76.9162 166.933C76.4953 165.813 76.53 164.574 77.0128 163.479C77.0751 163.336 77.2091 163.168 77.3556 163.224C77.4168 163.255 77.4661 163.306 77.4958 163.367C77.6466 163.627 77.7221 163.924 77.7139 164.224C77.6699 164.497 77.6615 164.773 77.689 165.047C77.7482 165.315 78.0348 165.566 78.2841 165.451C78.3562 165.407 78.4185 165.349 78.4672 165.28C78.516 165.211 78.5502 165.133 78.5677 165.051C79.2625 163.047 78.9478 160.858 78.63 158.761C78.6327 158.713 78.6247 158.665 78.6066 158.62C78.5885 158.576 78.5609 158.536 78.5255 158.503C78.4901 158.47 78.4479 158.445 78.4019 158.43C78.3559 158.415 78.3072 158.411 78.2592 158.417C76.7885 158.271 75.9846 157.92 75.1433 159.283C74.4204 160.432 73.6881 162.013 73.6881 163.395Z" fill="#FBBEBE"/>
<path d="M90.8823 158.3C90.4461 160.107 90.0067 161.937 89.9787 163.794C89.9864 164.951 90.0738 166.106 90.2404 167.25L90.5676 169.94C90.6798 170.847 90.7888 171.751 90.9478 172.648C91.0491 173.111 91.1044 173.582 91.1129 174.055C91.0823 174.522 91.0083 174.984 90.8917 175.437C90.6957 176.388 90.5862 177.355 90.5645 178.325C90.5302 179.878 90.7234 181.431 90.8449 182.984C91.0875 186.079 91.051 189.188 90.7359 192.276C90.61 193.11 90.7916 193.961 91.2469 194.671C91.4316 194.895 91.5837 195.144 91.6987 195.41C91.9324 196.121 91.3871 196.832 91.2469 197.562C91.1572 198.131 91.2978 198.713 91.6378 199.179C91.9779 199.644 92.4895 199.957 93.0604 200.047C95.5531 200.342 98.1144 200.208 100.361 201.345C100.598 200.656 100.081 199.873 100.317 199.171C100.467 198.736 100.878 198.454 101.159 198.087C101.535 197.529 101.723 196.865 101.695 196.193C101.706 195.315 101.549 194.444 101.233 193.624C100.969 192.941 100.588 192.267 100.61 191.534C100.61 191.174 100.738 190.795 100.592 190.463C100.491 190.272 100.355 190.102 100.19 189.963C99.2584 188.946 98.6861 187.653 98.56 186.282C98.4385 184.922 98.4824 183.551 98.6908 182.201C98.8435 180.916 99.0492 179.558 99.8687 178.555C99.4886 175.514 99.712 172.427 100.526 169.471C100.607 169.198 100.735 168.881 101.015 168.816C101.127 168.804 101.239 168.82 101.343 168.861C101.447 168.902 101.54 168.968 101.614 169.052C102.103 169.508 102.336 170.17 102.548 170.803C102.782 171.49 103.019 172.223 102.841 172.925C102.766 173.235 102.617 173.509 102.53 173.807C102.34 174.406 102.373 175.053 102.623 175.63C102.745 175.84 102.821 176.074 102.847 176.316C102.819 176.524 102.755 176.725 102.661 176.912C102.545 177.28 102.508 177.668 102.553 178.05C102.597 178.433 102.722 178.802 102.919 179.133C103.316 179.792 103.806 180.392 104.374 180.913C104.103 182.105 104.173 183.349 104.577 184.503C104.606 184.555 104.625 184.612 104.631 184.671C104.638 184.73 104.634 184.79 104.617 184.847C104.561 184.966 104.418 185.009 104.306 185.093C103.994 185.348 104.187 185.829 104.396 186.161C104.968 187.073 105.6 187.947 106.287 188.776C106.911 189.519 106.855 190.95 107.783 191.217C108.173 191.301 108.577 191.301 108.967 191.217C109.883 191.078 110.905 190.814 111.354 190.006C111.538 189.674 111.613 189.27 111.899 189.022C112.186 188.773 112.557 188.73 112.716 188.431C112.875 188.133 112.697 187.742 112.75 187.397C112.803 187.053 113.105 186.776 113.202 186.413C113.432 185.574 112.451 184.885 112.317 184.028C112.124 182.785 113.694 181.854 113.629 180.611C113.492 177.912 113.404 175.201 113.264 172.502C113.088 170.085 113.063 167.659 113.189 165.238C113.298 163.732 113.501 162.154 112.946 160.753C112.149 158.778 109.949 157.669 107.821 157.458C105.692 157.247 103.57 157.75 101.461 158.079C97.9599 158.617 94.4029 158.691 90.8823 158.3Z" fill="#3F3D56"/>
<path d="M97.2075 128.616C99.9644 128.616 102.199 126.388 102.199 123.64C102.199 120.892 99.9644 118.665 97.2075 118.665C94.4507 118.665 92.2158 120.892 92.2158 123.64C92.2158 126.388 94.4507 128.616 97.2075 128.616Z" fill="#FBBEBE"/>
<path d="M95.1757 129.543C95.0061 129.937 94.721 130.27 94.3578 130.499C93.9946 130.728 93.5704 130.842 93.141 130.826C92.9602 131.571 93.3934 132.323 93.8888 132.91C94.9176 134.103 96.247 135.001 97.7401 135.512C99.2332 136.022 100.836 136.127 102.383 135.814C102.985 135.706 103.556 135.469 104.056 135.118C104.73 134.557 105.183 133.776 105.334 132.913C105.477 132.057 105.518 131.186 105.455 130.32C105.473 130.149 105.424 129.978 105.318 129.842C105.193 129.745 105.039 129.695 104.882 129.699C103.829 129.606 102.729 129.565 101.803 129.05C100.878 128.534 100.22 127.369 100.666 126.413C100.594 126.562 98.7746 126.633 98.5346 126.664C97.7837 126.77 97.0328 126.888 96.2849 127.025C95.9256 127.044 95.5704 127.111 95.2286 127.223C94.7768 127.456 94.9451 127.341 95.051 127.764C95.2099 128.41 95.4436 128.873 95.1757 129.543Z" fill="#FBBEBE"/>
<path d="M98.974 132.568C98.3017 132.576 97.631 132.502 96.9767 132.348C96.3161 132.194 95.7338 131.807 95.3378 131.258C95.1072 130.91 94.9576 130.472 94.5899 130.276C93.9886 129.966 93.3031 130.491 92.8232 130.972C92.3863 131.447 91.88 131.853 91.3213 132.177C90.6545 132.528 89.8755 132.652 89.2461 133.065C88.7544 133.436 88.3324 133.89 87.9997 134.407L83.5845 140.401C81.8115 142.811 80.2691 145.398 78.6894 147.942C77.3215 150.144 76.6048 152.678 75.5734 155.054C75.4917 155.199 75.4579 155.366 75.4768 155.532C75.5142 155.693 75.7105 155.824 75.8476 155.731C75.3834 156.19 75.7915 156.973 75.6825 157.619C75.5585 158.071 75.2999 158.475 74.9409 158.777C75.6267 158.688 76.323 158.721 76.9974 158.874C77.6944 159.071 78.3522 159.386 78.9417 159.805C79.3188 159.746 79.2845 159.079 79.5649 158.83C79.7332 158.684 79.9825 158.703 80.2037 158.659C81.0356 158.498 81.3659 157.501 82.0047 156.939C82.5375 156.47 83.2916 156.318 83.8556 155.877C84.7716 155.159 84.9679 153.883 85.4478 152.824C85.856 151.926 86.4979 151.144 86.8562 150.224C87.0899 149.628 87.2021 148.982 87.5355 148.432C88.0683 147.544 89.0716 147.072 90.0282 146.647C90.6327 146.376 91.2746 146.097 91.9258 146.14C91.8915 147.584 91.7077 149.007 92.0224 150.417C92.1315 150.914 92.2841 151.398 92.415 151.892C93.0102 154.116 93.1504 156.433 93.1784 158.725C94.61 158.398 96.0722 158.223 97.5407 158.203C98.6967 158.169 99.8496 158.318 101.006 158.296C102.377 158.271 103.732 158.007 105.103 157.914C106.474 157.821 107.907 157.914 109.119 158.535C109.021 156.567 109.076 154.594 109.285 152.634L109.615 149.547C109.689 148.65 109.828 147.76 110.029 146.883C110.21 146.174 110.472 145.491 110.671 144.786C111.372 142.302 111.245 139.649 111.111 137.062C111.042 135.733 110.528 134.426 109.923 133.242C109.705 132.803 109.455 132.379 109.176 131.975C108.445 130.972 107.472 130.17 106.346 129.643C105.22 129.116 103.979 128.882 102.738 128.963C102.58 128.967 102.423 129.001 102.277 129.062C102.014 129.23 101.808 129.474 101.688 129.761C101.043 130.916 100.108 131.883 98.974 132.568Z" fill="white"/>
<path d="M92.817 125.287C92.9572 124.976 93.3343 124.861 93.5649 124.613C94.0073 124.141 93.8079 123.386 93.8764 122.749C93.9886 121.818 94.7645 121.038 95.6525 120.706C96.5581 120.416 97.5218 120.355 98.4568 120.529C98.9069 120.561 99.3418 120.706 99.7219 120.948C99.8839 121.066 100.034 121.218 100.186 121.327C100.465 121.495 100.798 121.547 101.114 121.473C101.431 121.4 101.706 121.206 101.881 120.932C100.778 119.609 99.5568 118.212 97.8804 117.805C97.3053 117.688 96.7193 117.633 96.1324 117.64C95.3565 117.625 94.5557 117.612 93.8391 117.907C92.8638 118.308 92.1783 119.23 91.8262 120.224C91.5182 121.232 91.3536 122.277 91.337 123.33C91.2731 124.033 91.2731 124.739 91.337 125.442C91.4574 126.401 91.815 127.316 92.3777 128.104C92.4538 128.226 92.5614 128.326 92.6893 128.392C94.1101 129.013 92.7017 125.544 92.817 125.287Z" fill="#3F3D56"/>
<path d="M101.719 120.167C101.548 118.704 100.501 117.496 99.3885 116.524C98.4919 115.681 97.4239 115.04 96.257 114.645C95.0823 114.3 93.73 114.374 92.7235 115.073C91.9134 115.635 91.3993 116.53 91.0035 117.43C90.4837 118.493 90.2262 119.665 90.2526 120.847C90.3305 122.021 90.9038 123.21 91.9259 123.803C92.2935 123.263 92.9323 122.983 93.5461 122.763C96.2215 121.751 98.9499 120.884 101.719 120.167Z" fill="#FED253"/>
<path opacity="0.1" d="M92.2689 119.557C92.3686 119.557 92.4341 119.66 92.4839 119.744C92.7376 120.137 92.9555 120.553 93.1351 120.986C92.7706 121.063 92.1443 121.15 91.9636 120.831C91.867 120.669 91.9823 119.542 92.2689 119.557Z" fill="black"/>
<path opacity="0.1" d="M99.37 118.855C99.2952 118.927 99.208 118.781 99.208 118.675V117.47C99.2059 117.437 99.2135 117.403 99.2298 117.374C99.2427 117.359 99.2585 117.347 99.2761 117.339C99.2938 117.33 99.313 117.325 99.3326 117.324C99.585 117.296 99.7938 117.51 99.9558 117.715C100.202 118.048 100.416 118.402 100.595 118.774L99.2765 118.734" fill="black"/>
<path d="M115.819 138.81C116.106 138.539 116.412 138.289 116.735 138.061C117.598 137.487 118.642 137.26 119.611 136.894C120.58 136.527 121.565 135.934 121.942 134.971C122.13 134.369 122.192 133.735 122.122 133.108C122.131 132.845 122.085 132.584 121.985 132.341C121.867 132.126 121.698 131.943 121.493 131.807C120.178 130.838 118.414 130.76 116.782 130.859C113.182 131.082 109.654 131.96 106.371 133.45C106.198 133.507 106.046 133.615 105.935 133.76C105.871 133.895 105.842 134.043 105.851 134.192C105.793 135.108 105.912 136.026 106.203 136.897C106.633 138.002 107.518 138.894 107.889 140.021C108.057 140.527 108.113 141.065 108.26 141.574C108.38 142.1 108.692 142.563 109.135 142.872C110.366 143.605 111.528 142.621 112.382 141.857L115.819 138.81Z" fill="white"/>
<path d="M99.6997 143.112L98.1199 139.677C97.8883 139.201 97.6884 138.71 97.5217 138.208C97.3409 137.609 97.2537 136.988 97.0854 136.385C96.5308 134.379 95.1317 132.708 94.4494 130.742C94.4062 130.564 94.3183 130.401 94.1939 130.267C94.0943 130.197 93.9804 130.149 93.8603 130.128C93.7402 130.106 93.6169 130.111 93.499 130.143C92.5455 130.307 91.8008 131.031 90.9284 131.441C90.5233 131.627 90.0871 131.751 89.682 131.966C89.4795 132.061 89.3001 132.199 89.156 132.37C89.0119 132.541 88.9065 132.741 88.8469 132.956C88.7503 133.432 88.9871 133.888 89.1866 134.351C90.0341 136.258 90.2273 138.388 90.2647 140.475C90.2927 141.879 90.2211 143.385 89.3891 144.513C87.7906 146.687 88.8126 149.879 89.4109 152.51C89.4826 152.821 89.5667 153.156 89.6166 153.485C89.6693 153.897 89.6932 154.312 89.6882 154.727C89.6882 156.122 89.6103 157.56 89.0245 158.824C89.6029 159.131 90.2403 159.311 90.8941 159.352C92.7034 159.582 94.52 159.743 96.3438 159.836C96.9153 159.89 97.4915 159.861 98.0545 159.749C98.7231 159.569 99.3124 159.172 99.7294 158.621C100.146 158.07 100.367 157.396 100.357 156.706C100.457 157.566 100.641 158.501 101.267 159.097C101.893 159.693 102.806 159.784 103.657 159.83C106.058 159.957 108.465 159.89 110.855 159.628C111.007 159.621 111.157 159.587 111.297 159.526C111.758 159.296 111.783 158.662 111.746 158.153C111.677 157.2 111.606 156.246 111.49 155.299C111.393 154.695 111.343 154.084 111.341 153.473C111.388 152.844 111.493 152.22 111.652 151.609C112.07 149.671 112.4 147.693 112.26 145.708C112.205 145.225 112.185 144.738 112.201 144.252C112.282 143.156 112.861 142.112 112.752 141.022C112.441 137.817 112.188 134.528 111.291 131.435C111.129 130.882 110.923 130.289 110.44 129.972C109.817 129.556 108.942 129.773 108.228 129.509C107.893 129.354 107.575 129.165 107.278 128.947C106.632 128.544 105.892 128.317 105.131 128.288C104.557 128.267 103.919 128.394 103.573 128.854C103.413 129.112 103.307 129.401 103.261 129.702C102.809 131.596 102.28 133.469 101.75 135.342L101.242 137.137L99.8804 141.957C99.7464 142.469 99.8368 142.628 99.6997 143.112Z" fill="#51B4E8"/>
<path d="M107.667 124.306L137.808 155.875V158.553H124.369L101.719 129.089" fill="#F1C0C0"/>
<path opacity="0.1" d="M107.667 124.306L137.808 155.875V158.553H124.369L101.719 129.089" fill="black"/>
<path opacity="0.1" d="M102.199 128.675L102.296 128.709L124.562 155.878H137.808V158.555H124.369L101.719 129.091L102.199 128.675Z" fill="black"/>
<path d="M105.667 129.337C104.576 129.812 103.364 130.421 103.037 131.564C102.972 131.764 102.959 131.978 102.997 132.185C103.076 132.429 103.228 132.642 103.432 132.798C103.637 132.954 103.883 133.044 104.14 133.058C104.653 133.07 105.163 132.977 105.639 132.784L112.073 130.666C112.248 130.61 112.447 130.526 112.491 130.356C112.502 130.248 112.48 130.14 112.429 130.045C112.229 129.561 112.033 128.57 111.615 128.231C111.272 127.958 110.593 128.054 110.179 128.061C108.583 128.073 107.085 128.716 105.667 129.337Z" fill="#FBBEBE"/>
<path d="M111.403 130.919C112.487 130.916 113.565 131.083 114.597 131.413C115.634 131.749 116.552 132.374 117.243 133.214C117.444 133.449 117.587 133.728 117.66 134.028C117.722 134.339 118.738 134.525 118.514 134.736C119.196 134.627 119.034 134.947 119.726 134.941C120.418 134.935 121.166 134.758 121.58 134.208C121.868 133.757 121.996 133.222 121.945 132.69C121.954 132.321 121.883 131.954 121.739 131.615C121.427 130.963 120.711 130.612 120.05 130.311L114.485 127.773C114.162 127.602 113.816 127.48 113.457 127.41C113.155 127.381 112.85 127.389 112.55 127.432L110.029 127.72C110.581 128.076 111.029 128.569 111.331 129.15C111.634 129.731 111.779 130.38 111.752 131.034" fill="white"/>
<defs>
<linearGradient id="paint0_linear_118_3491" x1="184.495" y1="-0.000467107" x2="184.495" y2="233.428" gradientUnits="userSpaceOnUse">
<stop offset="0.00312487" stop-color="#05ADE5"/>
<stop offset="0.51875" stop-color="#A0CD69" stop-opacity="0.8"/>
<stop offset="1" stop-color="#A0CD69" stop-opacity="0"/>
</linearGradient>
</defs>
</svg>
