<svg width="13" height="13" viewBox="0 0 13 13" fill="none" xmlns="http://www.w3.org/2000/svg">
<path fill-rule="evenodd" clip-rule="evenodd" d="M0.292787 1.29357C0.480314 1.1061 0.734622 1.00078 0.999786 1.00078C1.26495 1.00078 1.51926 1.1061 1.70679 1.29357L5.99979 5.58657L10.2928 1.29357C10.385 1.19806 10.4954 1.12188 10.6174 1.06947C10.7394 1.01706 10.8706 0.989473 11.0034 0.988319C11.1362 0.987165 11.2678 1.01247 11.3907 1.06275C11.5136 1.11303 11.6253 1.18728 11.7192 1.28117C11.8131 1.37507 11.8873 1.48672 11.9376 1.60962C11.9879 1.73251 12.0132 1.86419 12.012 1.99697C12.0109 2.12975 11.9833 2.26097 11.9309 2.38297C11.8785 2.50498 11.8023 2.61532 11.7068 2.70757L7.41379 7.00057L11.7068 11.2936C11.8889 11.4822 11.9897 11.7348 11.9875 11.997C11.9852 12.2592 11.88 12.51 11.6946 12.6954C11.5092 12.8808 11.2584 12.986 10.9962 12.9882C10.734 12.9905 10.4814 12.8897 10.2928 12.7076L5.99979 8.41457L1.70679 12.7076C1.51818 12.8897 1.26558 12.9905 1.00339 12.9882C0.741188 12.986 0.490376 12.8808 0.304968 12.6954C0.11956 12.51 0.0143906 12.2592 0.0121121 11.997C0.00983372 11.7348 0.110629 11.4822 0.292787 11.2936L4.58579 7.00057L0.292787 2.70757C0.105316 2.52004 0 2.26573 0 2.00057C0 1.73541 0.105316 1.4811 0.292787 1.29357Z" fill="#002266"/>
</svg>
