<svg width="20" height="20" viewBox="0 0 20 20" fill="none" xmlns="http://www.w3.org/2000/svg">
<path d="M14.9019 16.0808C13.4362 17.0105 11.7358 17.5028 10.0002 17.5C5.50688 17.5 1.76854 14.2667 0.984375 9.99999C1.34273 8.05893 2.31907 6.28574 3.76771 4.94499L1.16021 2.33999L2.33938 1.16083L18.8385 17.6608L17.6594 18.8392L14.901 16.0808H14.9019ZM4.94604 6.12499C3.81355 7.15465 3.02464 8.50731 2.68604 9.99999C2.94629 11.1387 3.46876 12.2009 4.21188 13.1022C4.95499 14.0034 5.89823 14.7187 6.9665 15.1911C8.03477 15.6635 9.19858 15.88 10.3653 15.8234C11.532 15.7668 12.6694 15.4386 13.6869 14.865L11.9969 13.175C11.2775 13.6282 10.4254 13.8234 9.58041 13.7287C8.73544 13.634 7.94774 13.2549 7.34652 12.6537C6.74529 12.0525 6.36623 11.2648 6.27151 10.4198C6.17679 9.57483 6.37203 8.72275 6.82521 8.00333L4.94604 6.12499ZM10.7619 11.94L8.06021 9.23833C7.91193 9.61577 7.87703 10.0283 7.9598 10.4253C8.04256 10.8223 8.23939 11.1865 8.52614 11.4732C8.81289 11.76 9.1771 11.9568 9.57409 12.0396C9.97108 12.1223 10.3836 12.0874 10.761 11.9392L10.7619 11.94ZM17.3394 13.8267L16.1469 12.635C16.7039 11.8411 17.1005 10.946 17.3144 9.99999C17.0879 9.0081 16.6621 8.07262 16.0628 7.25041C15.4636 6.4282 14.7034 5.73643 13.8284 5.21716C12.9535 4.6979 11.9821 4.36197 10.9733 4.2298C9.96452 4.09763 8.93938 4.17198 7.96021 4.44833L6.64521 3.13333C7.68438 2.72499 8.81688 2.49999 10.0002 2.49999C14.4935 2.49999 18.2319 5.73333 19.016 9.99999C18.7607 11.3881 18.1868 12.698 17.3394 13.8267V13.8267ZM9.76938 6.25666C10.2998 6.22388 10.8311 6.30422 11.3282 6.49234C11.8252 6.68047 12.2766 6.97209 12.6523 7.34787C13.0281 7.72365 13.3197 8.17502 13.5079 8.67204C13.696 9.16907 13.7763 9.7004 13.7435 10.2308L9.76854 6.25666H9.76938Z" fill="#0C1A4B" fill-opacity="0.24"/>
</svg>
