<svg width="24" height="25" viewBox="0 0 24 25" fill="none" xmlns="http://www.w3.org/2000/svg">
<path d="M10 23.8667C4.33333 22.8667 0 17.9333 0 12C0 5.4 5.4 0 12 0C18.6 0 24 5.4 24 12C24 17.9333 19.6667 22.8667 14 23.8667L13.3333 23.3333H10.6667L10 23.8667Z" fill="url(#paint0_linear_1282_733)"/>
<path d="M16.6667 15.3346L17.2 12.0013H14V9.66797C14 8.73463 14.3333 8.0013 15.8 8.0013H17.3333V4.93464C16.4667 4.8013 15.5333 4.66797 14.6667 4.66797C11.9333 4.66797 10 6.33464 10 9.33464V12.0013H7V15.3346H10V23.8013C10.6667 23.9346 11.3333 24.0013 12 24.0013C12.6667 24.0013 13.3333 23.9346 14 23.8013V15.3346H16.6667Z" fill="white"/>
<defs>
<linearGradient id="paint0_linear_1282_733" x1="12" y1="23.1693" x2="12" y2="0" gradientUnits="userSpaceOnUse">
<stop stop-color="#0062E0"/>
<stop offset="1" stop-color="#19AFFF"/>
</linearGradient>
</defs>
</svg>
