<svg width="24" height="24" viewBox="0 0 24 24" fill="none" xmlns="http://www.w3.org/2000/svg">
<path fill-rule="evenodd" clip-rule="evenodd" d="M22.88 12.2576C22.88 11.454 22.8079 10.6813 22.674 9.93945H12V14.3234H18.0994C17.8367 15.7401 17.0382 16.9404 15.8379 17.744V20.5877H19.5006C21.6436 18.6146 22.88 15.7092 22.88 12.2576Z" fill="#4285F4"/>
<path fill-rule="evenodd" clip-rule="evenodd" d="M12 23.3334C15.06 23.3334 17.6254 22.3185 19.5006 20.5876L15.8379 17.744C14.823 18.424 13.5248 18.8258 12 18.8258C9.04814 18.8258 6.54965 16.8322 5.65844 14.1534H1.87207V17.0897C3.73692 20.7937 7.56966 23.3334 12 23.3334Z" fill="#34A853"/>
<path fill-rule="evenodd" clip-rule="evenodd" d="M5.65857 14.1534C5.43191 13.4734 5.30312 12.7471 5.30312 12.0001C5.30312 11.2531 5.43191 10.5268 5.65857 9.84677V6.9104H1.8722C1.10463 8.4404 0.666748 10.1713 0.666748 12.0001C0.666748 13.8289 1.10463 15.5598 1.8722 17.0898L5.65857 14.1534Z" fill="#FBBC05"/>
<path fill-rule="evenodd" clip-rule="evenodd" d="M12 5.17433C13.6639 5.17433 15.1578 5.74615 16.3324 6.86918L19.583 3.61857C17.6203 1.78978 15.0548 0.666748 12 0.666748C7.56965 0.666748 3.73692 3.20645 1.87207 6.91039L5.65844 9.84676C6.54965 7.16797 9.04814 5.17433 12 5.17433Z" fill="#EA4335"/>
</svg>
