<svg width="20" height="20" viewBox="0 0 20 20" fill="none" xmlns="http://www.w3.org/2000/svg">
<path d="M10 3.44143C12.1361 3.44143 12.3891 3.4496 13.2327 3.48808C14.0127 3.52365 14.4363 3.65398 14.7182 3.76353C15.0916 3.90866 15.3581 4.08201 15.638 4.36194C15.918 4.6419 16.0913 4.9084 16.2365 5.28182C16.346 5.56372 16.4763 5.98731 16.5119 6.7673C16.5504 7.61086 16.5586 7.86389 16.5586 9.99996C16.5586 12.1361 16.5504 12.3891 16.5119 13.2326C16.4763 14.0126 16.346 14.4362 16.2365 14.7181C16.0913 15.0915 15.918 15.358 15.638 15.638C15.3581 15.9179 15.0916 16.0913 14.7182 16.2364C14.4363 16.346 14.0127 16.4763 13.2327 16.5119C12.3892 16.5503 12.1362 16.5585 10 16.5585C7.86375 16.5585 7.61079 16.5503 6.76731 16.5119C5.98732 16.4763 5.56373 16.346 5.28183 16.2364C4.90841 16.0913 4.64191 15.9179 4.36198 15.638C4.08205 15.358 3.90867 15.0915 3.76354 14.7181C3.65398 14.4362 3.52366 14.0126 3.48809 13.2326C3.4496 12.3891 3.44144 12.1361 3.44144 9.99996C3.44144 7.86389 3.4496 7.61086 3.48809 6.7673C3.52366 5.98731 3.65398 5.56372 3.76354 5.28182C3.90867 4.9084 4.08202 4.6419 4.36198 4.36197C4.64191 4.08201 4.90841 3.90866 5.28183 3.76353C5.56373 3.65398 5.98732 3.52365 6.76731 3.48808C7.61088 3.4496 7.86391 3.44143 10 3.44143ZM10 2C7.82733 2 7.5549 2.00921 6.70161 2.04814C5.8501 2.08698 5.26856 2.22223 4.7597 2.41997C4.23363 2.62442 3.78748 2.89796 3.34271 3.3427C2.89797 3.78748 2.62442 4.23362 2.42001 4.75969C2.22223 5.26854 2.08698 5.85009 2.04814 6.70159C2.00921 7.55488 2 7.82731 2 9.99996C2 12.1726 2.00921 12.4451 2.04814 13.2984C2.08698 14.1499 2.22223 14.7314 2.42001 15.2403C2.62442 15.7663 2.89797 16.2125 3.34271 16.6572C3.78748 17.102 4.23363 17.3755 4.7597 17.5799C5.26856 17.7777 5.8501 17.913 6.70161 17.9518C7.5549 17.9907 7.82733 17.9999 10 17.9999C12.1727 17.9999 12.4451 17.9907 13.2984 17.9518C14.1499 17.913 14.7314 17.7777 15.2403 17.5799C15.7664 17.3755 16.2125 17.102 16.6573 16.6572C17.102 16.2125 17.3756 15.7663 17.58 15.2403C17.7778 14.7314 17.913 14.1499 17.9519 13.2984C17.9908 12.4451 18 12.1726 18 9.99996C18 7.82731 17.9908 7.55488 17.9519 6.70159C17.913 5.85009 17.7778 5.26854 17.58 4.75969C17.3756 4.23362 17.102 3.78748 16.6573 3.3427C16.2125 2.89796 15.7664 2.62442 15.2403 2.41997C14.7314 2.22223 14.1499 2.08698 13.2984 2.04814C12.4451 2.00921 12.1727 2 10 2Z" fill="#141F27"/>
<path d="M10.0046 5.89258C7.73573 5.89258 5.89648 7.73182 5.89648 10.0007C5.89648 12.2695 7.73573 14.1088 10.0046 14.1088C12.2734 14.1088 14.1127 12.2695 14.1127 10.0007C14.1127 7.73182 12.2734 5.89258 10.0046 5.89258ZM10.0046 12.6673C8.53182 12.6673 7.33792 11.4734 7.33792 10.0007C7.33792 8.52791 8.53182 7.33401 10.0046 7.33401C11.4774 7.33401 12.6713 8.52791 12.6713 10.0007C12.6713 11.4734 11.4774 12.6673 10.0046 12.6673Z" fill="#141F27"/>
<path d="M15.2345 5.72955C15.2345 6.25971 14.8046 6.68953 14.2744 6.68953C13.7443 6.68953 13.3145 6.25971 13.3145 5.72955C13.3145 5.19935 13.7443 4.76953 14.2744 4.76953C14.8046 4.76953 15.2345 5.19935 15.2345 5.72955Z" fill="#141F27"/>
</svg>
