<svg width="205" height="303" viewBox="0 0 205 303" fill="none" xmlns="http://www.w3.org/2000/svg">
<path d="M47.1869 220.938L109.681 158.444L91.8415 140.592L47.1996 185.234L20.4219 158.444L2.54492 176.296L47.1869 220.938Z" fill="#A0CD69" fill-opacity="0.1"/>
<path d="M15.625 12.625V37.875H91.375V12.625H116.625V37.875H167.125C170.473 37.875 173.685 39.2051 176.052 41.5728C178.42 43.9404 179.75 47.1516 179.75 50.5V252.5C179.75 255.848 178.42 259.06 176.052 261.427C173.685 263.795 170.473 265.125 167.125 265.125H-60.125C-63.4734 265.125 -66.6846 263.795 -69.0522 261.427C-71.4199 259.06 -72.75 255.848 -72.75 252.5V50.5C-72.75 47.1516 -71.4199 43.9404 -69.0522 41.5728C-66.6846 39.2051 -63.4734 37.875 -60.125 37.875H-9.625V12.625H15.625ZM154.5 126.25H-47.5V239.875H154.5V126.25ZM-9.625 63.125H-47.5V101H154.5V63.125H116.625V75.75H91.375V63.125H15.625V75.75H-9.625V63.125Z" fill="#05ADE5" fill-opacity="0.1"/>
</svg>
