<svg width="205" height="303" viewBox="0 0 205 303" fill="none" xmlns="http://www.w3.org/2000/svg">
<path d="M-9.625 63.125V25.25C-9.625 21.9016 -8.29487 18.6904 -5.92722 16.3228C-3.55958 13.9551 -0.348358 12.625 3 12.625H104C107.348 12.625 110.56 13.9551 112.927 16.3228C115.295 18.6904 116.625 21.9016 116.625 25.25V63.125H167.125C170.473 63.125 173.685 64.4551 176.052 66.8228C178.42 69.1904 179.75 72.4016 179.75 75.75V252.5C179.75 255.848 178.42 259.06 176.052 261.427C173.685 263.795 170.473 265.125 167.125 265.125H-60.125C-63.4734 265.125 -66.6846 263.795 -69.0522 261.427C-71.4199 259.06 -72.75 255.848 -72.75 252.5V75.75C-72.75 72.4016 -71.4199 69.1904 -69.0522 66.8228C-66.6846 64.4551 -63.4734 63.125 -60.125 63.125H-9.625ZM-47.5 202V239.875H154.5V202H-47.5ZM-47.5 176.75H154.5V88.375H-47.5V176.75ZM15.625 37.875V63.125H91.375V37.875H15.625Z" fill="#05ADE5" fill-opacity="0.1"/>
<rect x="38" y="136" width="30" height="30" fill="#A0CD69" fill-opacity="0.1"/>
</svg>
