<svg width="205" height="303" viewBox="0 0 205 303" fill="none" xmlns="http://www.w3.org/2000/svg">
<path d="M-60.125 239.875V71.9625C-60.1258 69.3709 -59.329 66.8418 -57.8428 64.7187C-56.3566 62.5956 -54.2531 60.9813 -51.8177 60.095L70.2786 15.7055C71.2324 15.3584 72.2558 15.2463 73.262 15.3789C74.2683 15.5115 75.2277 15.8847 76.059 16.467C76.8903 17.0493 77.569 17.8235 78.0374 18.7238C78.5059 19.6242 78.7503 20.6243 78.75 21.6392V84.1709L158.49 110.746C161.004 111.584 163.192 113.192 164.742 115.343C166.292 117.493 167.126 120.077 167.125 122.728V239.875H192.375V265.125H-85.375V239.875H-60.125ZM-34.875 239.875H53.5V48.6694L-34.875 80.8126V239.875ZM141.875 239.875V131.83L78.75 110.784V239.875H141.875Z" fill="#A0CD69" fill-opacity="0.1"/>
<rect x="-86" y="239.8" width="278.5" height="25.5" fill="#E4F5FB"/>
</svg>
