<svg width="256" height="194" viewBox="0 0 256 194" fill="none" xmlns="http://www.w3.org/2000/svg">
<path d="M205.636 57.543H205.58L173.216 71.2584L128.935 90.0242C128.762 90.0964 128.576 90.1341 128.389 90.135C128.201 90.136 128.015 90.1002 127.841 90.0297L82.1566 71.2192L48.9975 57.5653L48.9468 57.543H48.8904C48.3672 57.5435 47.8656 57.7501 47.4956 58.1172C47.1257 58.4844 46.9176 58.9823 46.917 59.5015V144.559C46.9176 145.078 47.1257 145.576 47.4956 145.943C47.8656 146.31 48.3672 146.517 48.8904 146.517H205.636C206.159 146.517 206.661 146.31 207.031 145.943C207.401 145.576 207.609 145.078 207.61 144.559V59.5015C207.609 58.9823 207.401 58.4844 207.031 58.1172C206.661 57.7501 206.159 57.5435 205.636 57.543Z" fill="white"/>
<path d="M205.776 58.1039C205.719 58.1039 205.662 58.0864 205.615 58.0538L127.649 4.16464C127.411 4.0014 127.129 3.91417 126.841 3.91466C126.552 3.91515 126.27 4.00333 126.034 4.16737L48.6286 58.0532C48.5673 58.0955 48.4917 58.112 48.4182 58.0991C48.3448 58.0861 48.2795 58.0448 48.2367 57.9842C48.1938 57.9236 48.1769 57.8486 48.1897 57.7756C48.2025 57.7027 48.2438 57.6377 48.3047 57.595L125.71 3.70917C126.041 3.47956 126.436 3.35613 126.84 3.35547C127.244 3.35481 127.639 3.47695 127.971 3.70548L205.937 57.5945C205.987 57.6285 206.024 57.6773 206.043 57.7337C206.062 57.7901 206.063 57.8511 206.045 57.908C206.027 57.9648 205.991 58.0144 205.943 58.0497C205.895 58.0849 205.836 58.1039 205.776 58.1039H205.776Z" fill="#2A3842"/>
<path d="M53.0527 60.0108L126.918 5.67969L201.344 63.8765L130.724 105.426L92.3834 96.7524L53.0527 60.0108Z" fill="#E6E6E6"/>
<path d="M95.6197 131.091H59.1283C58.6761 131.092 58.2422 130.914 57.922 130.597C57.6018 130.28 57.4216 129.85 57.4209 129.402C57.4202 128.953 57.5992 128.522 57.9185 128.204C58.2377 127.887 58.6711 127.708 59.1232 127.707H95.6197C96.0718 127.706 96.5058 127.884 96.826 128.201C97.1461 128.518 97.3264 128.948 97.3271 129.397C97.3277 129.845 97.1488 130.276 96.8295 130.594C96.5103 130.912 96.0769 131.09 95.6247 131.091H95.6197Z" fill="#05ADE4"/>
<path d="M72.2204 123.818H59.1281C58.6761 123.818 58.2425 123.64 57.9226 123.323C57.6026 123.007 57.4225 122.577 57.4219 122.128C57.4212 121.68 57.6 121.249 57.919 120.931C58.238 120.614 58.6711 120.435 59.123 120.434H72.2204C72.4444 120.433 72.6662 120.476 72.8734 120.561C73.0805 120.646 73.2687 120.77 73.4274 120.927C73.586 121.084 73.712 121.27 73.7981 121.476C73.8841 121.681 73.9286 121.901 73.9289 122.123C73.9293 122.345 73.8855 122.566 73.8 122.771C73.7146 122.977 73.5891 123.163 73.4309 123.321C73.2727 123.478 73.0849 123.603 72.878 123.688C72.6712 123.773 72.4494 123.817 72.2254 123.818H72.2204Z" fill="#05ADE4"/>
<path d="M127.956 90.2766C127.678 90.2769 127.404 90.2234 127.147 90.1193L81.5918 71.3595V12.6382C81.5924 12.119 81.8005 11.6212 82.1705 11.254C82.5404 10.8868 83.042 10.6803 83.5652 10.6797H170.959C171.483 10.6803 171.984 10.8868 172.354 11.254C172.724 11.6212 172.932 12.119 172.933 12.6382V71.4005L172.847 71.4368L128.789 90.1101C128.525 90.2202 128.242 90.2768 127.956 90.2766Z" fill="white"/>
<path d="M127.956 90.4156C127.66 90.4159 127.367 90.3591 127.094 90.2481L81.4512 71.4523V12.6375C81.4518 12.0812 81.6748 11.5478 82.0712 11.1544C82.4675 10.761 83.005 10.5397 83.5656 10.5391H170.96C171.52 10.5397 172.058 10.761 172.454 11.1544C172.851 11.5478 173.074 12.0812 173.074 12.6375V71.4922L128.845 90.238C128.564 90.3555 128.261 90.4159 127.956 90.4156ZM82.015 71.0785L127.309 89.7308C127.731 89.9009 128.204 89.8981 128.625 89.723L172.51 71.1227V12.6375C172.51 12.2295 172.346 11.8384 172.056 11.5499C171.765 11.2614 171.371 11.0992 170.96 11.0987H83.5656C83.1545 11.0992 82.7604 11.2614 82.4697 11.5499C82.179 11.8384 82.0155 12.2295 82.015 12.6375L82.015 71.0785Z" fill="#2A3842"/>
<path d="M205.213 57.543H205.157L172.793 71.2584L128.512 90.0242C128.339 90.0964 128.154 90.1341 127.966 90.135C127.778 90.136 127.592 90.1002 127.418 90.0297L81.7338 71.2192L48.5747 57.5653L48.524 57.543H48.4675C47.9443 57.5435 47.4428 57.7501 47.0728 58.1172C46.7028 58.4844 46.4947 58.9823 46.4941 59.5015V144.559C46.4947 145.078 46.7028 145.576 47.0728 145.943C47.4428 146.31 47.9443 146.517 48.4675 146.517H205.213C205.737 146.517 206.238 146.31 206.608 145.943C206.978 145.576 207.186 145.078 207.187 144.559V59.5015C207.186 58.9823 206.978 58.4844 206.608 58.1172C206.238 57.7501 205.737 57.5435 205.213 57.543ZM206.623 144.559C206.623 144.93 206.474 145.285 206.21 145.548C205.946 145.81 205.587 145.957 205.213 145.958H48.4675C48.0937 145.957 47.7353 145.81 47.471 145.548C47.2067 145.285 47.0581 144.93 47.058 144.559V59.5015C47.0585 59.1397 47.1999 58.7922 47.4526 58.5315C47.7053 58.2707 48.0498 58.1171 48.414 58.1026L81.7338 71.8236L127.201 90.5474C127.694 90.7461 128.245 90.7431 128.735 90.539L172.793 71.8656L205.27 58.1026C205.633 58.1181 205.977 58.2722 206.229 58.5328C206.481 58.7934 206.622 59.1403 206.623 59.5015V144.559Z" fill="#2A3842"/>
<path d="M120.865 32.629H89.8537C89.2561 32.6282 88.6833 32.392 88.261 31.9723C87.8388 31.5526 87.6016 30.9838 87.6016 30.3907C87.6016 29.7976 87.8388 29.2287 88.261 28.8091C88.6833 28.3894 89.2561 28.1532 89.8537 28.1523H120.865C121.462 28.1532 122.035 28.3894 122.457 28.8091C122.88 29.2287 123.117 29.7976 123.117 30.3907C123.117 30.9838 122.88 31.5526 122.457 31.9723C122.035 32.392 121.462 32.6282 120.865 32.629Z" fill="#05ADE4"/>
<path d="M104.796 23.1134H89.854C89.2558 23.1134 88.6822 22.8776 88.2592 22.4578C87.8362 22.038 87.5986 21.4687 87.5986 20.8751C87.5986 20.2814 87.8362 19.7121 88.2592 19.2923C88.6822 18.8725 89.2558 18.6367 89.854 18.6367H104.796C105.394 18.6367 105.967 18.8725 106.39 19.2923C106.813 19.7121 107.051 20.2814 107.051 20.8751C107.051 21.4687 106.813 22.038 106.39 22.4578C105.967 22.8776 105.394 23.1134 104.796 23.1134Z" fill="#05ADE4"/>
<path d="M150.458 55.0118H103.096C102.498 55.011 101.925 54.7748 101.503 54.3551C101.081 53.9354 100.844 53.3666 100.844 52.7735C100.844 52.1804 101.081 51.6116 101.503 51.1919C101.925 50.7722 102.498 50.536 103.096 50.5352H150.458C151.056 50.536 151.628 50.7722 152.051 51.1919C152.473 51.6116 152.71 52.1804 152.71 52.7735C152.71 53.3666 152.473 53.9354 152.051 54.3551C151.628 54.7748 151.056 55.011 150.458 55.0118Z" fill="#DDE2E4"/>
<path d="M150.457 65.3634H103.095C102.497 65.3634 101.923 65.1276 101.5 64.7078C101.077 64.288 100.84 63.7187 100.84 63.1251C100.84 62.5314 101.077 61.9621 101.5 61.5423C101.923 61.1225 102.497 60.8867 103.095 60.8867H150.457C151.055 60.8867 151.629 61.1225 152.052 61.5423C152.475 61.9621 152.713 62.5314 152.713 63.1251C152.713 63.7187 152.475 64.288 152.052 64.7078C151.629 65.1276 151.055 65.3634 150.457 65.3634Z" fill="#DDE2E4"/>
<path d="M204.339 79.6378C216.183 79.6378 225.784 70.1087 225.784 58.3541C225.784 46.5994 216.183 37.0703 204.339 37.0703C192.495 37.0703 182.894 46.5994 182.894 58.3541C182.894 70.1087 192.495 79.6378 204.339 79.6378Z" fill="#A0CD69"/>
<path d="M202.295 67.3374L195.877 59.1463L199.61 56.265L202.649 60.1433L212.915 49.3867L216.349 52.6149L202.295 67.3374Z" fill="white"/>
<path d="M4.9145 21.2422C4.76812 21.1563 4.60031 21.1131 4.43032 21.1175C4.26033 21.1219 4.09503 21.1738 3.95337 21.2671C3.81171 21.3605 3.69943 21.4916 3.6294 21.6454C3.55936 21.7992 3.53441 21.9694 3.55739 22.1367L4.25629 27.2242C4.2659 27.2992 4.26074 27.3753 4.24109 27.4484C4.21917 27.5203 4.1826 27.587 4.13365 27.6443L0.219221 32.2467C0.0884522 32.3949 0.0116715 32.5824 0.00122654 32.779C-0.00921845 32.9757 0.0472848 33.1702 0.161638 33.3311L0.165741 33.337C0.275287 33.4997 0.436529 33.6214 0.623794 33.6826C0.81106 33.7438 1.01358 33.7411 1.19911 33.6749L4.02603 32.7226C4.11974 32.6919 4.22011 32.687 4.31641 32.7085C4.41271 32.73 4.50131 32.7771 4.57272 32.8447C4.62599 32.8937 4.66847 32.953 4.69749 33.0191C4.7265 33.0852 4.74142 33.1565 4.74131 33.2285L4.85181 43.2249C4.85295 43.3696 4.8896 43.5118 4.95854 43.6394C5.02749 43.7669 5.12668 43.8758 5.24755 43.9568C5.36798 44.0375 5.50618 44.0884 5.65055 44.1051C5.79492 44.1218 5.94121 44.1038 6.07712 44.0526L27.1764 36.0442C27.3355 35.9841 27.4743 35.8807 27.5768 35.7458C27.6793 35.6109 27.7414 35.4501 27.7559 35.2817C27.7704 35.1134 27.7367 34.9444 27.6588 34.7943C27.5808 34.6441 27.4617 34.5188 27.3152 34.4328L27.0279 34.2635L4.9145 21.2422V21.2422ZM3.91459 22.0878C3.90102 21.9874 3.91621 21.8852 3.95843 21.793C4.00064 21.7007 4.06819 21.6221 4.15331 21.5662C4.23843 21.5103 4.3377 21.4793 4.43974 21.4768C4.54179 21.4742 4.6425 21.5003 4.73033 21.5519L26.8367 34.5693L27.131 34.7425C27.2184 34.7943 27.2894 34.8695 27.3359 34.9595C27.3823 35.0495 27.4024 35.1506 27.3937 35.2513C27.3851 35.352 27.3482 35.4483 27.2871 35.5292C27.226 35.6102 27.1433 35.6724 27.0483 35.7089L5.949 43.7174C5.8674 43.7482 5.77951 43.759 5.6928 43.7489C5.60608 43.7388 5.52312 43.708 5.45094 43.6592C5.37877 43.6105 5.31951 43.5451 5.27822 43.4688C5.23693 43.3924 5.21483 43.3073 5.21379 43.2207L5.10332 33.2244C5.10338 33.1255 5.08627 33.0273 5.05271 32.9342L26.5338 35.3837C26.6175 35.3941 26.7023 35.3751 26.7735 35.33C26.8446 35.2849 26.8977 35.2166 26.9234 35.1368C26.9492 35.057 26.946 34.9708 26.9145 34.8931C26.883 34.8154 26.8251 34.751 26.7509 34.7111C26.7328 34.7012 26.7139 34.693 26.6943 34.6867L4.61995 27.3738C4.62531 27.3076 4.62314 27.241 4.61349 27.1753L3.91458 22.0878L3.91459 22.0878Z" fill="#F1F1F1"/>
<path d="M4.9145 21.2422C4.76812 21.1563 4.60031 21.1131 4.43032 21.1175C4.26033 21.1219 4.09503 21.1738 3.95337 21.2671C3.81171 21.3605 3.69943 21.4916 3.6294 21.6454C3.55936 21.7992 3.53441 21.9694 3.55739 22.1367L4.25629 27.2242C4.2659 27.2992 4.26074 27.3753 4.24109 27.4484C4.21917 27.5203 4.1826 27.587 4.13365 27.6443L0.219221 32.2467C0.0884522 32.3949 0.0116715 32.5824 0.00122654 32.779C-0.00921845 32.9757 0.0472848 33.1702 0.161638 33.3311L0.165741 33.337C0.275287 33.4997 0.436529 33.6214 0.623794 33.6826C0.81106 33.7438 1.01358 33.7411 1.19911 33.6749L4.02603 32.7226C4.11974 32.6919 4.22011 32.687 4.31641 32.7085C4.41271 32.73 4.50131 32.7771 4.57272 32.8447C4.62599 32.8937 4.66847 32.953 4.69749 33.0191C4.7265 33.0852 4.74142 33.1565 4.74131 33.2285L4.85181 43.2249C4.85295 43.3696 4.8896 43.5118 4.95854 43.6394C5.02749 43.7669 5.12668 43.8758 5.24755 43.9568C5.36798 44.0375 5.50618 44.0884 5.65055 44.1051C5.79492 44.1218 5.94121 44.1038 6.07712 44.0526L27.1764 36.0442C27.3355 35.9841 27.4743 35.8807 27.5768 35.7458C27.6793 35.6109 27.7414 35.4501 27.7559 35.2817C27.7704 35.1134 27.7367 34.9444 27.6588 34.7943C27.5808 34.6441 27.4617 34.5188 27.3152 34.4328L27.0279 34.2635L4.9145 21.2422V21.2422ZM3.91459 22.0878C3.90102 21.9874 3.91621 21.8852 3.95843 21.793C4.00064 21.7007 4.06819 21.6221 4.15331 21.5662C4.23843 21.5103 4.3377 21.4793 4.43974 21.4768C4.54179 21.4742 4.6425 21.5003 4.73033 21.5519L26.8367 34.5693L27.131 34.7425C27.2184 34.7943 27.2894 34.8695 27.3359 34.9595C27.3823 35.0495 27.4024 35.1506 27.3937 35.2513C27.3851 35.352 27.3482 35.4483 27.2871 35.5292C27.226 35.6102 27.1433 35.6724 27.0483 35.7089L5.949 43.7174C5.8674 43.7482 5.77951 43.759 5.6928 43.7489C5.60608 43.7387 5.52312 43.708 5.45094 43.6592C5.37877 43.6105 5.31952 43.5451 5.27823 43.4688C5.23695 43.3924 5.21483 43.3073 5.21379 43.2207L5.1033 33.2244C5.10337 33.1255 5.08625 33.0273 5.0527 32.9342C5.00542 32.8 4.92587 32.6794 4.82096 32.5827C4.80668 32.5685 4.79092 32.5554 4.77513 32.5421L4.77412 32.5407C4.6556 32.4436 4.51404 32.3781 4.36287 32.3506C4.21171 32.323 4.05594 32.3342 3.91038 32.3832L1.082 33.3365C0.970517 33.3766 0.848626 33.3782 0.736114 33.341C0.623602 33.3038 0.527055 33.23 0.462125 33.1315L0.460067 33.1285C0.390663 33.0323 0.356307 32.9155 0.362654 32.7974C0.369 32.6792 0.415676 32.5667 0.494992 32.4784L4.40947 27.8761C4.45132 27.8279 4.48757 27.7752 4.51755 27.7189L4.51905 27.7179C4.54797 27.664 4.57106 27.6073 4.58789 27.5486C4.60482 27.4916 4.61557 27.433 4.61997 27.3738C4.62532 27.3076 4.62315 27.241 4.6135 27.1753L3.91459 22.0878V22.0878Z" fill="#E5E5E5"/>
<path d="M4.61962 27.3717L26.6939 34.6847C26.7135 34.691 26.7325 34.6991 26.7505 34.7091C26.8248 34.7489 26.8826 34.8133 26.9141 34.891C26.9456 34.9688 26.9488 35.055 26.923 35.1348C26.8973 35.2145 26.8443 35.2829 26.7731 35.328C26.702 35.3731 26.6172 35.392 26.5334 35.3817L5.05235 32.9321L4.673 32.8892L4.715 32.5332L4.77377 32.5386L4.77476 32.5401L26.5744 35.0241L4.51869 27.7158L4.5172 27.7168L4.42188 27.6842L4.53636 27.3438L4.61962 27.3717Z" fill="#E5E5E5"/>
<path d="M251.086 0.124992L228.972 13.1463L228.685 13.3156C228.539 13.4016 228.42 13.5269 228.342 13.6771C228.264 13.8273 228.23 13.9962 228.244 14.1646C228.259 14.3329 228.321 14.4937 228.424 14.6286C228.526 14.7635 228.665 14.8669 228.824 14.927L249.923 22.9355C250.059 22.9866 250.206 23.0046 250.35 22.9879C250.494 22.9712 250.632 22.9203 250.753 22.8396C250.874 22.7586 250.973 22.6497 251.042 22.5222C251.111 22.3947 251.147 22.2524 251.149 22.1077L251.259 12.1114C251.259 12.0393 251.274 11.968 251.303 11.9019C251.332 11.8359 251.374 11.7765 251.428 11.7275C251.499 11.6599 251.588 11.6128 251.684 11.5913C251.78 11.5698 251.881 11.5747 251.974 11.6054L254.801 12.5577C254.987 12.6239 255.189 12.6266 255.377 12.5654C255.564 12.5042 255.725 12.3825 255.835 12.2198L255.839 12.2139C255.953 12.053 256.01 11.8585 255.999 11.6619C255.989 11.4652 255.912 11.2777 255.781 11.1296L251.867 6.52715C251.818 6.46983 251.781 6.40314 251.759 6.33122C251.74 6.25816 251.735 6.18201 251.744 6.10699L252.443 1.01947C252.466 0.852251 252.441 0.681992 252.371 0.528204C252.301 0.374416 252.189 0.243328 252.047 0.149961C251.905 0.056594 251.74 0.00472465 251.57 0.000307704C251.4 -0.00410924 251.232 0.039103 251.086 0.124986V0.124992ZM252.086 0.97061L251.387 6.05811C251.377 6.12383 251.375 6.19041 251.38 6.2566L229.306 13.5695C229.287 13.5758 229.268 13.584 229.25 13.594C229.175 13.6338 229.117 13.6982 229.086 13.7759C229.054 13.8536 229.051 13.9398 229.077 14.0196C229.103 14.0994 229.156 14.1677 229.227 14.2128C229.298 14.2579 229.383 14.2769 229.467 14.2665L250.948 11.817C250.914 11.9101 250.897 12.0083 250.897 12.1072L250.787 22.1035C250.786 22.1901 250.764 22.2752 250.722 22.3516C250.681 22.428 250.622 22.4933 250.549 22.542C250.477 22.5908 250.394 22.6216 250.308 22.6317C250.221 22.6418 250.133 22.631 250.051 22.6002L228.952 14.5917C228.857 14.5552 228.774 14.493 228.713 14.4121C228.652 14.3312 228.615 14.2348 228.607 14.1341C228.598 14.0334 228.618 13.9323 228.665 13.8423C228.711 13.7524 228.782 13.6772 228.869 13.6253L229.164 13.4521L251.27 0.434713C251.358 0.383083 251.459 0.357044 251.561 0.359574C251.663 0.362104 251.762 0.393103 251.847 0.449021C251.932 0.504938 252 0.583513 252.042 0.675753C252.084 0.767992 252.099 0.870171 252.086 0.970582V0.97061Z" fill="#F1F1F1"/>
<path d="M251.086 0.124992L228.972 13.1463L228.685 13.3156C228.539 13.4016 228.42 13.5269 228.342 13.6771C228.264 13.8273 228.23 13.9962 228.244 14.1646C228.259 14.3329 228.321 14.4937 228.424 14.6286C228.526 14.7635 228.665 14.8669 228.824 14.927L249.923 22.9355C250.059 22.9866 250.206 23.0046 250.35 22.9879C250.494 22.9712 250.632 22.9203 250.753 22.8396C250.874 22.7586 250.973 22.6497 251.042 22.5222C251.111 22.3947 251.147 22.2524 251.149 22.1077L251.259 12.1114C251.259 12.0393 251.274 11.968 251.303 11.9019C251.332 11.8359 251.374 11.7765 251.428 11.7275C251.499 11.6599 251.588 11.6128 251.684 11.5913C251.78 11.5698 251.881 11.5747 251.974 11.6054L254.801 12.5577C254.987 12.6239 255.189 12.6266 255.377 12.5654C255.564 12.5042 255.725 12.3825 255.835 12.2198L255.839 12.2139C255.953 12.053 256.01 11.8585 255.999 11.6619C255.989 11.4652 255.912 11.2777 255.781 11.1296L251.867 6.52715C251.818 6.46983 251.781 6.40314 251.759 6.33122C251.74 6.25816 251.735 6.18201 251.744 6.10699L252.443 1.01947C252.466 0.852251 252.441 0.681992 252.371 0.528204C252.301 0.374416 252.189 0.243328 252.047 0.149961C251.905 0.056594 251.74 0.00472465 251.57 0.000307704C251.4 -0.00410924 251.232 0.039103 251.086 0.124986V0.124992ZM252.086 0.97061L251.387 6.05813C251.377 6.12384 251.375 6.19042 251.38 6.25661C251.385 6.31583 251.396 6.37443 251.413 6.43139C251.429 6.49009 251.452 6.54684 251.481 6.6007L251.483 6.60172C251.513 6.65796 251.549 6.71067 251.591 6.75888L255.505 11.3612C255.585 11.4496 255.631 11.562 255.638 11.6802C255.644 11.7983 255.61 11.9151 255.54 12.0113L255.538 12.0143C255.473 12.1128 255.377 12.1866 255.264 12.2238C255.152 12.261 255.03 12.2594 254.918 12.2193L252.09 11.266C251.945 11.217 251.789 11.2058 251.638 11.2334C251.486 11.2609 251.345 11.3264 251.226 11.4235L251.225 11.425C251.209 11.4382 251.194 11.4513 251.179 11.4655C251.075 11.5622 250.995 11.6828 250.948 11.817C250.914 11.9101 250.897 12.0083 250.897 12.1072L250.787 22.1035C250.786 22.1901 250.763 22.2752 250.722 22.3516C250.681 22.4279 250.622 22.4933 250.549 22.542C250.477 22.5908 250.394 22.6215 250.308 22.6317C250.221 22.6418 250.133 22.631 250.051 22.6002L228.952 14.5917C228.857 14.5552 228.774 14.493 228.713 14.4121C228.652 14.3312 228.615 14.2349 228.607 14.1341C228.598 14.0334 228.618 13.9323 228.665 13.8423C228.711 13.7524 228.782 13.6772 228.869 13.6253L229.164 13.4521L251.27 0.43472C251.358 0.38309 251.459 0.357051 251.561 0.359581C251.663 0.362111 251.762 0.39311 251.847 0.449027C251.932 0.504945 252 0.583519 252.042 0.675759C252.084 0.767999 252.099 0.870178 252.086 0.970589V0.97061Z" fill="#E5E5E5"/>
<path d="M251.463 6.23047L251.577 6.57089L251.482 6.60356L251.48 6.60254L229.425 13.9109L251.224 11.4268L251.225 11.4254L251.284 11.4199L251.326 11.7759L250.947 11.8188L229.465 14.2684C229.382 14.2788 229.297 14.2598 229.226 14.2147C229.155 14.1696 229.102 14.1013 229.076 14.0215C229.05 13.9417 229.053 13.8555 229.085 13.7778C229.116 13.7 229.174 13.6357 229.248 13.5958C229.266 13.5859 229.285 13.5777 229.305 13.5714L251.379 6.25847L251.463 6.23047Z" fill="#E5E5E5"/>
<path d="M61.8598 182.067C61.7084 182.143 61.582 182.261 61.4949 182.406C61.4078 182.551 61.3636 182.717 61.3674 182.886C61.3712 183.055 61.4229 183.219 61.5164 183.36C61.6099 183.501 61.7416 183.613 61.8963 183.683L66.6025 185.816C66.6715 185.848 66.7336 185.893 66.7854 185.948C66.8349 186.005 66.8721 186.071 66.8948 186.143L68.7224 191.886C68.7787 192.075 68.8973 192.24 69.0592 192.354C69.2211 192.467 69.4169 192.524 69.6151 192.514L69.6224 192.514C69.8195 192.509 70.0093 192.439 70.1615 192.314C70.3137 192.19 70.4196 192.019 70.4624 191.828L71.1622 188.947C71.186 188.852 71.2355 188.765 71.3053 188.696C71.3751 188.627 71.4625 188.578 71.5583 188.554C71.6285 188.535 71.7017 188.531 71.7735 188.542C71.8452 188.553 71.9139 188.579 71.9753 188.618L80.5475 193.867C80.6714 193.944 80.8121 193.989 80.9576 193.999C81.103 194.009 81.2488 193.984 81.3823 193.926C81.5154 193.869 81.6326 193.78 81.724 193.668C81.8154 193.555 81.8782 193.423 81.9073 193.282L86.363 171.303C86.3969 171.137 86.383 170.965 86.3229 170.807C86.2628 170.649 86.159 170.511 86.0234 170.409C85.8878 170.307 85.7259 170.245 85.5563 170.23C85.3868 170.215 85.2164 170.248 85.0649 170.325L84.7671 170.476L61.8598 182.067ZM62.0456 183.357C61.9528 183.315 61.8739 183.248 61.8179 183.163C61.7619 183.078 61.7311 182.98 61.729 182.878C61.7268 182.777 61.7535 182.677 61.8059 182.59C61.8582 182.503 61.9343 182.433 62.0252 182.387L84.9254 170.799L85.2301 170.645C85.321 170.6 85.423 170.58 85.5244 170.589C85.6259 170.598 85.7227 170.636 85.8039 170.697C85.8851 170.758 85.9473 170.84 85.9836 170.935C86.0198 171.029 86.0286 171.132 86.009 171.231L81.5533 193.21C81.5359 193.295 81.4981 193.374 81.4432 193.442C81.3882 193.509 81.3177 193.562 81.2376 193.597C81.1575 193.631 81.0702 193.646 80.9831 193.64C80.896 193.634 80.8117 193.607 80.7373 193.561L72.1652 188.312C72.081 188.259 71.9882 188.221 71.891 188.199L85.457 171.489C85.5106 171.424 85.5398 171.343 85.5394 171.259C85.539 171.175 85.5092 171.094 85.455 171.03C85.4008 170.966 85.3257 170.922 85.2427 170.907C85.1596 170.892 85.0739 170.906 85.0003 170.947C84.9821 170.957 84.9651 170.969 84.9492 170.982L66.9243 185.59C66.8707 185.551 66.8129 185.517 66.7518 185.49L62.0456 183.357Z" fill="#F1F1F1"/>
<path d="M61.8598 182.067C61.7084 182.143 61.582 182.261 61.4949 182.406C61.4078 182.551 61.3636 182.717 61.3674 182.886C61.3712 183.055 61.4229 183.219 61.5164 183.36C61.6099 183.501 61.7416 183.613 61.8963 183.683L66.6025 185.816C66.6715 185.848 66.7336 185.893 66.7854 185.948C66.8349 186.005 66.8721 186.071 66.8948 186.143L68.7224 191.886C68.7787 192.075 68.8973 192.24 69.0592 192.354C69.2211 192.467 69.4169 192.524 69.6151 192.514L69.6224 192.514C69.8195 192.509 70.0093 192.439 70.1615 192.314C70.3137 192.19 70.4196 192.019 70.4624 191.828L71.1622 188.947C71.186 188.852 71.2355 188.765 71.3053 188.696C71.3751 188.627 71.4625 188.578 71.5583 188.554C71.6285 188.535 71.7017 188.531 71.7735 188.542C71.8452 188.553 71.9139 188.579 71.9753 188.618L80.5475 193.867C80.6714 193.944 80.8121 193.989 80.9576 193.999C81.103 194.009 81.2488 193.984 81.3823 193.926C81.5154 193.869 81.6326 193.78 81.724 193.668C81.8154 193.555 81.8782 193.423 81.9073 193.282L86.363 171.303C86.3969 171.137 86.383 170.965 86.3229 170.807C86.2628 170.649 86.159 170.511 86.0234 170.409C85.8878 170.307 85.7259 170.245 85.5563 170.23C85.3868 170.215 85.2164 170.248 85.0649 170.325L84.7671 170.476L61.8598 182.067ZM62.0456 183.357C61.9528 183.315 61.8739 183.248 61.8179 183.163C61.7619 183.078 61.7311 182.98 61.729 182.878C61.7268 182.777 61.7535 182.677 61.8059 182.59C61.8582 182.503 61.9343 182.433 62.0252 182.387L84.9254 170.799L85.2301 170.645C85.321 170.6 85.423 170.58 85.5244 170.589C85.6259 170.598 85.7227 170.636 85.8039 170.697C85.8851 170.758 85.9473 170.84 85.9836 170.935C86.0198 171.029 86.0286 171.132 86.009 171.231L81.5533 193.21C81.5359 193.295 81.4981 193.374 81.4432 193.442C81.3882 193.509 81.3177 193.562 81.2376 193.597C81.1575 193.631 81.0702 193.646 80.9831 193.64C80.896 193.634 80.8117 193.607 80.7373 193.561L72.1652 188.312C72.081 188.259 71.9882 188.221 71.8909 188.199C71.7514 188.167 71.6062 188.169 71.4678 188.206C71.4481 188.21 71.4284 188.216 71.4087 188.222L71.407 188.222C71.2609 188.27 71.1295 188.354 71.0253 188.466C70.921 188.578 70.8473 188.715 70.8112 188.863L70.1115 191.745C70.0861 191.86 70.0224 191.963 69.9305 192.037C69.8387 192.112 69.7242 192.153 69.6056 192.155L69.602 192.155C69.483 192.162 69.3652 192.129 69.268 192.06C69.1707 191.992 69.0999 191.892 69.0671 191.779L67.2395 186.035C67.2208 185.975 67.1953 185.916 67.1635 185.861L67.1634 185.859C67.133 185.806 67.097 185.756 67.056 185.711C67.0165 185.666 66.9724 185.626 66.9243 185.59C66.8708 185.551 66.8129 185.517 66.7518 185.49L62.0456 183.357Z" fill="#E5E5E5"/>
<path d="M66.9247 185.588L84.9497 170.979C84.9655 170.966 84.9826 170.954 85.0007 170.944C85.0744 170.903 85.1601 170.889 85.2432 170.904C85.3262 170.919 85.4013 170.963 85.4555 171.027C85.5097 171.091 85.5395 171.172 85.5399 171.256C85.5403 171.34 85.5111 171.421 85.4575 171.486L71.8914 188.196L71.6522 188.491L71.3714 188.266L71.4075 188.22L71.4092 188.22L85.175 171.26L67.1639 185.856L67.164 185.858L67.0852 185.92L66.8564 185.642L66.9247 185.588Z" fill="#E5E5E5"/>
</svg>
