<svg width="24" height="24" viewBox="0 0 24 24" fill="none" xmlns="http://www.w3.org/2000/svg">
<path d="M0.666992 2.27685C0.666992 1.38829 1.38732 0.667969 2.27588 0.667969H21.7248C22.6133 0.667969 23.3337 1.38829 23.3337 2.27685V21.7257C23.3337 22.6142 22.6133 23.3346 21.7248 23.3346H2.27588C1.38732 23.3346 0.666992 22.6142 0.666992 21.7257V2.27685Z" fill="#0A66C2"/>
<path d="M5.75441 7.70585C6.84039 7.70585 7.72074 6.82549 7.72074 5.73952C7.72074 4.65355 6.84039 3.77319 5.75441 3.77319C4.66844 3.77319 3.78809 4.65355 3.78809 5.73952C3.78809 6.82549 4.66844 7.70585 5.75441 7.70585Z" fill="white"/>
<path d="M9.52156 9.15902H12.7804V10.6519C12.7804 10.6519 13.6647 8.88325 16.0709 8.88325C18.2173 8.88325 19.9953 9.94061 19.9953 13.1635V19.9597H16.6182V13.987C16.6182 12.0858 15.6032 11.8767 14.8297 11.8767C13.2246 11.8767 12.9498 13.2613 12.9498 14.235V19.9597H9.52156V9.15902Z" fill="white"/>
<path d="M4.04032 9.15904H7.46852V19.9597H4.04032V9.15904Z" fill="white"/>
</svg>
