<svg width="20" height="20" viewBox="0 0 20 20" fill="none" xmlns="http://www.w3.org/2000/svg">
<path d="M11.2869 8.71403C10.6043 8.03173 9.67871 7.64844 8.71358 7.64844C7.74846 7.64844 6.82284 8.03173 6.14025 8.71403L3.56608 11.2874C2.88348 11.97 2.5 12.8958 2.5 13.8611C2.5 14.8265 2.88348 15.7523 3.56608 16.4349C4.24868 17.1175 5.17449 17.5009 6.13983 17.5009C7.10518 17.5009 8.03098 17.1175 8.71358 16.4349L10.0002 15.1482" stroke="#141F27" stroke-width="1.33333" stroke-linecap="round" stroke-linejoin="round"/>
<path d="M8.71289 11.2869C9.39548 11.9692 10.3211 12.3525 11.2862 12.3525C12.2513 12.3525 13.177 11.9692 13.8596 11.2869L16.4337 8.71358C17.1163 8.03098 17.4998 7.10518 17.4998 6.13983C17.4998 5.17449 17.1163 4.24868 16.4337 3.56608C15.7511 2.88348 14.8253 2.5 13.86 2.5C12.8946 2.5 11.9688 2.88348 11.2862 3.56608L9.99956 4.85275" stroke="#141F27" stroke-width="1.33333" stroke-linecap="round" stroke-linejoin="round"/>
</svg>
