<svg width="32" height="36" viewBox="0 0 32 36" fill="none" xmlns="http://www.w3.org/2000/svg">
<g filter="url(#filter0_dd_306_59748)">
<path d="M16 25.7279L9.636 19.3639C8.37734 18.1052 7.52019 16.5016 7.17293 14.7558C6.82567 13.0099 7.00391 11.2004 7.6851 9.55582C8.36629 7.91129 9.51984 6.50569 10.9999 5.51677C12.4799 4.52784 14.22 4 16 4C17.78 4 19.5201 4.52784 21.0001 5.51677C22.4802 6.50569 23.6337 7.91129 24.3149 9.55582C24.9961 11.2004 25.1743 13.0099 24.8271 14.7558C24.4798 16.5016 23.6227 18.1052 22.364 19.3639L16 25.7279ZM20.95 17.9499C21.9289 16.9709 22.5955 15.7236 22.8656 14.3658C23.1356 13.0079 21.5298 12.279 21 11C20.4702 9.72096 21.04 7.94923 19.8889 7.18009C18.7378 6.41095 17.3844 6.00043 16 6.00043C14.6156 6.00043 13.2622 6.41095 12.1111 7.18009C10.96 7.94923 10.0628 9.04244 9.53292 10.3215C9.00308 11.6005 8.86442 13.0079 9.13445 14.3658C9.40449 15.7236 10.0711 16.9709 11.05 17.9499L16 22.8999L20.95 17.9499ZM16 23C15.4696 23 10.0111 17.8751 9.636 17.5C9.26093 17.1249 8.5 13.5304 8.5 13C8.5 12.4696 10.6248 6.87507 10.9999 6.5C11.375 6.12493 15.4696 6.00043 16 6.00043C16.5304 6.00043 19.6249 5.62493 20 6C20.3751 6.37507 23.5 12.4695 23.5 12.9999C23.5 13.5304 22.3751 17.6249 22 18C21.6249 18.3751 16.5304 23 16 23Z" fill="#E30611"/>
</g>
<defs>
<filter id="filter0_dd_306_59748" x="0" y="0" width="32" height="35.7285" filterUnits="userSpaceOnUse" color-interpolation-filters="sRGB">
<feFlood flood-opacity="0" result="BackgroundImageFix"/>
<feColorMatrix in="SourceAlpha" type="matrix" values="0 0 0 0 0 0 0 0 0 0 0 0 0 0 0 0 0 0 127 0" result="hardAlpha"/>
<feMorphology radius="1" operator="erode" in="SourceAlpha" result="effect1_dropShadow_306_59748"/>
<feOffset dy="3"/>
<feGaussianBlur stdDeviation="4"/>
<feColorMatrix type="matrix" values="0 0 0 0 0.196078 0 0 0 0 0.196078 0 0 0 0 0.278431 0 0 0 0.05 0"/>
<feBlend mode="normal" in2="BackgroundImageFix" result="effect1_dropShadow_306_59748"/>
<feColorMatrix in="SourceAlpha" type="matrix" values="0 0 0 0 0 0 0 0 0 0 0 0 0 0 0 0 0 0 127 0" result="hardAlpha"/>
<feOffset/>
<feGaussianBlur stdDeviation="0.5"/>
<feColorMatrix type="matrix" values="0 0 0 0 0.0470588 0 0 0 0 0.101961 0 0 0 0 0.294118 0 0 0 0.24 0"/>
<feBlend mode="normal" in2="effect1_dropShadow_306_59748" result="effect2_dropShadow_306_59748"/>
<feBlend mode="normal" in="SourceGraphic" in2="effect2_dropShadow_306_59748" result="shape"/>
</filter>
</defs>
</svg>
