<svg width="317" height="222" viewBox="0 0 317 222" fill="none" xmlns="http://www.w3.org/2000/svg">
<path d="M204.507 197.521H92.3438V36.1328H216.83V187.009C216.83 192.814 211.312 197.521 204.507 197.521Z" fill="#F7F7F7"/>
<path d="M216.594 36.1328H92.3145V43.6251H216.594V36.1328Z" fill="#587BC9"/>
<path d="M185.438 124.892C187.114 124.892 187.114 122.996 185.438 122.996C164.644 122.996 143.85 122.996 123.058 122.996C121.382 122.996 121.382 124.892 123.058 124.892H185.438Z" fill="#9EA6AD"/>
<path d="M151.745 48.8203C141.75 48.8203 132.804 53.246 126.738 60.2418L151.745 81.9098L176.751 60.2418C170.688 53.2483 161.74 48.8203 151.745 48.8203Z" fill="#D7E8F4"/>
<path d="M186.879 77.0586L154.129 81.7674V114.857C172.418 114.857 187.218 100.057 187.218 81.7674C187.218 80.1678 187.099 78.5975 186.879 77.0586Z" fill="#05ADE5"/>
<path d="M126.774 60.3516C114.987 74.3364 116.764 95.1889 130.748 106.977C131.971 108.008 133.249 108.929 134.568 109.753L152.075 81.6781L126.774 60.3516Z" fill="#A0CD69"/>
<path d="M152.028 114.81C145.827 114.812 139.606 113.08 134.141 109.555L152.032 81.7227L152.028 114.81Z" fill="#587BC9"/>
<path d="M188.561 75.2405C187.644 68.8019 184.879 62.9653 180.817 58.2812L155.811 79.9493L188.561 75.2405Z" fill="#3B455A"/>
<path d="M119.137 160.988H106.98V190.268H119.137V160.988Z" fill="url(#paint0_linear_3215_42999)"/>
<path d="M119.137 149.652H106.98V163.41H119.137V149.652Z" fill="#D7E8F4"/>
<path d="M199.158 162.312H187.002V191.592H199.158V162.312Z" fill="url(#paint1_linear_3215_42999)"/>
<path d="M199.237 137.602H187.002V164.733H199.237V137.602Z" fill="#D7E8F4"/>
<path d="M172.486 160H160.33V190.931H172.486V160Z" fill="url(#paint2_linear_3215_42999)"/>
<path d="M172.486 157.246H160.33V177.775H172.486V157.246Z" fill="#D7E8F4"/>
<path d="M145.81 149.227H133.654V190.763H145.81V149.227Z" fill="url(#paint3_linear_3215_42999)"/>
<path d="M145.81 133.141H133.654V166.365H145.81V133.141Z" fill="#D7E8F4"/>
<path d="M97.0641 41.9992C96.1836 41.9992 95.4648 41.2827 95.4648 40.4C95.4648 39.5173 96.1813 38.8008 97.0641 38.8008C97.9445 38.8008 98.6633 39.5173 98.6633 40.4C98.6633 41.2827 97.9445 41.9992 97.0641 41.9992ZM97.0641 39.0681C96.3296 39.0681 95.7321 39.6655 95.7321 40.4C95.7321 41.1345 96.3296 41.7319 97.0641 41.7319C97.7985 41.7319 98.396 41.1345 98.396 40.4C98.396 39.6655 97.7985 39.0681 97.0641 39.0681Z" fill="white"/>
<path d="M101.992 41.9992C101.111 41.9992 100.393 41.2827 100.393 40.4C100.393 39.5173 101.109 38.8008 101.992 38.8008C102.874 38.8008 103.591 39.5173 103.591 40.4C103.591 41.2827 102.872 41.9992 101.992 41.9992ZM101.992 39.0681C101.257 39.0681 100.66 39.6655 100.66 40.4C100.66 41.1345 101.257 41.7319 101.992 41.7319C102.726 41.7319 103.324 41.1345 103.324 40.4C103.321 39.6655 102.724 39.0681 101.992 39.0681Z" fill="white"/>
<path d="M106.92 41.9992C106.039 41.9992 105.32 41.2827 105.32 40.4C105.32 39.5173 106.037 38.8008 106.92 38.8008C107.802 38.8008 108.519 39.5173 108.519 40.4C108.519 41.2827 107.802 41.9992 106.92 41.9992ZM106.92 39.0681C106.185 39.0681 105.588 39.6655 105.588 40.4C105.588 41.1345 106.185 41.7319 106.92 41.7319C107.654 41.7319 108.251 41.1345 108.251 40.4C108.251 39.6655 107.654 39.0681 106.92 39.0681Z" fill="white"/>
<path opacity="0.07" d="M95.6962 202.221H16.3457V79.6719H103.065V194.853C103.065 198.921 99.7647 202.221 95.6962 202.221Z" fill="#2E4661"/>
<path d="M89.1988 198.795H6.49414V70.4023H99.9351V188.059C99.9351 193.988 95.1274 198.795 89.1988 198.795Z" fill="#51B4E8"/>
<path d="M92.0536 80.6523H16.4121V128.486H92.0536V80.6523Z" fill="white"/>
<path d="M64.3282 97.2422C64.6427 97.8757 65.1841 98.4149 66.213 98.799C68.1293 99.5134 70.7039 98.999 71.8069 97.3949C73.6536 94.7148 73.1347 90.8777 75.1206 88.0919C75.9271 86.9619 77.156 86.0453 78.605 85.632C80.054 85.2186 81.7165 85.3399 83.006 86.0498C85.1065 87.2068 85.8322 89.5971 85.8524 91.7673C85.8906 95.9347 85.3087 100.241 84.5584 104.353C84.1944 106.343 83.635 108.387 82.195 109.958C80.2383 112.09 77.0189 112.977 73.9389 113.453C66.1456 114.655 58.1546 113.921 50.2872 113.184C43.9587 112.591 37.6301 111.998 31.3016 111.404C29.5178 111.238 24.2654 111.508 23.1982 110.27C22.1558 109.064 22.9758 104.973 23.5847 103.71C24.9438 100.9 28.6574 99.3112 32.144 99.491C40.0092 99.8931 36.9 91.6797 39.4184 87.7797C40.7551 85.7084 43.7003 84.2189 46.2367 85.0816C48.6562 85.906 49.6649 88.3323 50.8578 90.3475C51.4779 91.3944 52.3563 92.4772 53.6795 92.7041C55.9283 93.0883 57.8064 90.8035 60.0957 90.8912C61.4526 90.9428 62.6051 91.8572 63.1914 92.9288C63.9867 94.3845 63.7081 95.9931 64.3282 97.2422Z" fill="url(#paint4_linear_3215_42999)" fill-opacity="0.4"/>
<path d="M87.1093 125.888C87.1071 125.888 87.1228 122.446 87.1228 122.255C87.1408 117.117 87.1408 111.979 87.1475 106.841C87.1542 101.932 87.5586 97.026 87.4778 92.1285C87.4418 89.864 86.4646 88.6801 84.0787 89.2867C81.7311 89.8842 79.5811 91.2794 78.1029 93.2024C77.1009 94.5054 76.2697 96.1364 74.7128 96.6621C71.9294 97.5989 69.6536 94.465 67.1532 92.9238C64.4618 91.2636 60.7168 91.5422 58.3018 93.5843C55.3835 96.051 54.714 100.317 52.245 103.236C49.5267 106.446 44.5888 107.533 40.7741 105.761C39.206 105.033 37.8604 103.898 36.3147 103.123C30.1884 100.052 21.6717 104.471 20.6562 111.247V125.27C20.6585 125.27 87.2329 126.011 87.1093 125.888Z" fill="url(#paint5_linear_3215_42999)"/>
<path d="M23.3325 135.781H17.6465V141.467H23.3325V135.781Z" fill="#305399"/>
<path d="M23.3325 144.184H17.6465V149.87H23.3325V144.184Z" fill="#587BC9"/>
<path d="M44.5909 137.508H28.0293V139.238H44.5909V137.508Z" fill="#F7F7F7"/>
<path d="M44.3428 146.652H27.7812V148.382H44.3428V146.652Z" fill="#F7F7F7"/>
<path d="M90.5704 159.562H18.3887V161.432H90.5704V159.562Z" fill="#F7F7F7"/>
<path d="M50.5234 164.996H18.3887V190.611H50.5234V164.996Z" fill="#3B455A"/>
<path d="M90.5711 165.238H55.4688V176.392H90.5711V165.238Z" fill="#587BC9"/>
<path d="M90.2001 179.328H55.0977V190.482H90.2001V179.328Z" fill="#546E7A"/>
<path d="M59.4685 17.3398H0.411116C0.184214 17.3398 0 17.5398 0 17.7892V49.0747C0 56.7871 5.7377 63.0415 12.8166 63.0415H37.304L47.3169 77.0892C47.5843 77.4644 48.1773 77.2802 48.1841 76.8196L48.3908 63.0437H59.4708C59.6977 63.0437 59.8819 62.8438 59.8819 62.5944V17.7892C59.8796 17.542 59.6954 17.3398 59.4685 17.3398Z" fill="#546E7A"/>
<path d="M44.5197 24.8164H7.73242V26.3486H44.5197V24.8164Z" fill="#D7E8F4"/>
<path d="M51.6076 36.5078H7.73242V38.04H51.6076V36.5078Z" fill="#D7E8F4"/>
<path d="M51.6076 48.1914H7.73242V49.7236H51.6076V48.1914Z" fill="#D7E8F4"/>
<path d="M97.8932 32.0145H54.0898V0.964844H95.1074L103.891 10.2431V25.6028C103.894 29.1434 101.207 32.0145 97.8932 32.0145Z" fill="#587BC9"/>
<path d="M103.857 10.315L95.0391 10.5374V0.964844L103.857 10.315Z" fill="#EAC5B0"/>
<path d="M94.0484 9.01562H66.1035V10.3456H94.0484V9.01562Z" fill="#A0CD69"/>
<path d="M94.0483 15.4414H61.6777V16.7714H94.0483V15.4414Z" fill="#A0CD69"/>
<path d="M94.0483 21.875H61.6777V23.205H94.0483V21.875Z" fill="#A0CD69"/>
<path d="M186.12 94.1578C185.954 94.1578 185.81 94.0366 185.788 93.8659C185.725 93.4099 185.684 92.9495 185.666 92.4913C185.66 92.3048 185.803 92.1476 185.99 92.1409C186.176 92.1341 186.333 92.2779 186.34 92.4643C186.358 92.9 186.396 93.3403 186.457 93.7738C186.482 93.9579 186.354 94.1286 186.169 94.1533C186.151 94.1578 186.136 94.1578 186.12 94.1578Z" fill="#EAC5B0"/>
<path d="M186.155 90.1341C186.137 90.1341 186.121 90.1318 186.103 90.1296C185.919 90.1026 185.793 89.9296 185.82 89.7454C185.955 88.8603 186.173 87.9639 186.469 87.0832C186.528 86.9058 186.719 86.8114 186.896 86.8721C187.074 86.9305 187.168 87.1237 187.107 87.2989C186.822 88.1436 186.613 89.0018 186.485 89.8465C186.463 90.015 186.319 90.1341 186.155 90.1341ZM187.84 85.0591C187.788 85.0591 187.734 85.0479 187.685 85.0209C187.518 84.9355 187.453 84.7334 187.539 84.5671C187.943 83.7808 188.417 82.9968 188.947 82.2307C189.053 82.0779 189.264 82.0397 189.417 82.1453C189.57 82.2509 189.608 82.4621 189.502 82.6149C188.99 83.3562 188.532 84.1156 188.138 84.8771C188.08 84.994 187.961 85.0591 187.84 85.0591ZM190.877 80.6446C190.798 80.6446 190.72 80.6177 190.655 80.5615C190.515 80.4402 190.5 80.2268 190.623 80.0852C191.205 79.418 191.841 78.7575 192.51 78.1285C192.645 78.0004 192.858 78.0072 192.987 78.142C193.115 78.2768 193.108 78.4902 192.973 78.6182C192.319 79.2338 191.699 79.8763 191.131 80.5278C191.066 80.6042 190.971 80.6446 190.877 80.6446ZM194.779 76.9603C194.68 76.9603 194.582 76.9153 194.514 76.8322C194.4 76.6862 194.424 76.475 194.57 76.3582C195.276 75.8033 196.019 75.2709 196.776 74.7744C196.931 74.6733 197.14 74.716 197.244 74.871C197.345 75.026 197.302 75.2349 197.147 75.3383C196.406 75.8235 195.68 76.3447 194.988 76.8884C194.925 76.9356 194.851 76.9603 194.779 76.9603ZM199.268 74.015C199.149 74.015 199.034 73.9521 198.971 73.8398C198.882 73.6758 198.942 73.4714 199.104 73.3815C199.888 72.9502 200.699 72.5368 201.514 72.1504C201.683 72.0718 201.883 72.1414 201.964 72.3099C202.042 72.4784 201.973 72.6783 201.804 72.7592C201 73.1411 200.2 73.5478 199.43 73.9724C199.378 74.0016 199.322 74.015 199.268 74.015ZM204.118 71.7101C203.986 71.7101 203.86 71.6314 203.806 71.4989C203.736 71.3259 203.819 71.1305 203.992 71.0608C204.817 70.7261 205.668 70.4071 206.524 70.1128C206.7 70.0521 206.893 70.1465 206.953 70.3217C207.014 70.4969 206.92 70.6901 206.744 70.7508C205.9 71.0406 205.06 71.3551 204.246 71.6854C204.204 71.7033 204.161 71.7101 204.118 71.7101ZM209.195 69.9623C209.049 69.9623 208.915 69.8657 208.872 69.7174C208.82 69.5377 208.924 69.3512 209.103 69.2995C209.955 69.0546 210.835 68.8255 211.718 68.6166C211.9 68.5739 212.08 68.6862 212.123 68.8682C212.165 69.0502 212.053 69.2299 211.871 69.2726C210.999 69.4792 210.13 69.7062 209.288 69.9465C209.258 69.9578 209.227 69.9623 209.195 69.9623ZM252.161 69.0075H251.887C251.7 69.0052 251.55 68.8547 251.552 68.6682C251.554 68.4818 251.698 68.329 251.891 68.3335H252.161C252.994 68.3335 253.796 68.3043 254.549 68.2459C254.733 68.2324 254.897 68.3695 254.911 68.5559C254.924 68.7424 254.787 68.9041 254.601 68.9176C253.832 68.976 253.012 69.0075 252.161 69.0075ZM249.207 68.9041C249.2 68.9041 249.191 68.9041 249.184 68.9041C248.382 68.8525 247.504 68.7783 246.495 68.6795C246.311 68.6615 246.174 68.4953 246.192 68.311C246.21 68.1268 246.376 67.9898 246.56 68.0078C247.56 68.1066 248.431 68.1785 249.227 68.2324C249.413 68.2436 249.553 68.4054 249.541 68.5896C249.53 68.7671 249.382 68.9041 249.207 68.9041ZM214.421 68.7244C214.261 68.7244 214.12 68.6121 214.091 68.4503C214.057 68.2684 214.176 68.0909 214.358 68.0572C215.225 67.8932 216.122 67.7427 217.02 67.6101C217.204 67.5832 217.375 67.7112 217.402 67.8954C217.429 68.0796 217.301 68.2504 217.117 68.2773C216.227 68.4076 215.342 68.5559 214.482 68.7199C214.461 68.7244 214.441 68.7244 214.421 68.7244ZM257.236 68.5671C257.078 68.5671 256.937 68.4548 256.905 68.2931C256.87 68.1111 256.989 67.9336 257.173 67.8977C258.06 67.7269 258.918 67.4978 259.72 67.2215C259.896 67.1608 260.089 67.2529 260.15 67.4304C260.21 67.6056 260.118 67.7988 259.941 67.8595C259.107 68.147 258.22 68.3829 257.301 68.5604C257.278 68.5649 257.258 68.5671 257.236 68.5671ZM243.858 68.3964C243.846 68.3964 243.833 68.3964 243.819 68.3942L243.02 68.3066C242.4 68.2392 241.775 68.1762 241.153 68.1156C240.968 68.0976 240.831 67.9336 240.849 67.7472C240.867 67.5629 241.031 67.4259 241.218 67.4439C241.845 67.5045 242.469 67.5697 243.094 67.6371L243.893 67.7247C244.078 67.7449 244.212 67.9112 244.192 68.0954C244.174 68.2684 244.028 68.3964 243.858 68.3964ZM219.734 67.9426C219.563 67.9426 219.417 67.8146 219.399 67.6416C219.379 67.4573 219.514 67.2911 219.698 67.2709C220.574 67.1765 221.477 67.0934 222.385 67.0283C222.571 67.0148 222.733 67.1541 222.747 67.3405C222.76 67.527 222.621 67.6865 222.434 67.7022C221.536 67.7674 220.639 67.8482 219.772 67.9426C219.756 67.9404 219.745 67.9426 219.734 67.9426ZM238.511 67.8797C238.502 67.8797 238.493 67.8797 238.484 67.8797C237.581 67.8078 236.682 67.7449 235.81 67.691C235.624 67.6798 235.482 67.5203 235.494 67.3338C235.505 67.1473 235.664 67.008 235.851 67.017C236.727 67.0709 237.63 67.1338 238.538 67.2057C238.724 67.2215 238.861 67.3832 238.848 67.5674C238.832 67.7449 238.684 67.8797 238.511 67.8797ZM233.148 67.5562C233.144 67.5562 233.139 67.5562 233.135 67.5562C232.232 67.5203 231.331 67.4978 230.457 67.4843C230.27 67.4821 230.122 67.3293 230.124 67.1428C230.127 66.9564 230.279 66.8014 230.466 66.8103C231.344 66.8238 232.25 66.8485 233.159 66.8822C233.346 66.889 233.49 67.0462 233.483 67.2327C233.476 67.4147 233.328 67.5562 233.148 67.5562ZM225.09 67.5495C224.91 67.5495 224.762 67.4079 224.753 67.226C224.746 67.0395 224.89 66.8822 225.076 66.8755C225.957 66.8395 226.862 66.8171 227.772 66.8058C227.956 66.8081 228.111 66.9519 228.114 67.1383C228.116 67.3248 227.968 67.4776 227.781 67.4798C226.88 67.491 225.979 67.5135 225.106 67.5495C225.099 67.5495 225.094 67.5495 225.09 67.5495ZM262.288 66.8014C262.169 66.8014 262.052 66.7362 261.992 66.6239C261.904 66.4599 261.965 66.2554 262.129 66.1678C262.886 65.759 263.632 65.2804 264.342 64.7435C264.49 64.6312 264.701 64.6604 264.813 64.8087C264.926 64.9569 264.896 65.1681 264.748 65.2804C264.011 65.8398 263.236 66.3386 262.45 66.7632C262.398 66.7879 262.342 66.8014 262.288 66.8014ZM266.566 63.582C266.48 63.582 266.393 63.5483 266.328 63.4832C266.195 63.3507 266.197 63.1372 266.328 63.0069C266.932 62.4026 267.523 61.7376 268.084 61.03C268.199 60.8839 268.412 60.8592 268.558 60.976C268.704 61.0906 268.729 61.304 268.612 61.4501C268.035 62.1779 267.426 62.8631 266.804 63.4854C266.739 63.5483 266.651 63.582 266.566 63.582ZM269.909 59.39C269.846 59.39 269.783 59.372 269.727 59.3361C269.569 59.235 269.524 59.026 269.625 58.871C270.091 58.1476 270.542 57.3771 270.967 56.5773C271.054 56.4133 271.259 56.3504 271.423 56.438C271.587 56.5256 271.65 56.7301 271.562 56.8941C271.128 57.7118 270.668 58.5003 270.194 59.2372C270.126 59.3338 270.019 59.39 269.909 59.39Z" fill="#EAC5B0"/>
<path d="M272.44 54.6346C272.395 54.6346 272.347 54.6256 272.305 54.6054C272.134 54.5312 272.058 54.3313 272.132 54.1606C272.309 53.7608 272.484 53.3453 272.651 52.9298C272.72 52.7568 272.916 52.6737 273.089 52.7434C273.262 52.813 273.345 53.0084 273.275 53.1813C273.104 53.6059 272.927 54.0259 272.747 54.4324C272.693 54.5604 272.57 54.6346 272.44 54.6346Z" fill="#EAC5B0"/>
<path d="M289.093 27.7769L287.684 59.7386L277.13 48.6586C277.13 48.6586 289.136 26.8805 289.219 27.24L288.758 26.8558C289.113 26.7547 275.917 47.8319 275.917 47.8319L261.105 43.9948L288.352 27.2288L289.093 27.7769Z" fill="#05ADE5"/>
<path opacity="0.07" d="M270.425 131.285H208.146V176.308H270.425V131.285Z" fill="#2E4661"/>
<path d="M272.983 128.676H210.279V173.834H272.983V128.676Z" fill="#546E7A"/>
<path d="M272.898 128.676H210.279V132.27H272.898V128.676Z" fill="#587BC9"/>
<path opacity="0.03" d="M272.849 140.028V139.889H265.152V132.336H265.013V139.889H255.786V132.336H255.647V139.889H246.42V132.336H246.281V139.889H237.055V132.336H236.915V139.889H227.689V132.336H227.549V139.889H218.323V132.336H218.183V139.889H210.498V140.028H218.183V148.563H210.498V148.702H218.183V157.237H210.498V157.376H218.183V165.911H210.498V166.05H218.183V173.992H218.323V166.05H227.549V173.992H227.689V166.05H236.915V173.992H237.055V166.05H246.281V173.992H246.42V166.05H255.647V173.992H255.786V166.05H265.013V173.992H265.152V166.05H272.849V165.911H265.152V157.376H272.849V157.237H265.152V148.702H272.849V148.563H265.152V140.028H272.849ZM255.645 140.028V148.563H246.418V140.028H255.645ZM237.052 148.7H246.279V157.234H237.052V148.7ZM236.913 157.234H227.686V148.7H236.913V157.234ZM246.418 148.7H255.645V157.234H246.418V148.7ZM246.279 140.028V148.563H237.052V140.028H246.279ZM236.913 140.028V148.563H227.686V140.028H236.913ZM218.321 140.028H227.547V148.563H218.321V140.028ZM218.321 148.7H227.547V157.234H218.321V148.7ZM218.321 165.906V157.372H227.547V165.906H218.321ZM227.686 165.906V157.372H236.913V165.906H227.686ZM237.052 165.906V157.372H246.279V165.906H237.052ZM246.418 165.906V157.372H255.645V165.906H246.418ZM265.013 165.906H255.786V157.372H265.013V165.906ZM265.013 157.234H255.786V148.7H265.013V157.234ZM265.013 148.561H255.786V140.026H265.013V148.561Z" fill="#272525"/>
<path d="M266.232 138.055C265.176 138.055 264.318 138.911 264.318 139.969C264.318 140.501 264.536 140.984 264.889 141.33C262.669 143.24 260.452 145.152 258.232 147.061C258.064 147.207 257.895 147.351 257.727 147.497C257.399 147.232 256.983 147.075 256.529 147.075C255.473 147.075 254.615 147.931 254.615 148.989C254.615 149.66 254.963 150.251 255.487 150.593C255.002 151.763 254.514 152.934 254.029 154.102C253.822 154.601 253.615 155.099 253.406 155.598C253.267 155.567 253.123 155.546 252.973 155.546C252.267 155.546 251.652 155.931 251.319 156.499C249.176 155.144 247.033 153.79 244.89 152.435C243.301 151.431 241.713 150.426 240.125 149.424C240.212 149.204 240.262 148.966 240.262 148.715C240.262 147.659 239.406 146.801 238.348 146.801C237.292 146.801 236.434 147.656 236.434 148.715C236.434 148.849 236.447 148.98 236.474 149.105C233.468 150.332 230.462 151.559 227.457 152.785C227.162 152.907 226.868 153.026 226.571 153.147C226.277 152.469 225.603 151.995 224.817 151.995C223.761 151.995 222.903 152.85 222.903 153.909C222.903 154.457 223.134 154.951 223.505 155.299C223.058 155.807 222.613 156.312 222.166 156.82C220.036 159.24 217.904 161.657 215.774 164.077C215.469 163.87 215.1 163.749 214.705 163.749C213.649 163.749 212.791 164.604 212.791 165.663C212.791 166.721 213.647 167.577 214.705 167.577C215.761 167.577 216.619 166.721 216.619 165.663C216.619 165.254 216.491 164.876 216.273 164.566C218.093 162.502 219.913 160.437 221.73 158.37C222.519 157.474 223.309 156.578 224.098 155.681C224.32 155.771 224.563 155.823 224.819 155.823C225.875 155.823 226.733 154.967 226.733 153.909C226.733 153.884 226.731 153.857 226.729 153.832C226.771 153.814 226.816 153.796 226.859 153.778C230.152 152.435 233.446 151.089 236.737 149.746C237.076 150.276 237.669 150.629 238.348 150.629C238.903 150.629 239.401 150.391 239.75 150.013C241.19 150.923 242.63 151.833 244.07 152.745C246.406 154.221 248.743 155.699 251.079 157.175C251.066 157.269 251.054 157.364 251.054 157.46C251.054 158.516 251.91 159.374 252.968 159.374C254.024 159.374 254.882 158.519 254.882 157.46C254.882 156.8 254.548 156.216 254.038 155.872C254.732 154.201 255.426 152.529 256.12 150.858C256.251 150.885 256.385 150.9 256.522 150.9C257.578 150.9 258.436 150.045 258.436 148.986C258.436 148.634 258.34 148.306 258.174 148.023C258.567 147.686 258.958 147.346 259.351 147.009C261.031 145.563 262.712 144.114 264.394 142.667C264.756 142.355 265.12 142.042 265.482 141.73C265.711 141.827 265.962 141.881 266.225 141.881C267.281 141.881 268.139 141.025 268.139 139.966C268.146 138.911 267.288 138.055 266.232 138.055Z" fill="#F7F7F7"/>
<path d="M278.277 108.743L270.774 120.763L228.197 93.9409L235.701 81.9219L278.277 108.743Z" fill="#F7F7F7"/>
<path d="M292.946 126.158L292.858 126.297C290.49 130.089 286.267 131.723 283.425 129.948L250.744 109.888L259.333 95.4453L292.083 116.082C294.925 117.852 295.311 122.366 292.946 126.158Z" fill="#546E7A"/>
<path opacity="0.2" d="M231.178 95.7318L233.24 97.2325L251.895 92.3912L236.352 82.4727L231.178 95.7318Z" fill="#BBBCBF"/>
<path d="M222.511 31.0824C202.53 18.6095 176.223 24.6932 163.75 44.674C151.277 64.6549 157.361 90.962 177.342 103.435C197.323 115.908 223.63 109.824 236.103 89.8432C248.576 69.8646 242.49 43.5575 222.511 31.0824ZM231.048 86.6891C220.319 103.877 197.685 109.112 180.498 98.3824C163.31 87.6506 158.073 65.0188 168.805 47.8304C179.535 30.642 202.169 25.4076 219.355 36.1371C236.543 46.8689 241.778 69.5007 231.048 86.6891Z" fill="#546E7A"/>
<path opacity="0.5" d="M225.866 93.2041C240.194 78.8765 240.194 55.6469 225.866 41.3193C211.539 26.9917 188.309 26.9917 173.981 41.3193C159.654 55.6469 159.654 78.8765 173.981 93.2041C188.309 107.532 211.539 107.532 225.866 93.2041Z" fill="#D7E8F4"/>
<g opacity="0.22">
<path opacity="0.22" d="M173.487 65.7827C173.307 54.0849 180.907 43.4991 192.194 40.2528C203.451 37.0133 215.72 41.9804 221.644 52.0854C223.313 54.9341 227.853 52.5527 226.182 49.7018C219.364 38.0692 205.846 32.0484 192.666 34.8544C179.676 37.6176 170.092 48.783 168.531 61.831C168.38 63.0936 168.342 64.3651 168.362 65.6367C168.414 68.9234 173.538 69.0964 173.487 65.7827Z" fill="white"/>
</g>
<path opacity="0.31" d="M227.961 63.3113C229.81 63.067 231.11 61.3703 230.866 59.5215C230.622 57.6727 228.925 56.372 227.076 56.6163C225.227 56.8606 223.927 58.5573 224.171 60.4061C224.415 62.2549 226.112 63.5556 227.961 63.3113Z" fill="white"/>
<path d="M251.176 109.406L259.347 95.6637C259.628 95.1919 259.506 94.5831 259.064 94.2573L258.92 94.1517C258.408 93.7721 257.678 93.9226 257.359 94.473L249.311 108.312C249.01 108.831 249.192 109.493 249.716 109.785L249.734 109.797C250.244 110.075 250.882 109.902 251.176 109.406Z" fill="#A0CD69"/>
<path d="M235.715 67.5255C235.683 76.3432 232.48 84.8913 226.656 91.5209C220.908 98.0674 212.905 102.291 204.297 103.513C195.497 104.76 186.412 102.529 179.057 97.5978C171.894 92.7947 166.669 85.3856 164.378 77.0935C162.001 68.496 162.985 59.1166 166.99 51.1616C170.848 43.4986 177.484 37.3295 185.396 34.0159C193.657 30.5562 203.032 30.3495 211.477 33.2723C219.609 36.0872 226.515 41.944 230.844 49.3509C234.059 54.8527 235.692 61.1655 235.715 67.5255C235.719 68.7835 237.671 68.7835 237.667 67.5255C237.635 58.692 234.578 50.1843 229.029 43.3189C223.612 36.6174 215.851 31.9288 207.442 30.1159C198.721 28.2333 189.498 29.5452 181.602 33.6587C174.011 37.6149 167.887 44.2332 164.422 52.0445C160.799 60.2084 160.201 69.5316 162.639 78.1157C164.995 86.41 170.261 93.6664 177.232 98.6942C184.399 103.863 193.351 106.288 202.144 105.681C210.861 105.081 219.151 101.395 225.544 95.4614C233.268 88.2971 237.631 78.0259 237.669 67.521C237.671 66.2674 235.719 66.2674 235.715 67.5255Z" fill="#F7F7F7"/>
<path d="M287.89 134.203C289.27 130.584 291.267 123.429 292.415 119.956C289.899 111.495 284.723 97.3619 284.186 97.2047C281.047 96.2971 278.25 95.4659 275.123 94.5628C274.979 94.5201 274.061 99.1996 273.917 99.1592C273.8 99.1255 273.753 98.1909 273.715 97.1216C273.715 97.1216 273.715 97.1216 273.715 97.1193L273.113 91.0379C273.095 90.5302 272.746 90.0943 272.254 89.9663C270.421 89.49 266.463 88.5622 266.29 88.8475C266.227 88.9531 265.885 94.2325 265.6 95.7422L264.94 95.3985L264.077 85.5451C264.077 85.5451 257.232 83.8197 257.097 84.1365C256.94 84.5094 255.416 92.8688 255.416 92.8688C255.416 92.8688 252.768 112.816 252.467 114.236C252.026 116.312 250.638 118.174 250.838 120.245C251.06 122.557 252.074 124.705 253.073 126.81C255.488 131.894 257.903 136.975 260.318 142.059C260.846 145.51 261.399 153.413 262.192 156.81C271.124 155.009 280.097 153.645 290.038 150.479C290.321 150.387 287.295 135.765 287.89 134.203Z" fill="#EAC5B0"/>
<path d="M259.74 169.797L257.678 151.665L293.391 138.441L299.598 160.547L259.864 172.409L259.74 169.797Z" fill="#F7F7F7"/>
<path d="M300.97 149.145C300.97 149.145 264.239 170.134 256.643 172.122L254.545 221.542H316.999L300.97 149.145Z" fill="#A0CD69"/>
<path d="M265.267 159.041C264.98 160.128 263.866 160.775 262.778 160.488C261.691 160.2 261.044 159.086 261.332 157.999C261.619 156.912 262.734 156.265 263.821 156.553C264.908 156.84 265.555 157.954 265.267 159.041Z" fill="#3B455A"/>
<path d="M248.789 120.906L244.024 113.394L237.13 106.973C237.13 106.973 235.791 103.102 240.111 102.995C244.431 102.887 247.34 106.499 249.252 109.368C250.095 110.628 254.159 114.299 257.315 116.544C261.444 119.48 257.131 132.413 257.131 132.413C257.131 132.413 249.268 121.623 248.789 120.906Z" fill="#EAC5B0"/>
<defs>
<linearGradient id="paint0_linear_3215_42999" x1="113.059" y1="160.988" x2="113.059" y2="190.268" gradientUnits="userSpaceOnUse">
<stop stop-color="#A0CD69"/>
<stop offset="1" stop-color="#05ADE5"/>
</linearGradient>
<linearGradient id="paint1_linear_3215_42999" x1="193.08" y1="162.312" x2="193.08" y2="191.592" gradientUnits="userSpaceOnUse">
<stop stop-color="#A0CD69"/>
<stop offset="1" stop-color="#05ADE5"/>
</linearGradient>
<linearGradient id="paint2_linear_3215_42999" x1="166.408" y1="160" x2="166.408" y2="190.931" gradientUnits="userSpaceOnUse">
<stop stop-color="#A0CD69"/>
<stop offset="1" stop-color="#05ADE5"/>
</linearGradient>
<linearGradient id="paint3_linear_3215_42999" x1="139.732" y1="149.227" x2="139.732" y2="190.763" gradientUnits="userSpaceOnUse">
<stop stop-color="#A0CD69"/>
<stop offset="1" stop-color="#05ADE5"/>
</linearGradient>
<linearGradient id="paint4_linear_3215_42999" x1="41.9236" y1="87.5143" x2="79.9785" y2="120.429" gradientUnits="userSpaceOnUse">
<stop stop-color="#A0CD69"/>
<stop offset="1" stop-color="#05ADE5"/>
</linearGradient>
<linearGradient id="paint5_linear_3215_42999" x1="41" y1="92.5" x2="87" y2="126" gradientUnits="userSpaceOnUse">
<stop stop-color="#A0CD69"/>
<stop offset="1" stop-color="#05ADE5"/>
</linearGradient>
</defs>
</svg>
