<svg width="160" height="160" viewBox="0 0 160 160" fill="none" xmlns="http://www.w3.org/2000/svg">
<path d="M40.0116 140H119.987C122.185 140.005 124.304 139.175 125.919 137.675C132.656 131.399 138.046 123.804 141.757 115.355C145.468 106.907 147.421 97.7838 147.497 88.5472C147.842 50.9909 117.496 20.0888 80.1628 20.0002C42.8088 19.9115 12.5 50.3484 12.5 87.9069C12.4894 97.255 14.4027 106.504 18.1195 115.072C21.8362 123.639 27.276 131.34 34.0963 137.688C35.7078 139.182 37.8206 140.007 40.0116 140Z" fill="url(#paint0_linear_2_5250)" fill-opacity="0.2"/>
<path d="M64.7863 63.803L45.611 82.9783C44.756 83.8336 44.756 85.2202 45.611 86.0755L64.9363 105.401C65.7913 106.256 67.1782 106.256 68.0332 105.401L87.2085 86.2252C88.0635 85.3702 88.0635 83.9833 87.2085 83.1283L67.8835 63.803C67.0282 62.948 65.6416 62.948 64.7863 63.803Z" fill="white" stroke="#D4D9E3" stroke-width="6" stroke-miterlimit="10"/>
<path d="M73.1976 66.0586L63.1308 91.2386C62.6817 92.3617 63.228 93.6361 64.3511 94.0851L89.728 104.231C90.8511 104.68 92.1255 104.133 92.5745 103.01L102.641 77.8304C103.09 76.7073 102.544 75.4329 101.421 74.9839L76.0442 64.8382C74.9211 64.3892 73.6467 64.9357 73.1976 66.0586Z" fill="white" stroke="#D4D9E3" stroke-width="6" stroke-miterlimit="10"/>
<path d="M115.287 73.2142H45.5591C43.0066 73.2142 40.9375 75.2833 40.9375 77.8358V134.425C40.9375 136.977 43.0066 139.047 45.5591 139.047H115.287C117.839 139.047 119.908 136.977 119.908 134.425V77.8358C119.908 75.2833 117.839 73.2142 115.287 73.2142Z" fill="white" stroke="#D4D9E3" stroke-width="6" stroke-miterlimit="10"/>
<path d="M83.1111 40.6862L71.2024 26.8145C71.1224 26.7213 71.0177 26.6527 70.9005 26.6164C70.783 26.5802 70.658 26.5778 70.5396 26.6096C70.4208 26.6414 70.3136 26.706 70.2302 26.7961C70.1471 26.8861 70.0905 26.9979 70.068 27.1185L69.5174 30.051C69.4743 30.2798 69.358 30.4884 69.1861 30.6454C69.0143 30.8023 68.7958 30.8991 68.5643 30.921L65.6221 31.1998C65.4965 31.2117 65.3768 31.2599 65.278 31.3383C65.1793 31.4171 65.1055 31.5227 65.0655 31.6424C65.0258 31.7621 65.0215 31.8912 65.0533 32.013C65.0855 32.1352 65.1521 32.2455 65.2455 32.3302L72.599 39.009" fill="#417A93"/>
<path d="M100.202 48.3272L118.131 44.7472C118.251 44.7231 118.376 44.7334 118.491 44.7772C118.605 44.8209 118.705 44.8962 118.779 44.9944C118.853 45.0925 118.897 45.2094 118.907 45.3319C118.917 45.454 118.893 45.5769 118.837 45.6856L117.462 48.334C117.355 48.5406 117.318 48.7765 117.356 49.0062C117.395 49.2359 117.507 49.4465 117.676 49.6069L119.821 51.64C119.912 51.7269 119.977 51.8384 120.006 51.9612C120.035 52.084 120.028 52.2128 119.986 52.3319C119.943 52.4506 119.867 52.5547 119.767 52.6309C119.667 52.7075 119.546 52.7531 119.42 52.7622L109.513 53.4872" fill="#417A93"/>
<path fill-rule="evenodd" clip-rule="evenodd" d="M88.9802 31.1041C91.2124 34.3354 92.0849 38.452 91.7552 43.3513L72.5527 37.732C72.9737 32.607 74.7984 29.1649 78.2812 27.7101C82.1596 26.0901 86.5912 27.646 88.9802 31.1041ZM87.0615 35.1235C88.7071 37.1338 89.4656 39.5989 89.4387 42.4667L75.6271 38.2904C75.7162 34.9957 77.0409 32.9423 79.8424 32.3729C82.5577 31.821 85.3065 32.9792 87.0615 35.1235Z" fill="#05ADE5"/>
<path fill-rule="evenodd" clip-rule="evenodd" d="M99.5595 34.7518C95.8095 35.9196 92.5848 38.6227 89.8242 42.6836L108.407 50.0977C111.235 45.8033 111.921 41.968 110.075 38.6752C108.021 35.0086 103.572 33.5018 99.5595 34.7518ZM98.592 39.0993C96.057 39.6674 93.9402 41.1405 92.1933 43.4152L105.642 48.6418C107.604 45.993 107.827 43.5596 105.972 41.3843C104.174 39.2758 101.296 38.493 98.592 39.0993Z" fill="#05ADE5"/>
<path d="M53.0077 27.8005L127.535 53.4623C128.694 53.8614 129.647 54.7045 130.184 55.8061C130.721 56.9076 130.799 58.1776 130.4 59.3367L127.56 67.5858C127.161 68.7448 126.317 69.6976 125.216 70.2351C124.114 70.7723 122.844 70.8501 121.685 70.4511L47.158 44.7892C46.5843 44.5917 46.0549 44.2829 45.6002 43.8808C45.1458 43.4786 44.7749 42.9908 44.5086 42.4454C44.2427 41.8998 44.0868 41.3073 44.0496 40.7017C44.0127 40.0958 44.0952 39.4886 44.2927 38.9148L47.1333 30.6657C47.3308 30.0918 47.6396 29.5625 48.0418 29.1079C48.4439 28.6534 48.9314 28.2825 49.4771 28.0164C50.0227 27.7504 50.6152 27.5944 51.2208 27.5573C51.8268 27.5203 52.434 27.6029 53.0077 27.8005Z" fill="white" stroke="#D4D9E3" stroke-width="6" stroke-miterlimit="10"/>
<path d="M97.0197 43.9647L84.9216 39.7919L79.375 54.9025L91.4734 59.0753L97.0197 43.9647Z" fill="#05ADE5"/>
<path d="M86.86 74.1517H74.0625V138.109H86.86V74.1517Z" fill="#05ADE5"/>
<defs>
<linearGradient id="paint0_linear_2_5250" x1="80" y1="19.9999" x2="80.0001" y2="144.5" gradientUnits="userSpaceOnUse">
<stop offset="0.00312487" stop-color="#05ADE5"/>
<stop offset="0.51875" stop-color="#A0CD69" stop-opacity="0.8"/>
<stop offset="1" stop-color="#A0CD69" stop-opacity="0"/>
</linearGradient>
</defs>
</svg>
