<svg width="160" height="160" viewBox="0 0 160 160" fill="none" xmlns="http://www.w3.org/2000/svg">
<path d="M40.0116 140H119.987C122.185 140.005 124.304 139.175 125.919 137.675C132.656 131.399 138.046 123.804 141.757 115.355C145.468 106.907 147.421 97.7838 147.497 88.5472C147.842 50.9909 117.496 20.0888 80.1628 20.0002C42.8088 19.9115 12.5 50.3484 12.5 87.9069C12.4894 97.255 14.4027 106.504 18.1195 115.072C21.8362 123.639 27.276 131.34 34.0963 137.688C35.7078 139.182 37.8206 140.007 40.0116 140Z" fill="url(#paint0_linear_2_4758)" fill-opacity="0.2"/>
<path d="M126.036 139.772H57.9566C56.286 139.772 54.6841 139.109 53.5029 137.928C52.3216 136.746 51.6582 135.144 51.6582 133.474V24.8133C51.6582 23.9862 51.821 23.1671 52.1376 22.403C52.4541 21.6388 52.9179 20.9445 53.5029 20.3596C54.0879 19.7748 54.782 19.3109 55.5463 18.9943C56.3104 18.6778 57.1295 18.5149 57.9566 18.5149H104.67L132.334 46.1791V133.474C132.334 134.301 132.171 135.12 131.855 135.884C131.538 136.648 131.074 137.343 130.489 137.928C129.905 138.513 129.21 138.976 128.446 139.293C127.682 139.609 126.863 139.772 126.036 139.772Z" fill="white" stroke="#D4D9E3" stroke-width="6" stroke-linecap="round" stroke-linejoin="round"/>
<path d="M126.036 139.772H57.9566C56.286 139.772 54.6841 139.109 53.5029 137.928C52.3216 136.746 51.6582 135.144 51.6582 133.474V24.8133C51.6582 23.9862 51.821 23.1671 52.1376 22.403C52.4541 21.6388 52.9179 20.9445 53.5029 20.3596C54.0879 19.7748 54.782 19.3109 55.5463 18.9943C56.3104 18.6778 57.1295 18.5149 57.9566 18.5149H104.67L132.334 46.1791V133.474C132.334 134.301 132.171 135.12 131.855 135.884C131.538 136.648 131.074 137.343 130.489 137.928C129.905 138.513 129.21 138.976 128.446 139.293C127.682 139.609 126.863 139.772 126.036 139.772Z" fill="white"/>
<path d="M132.332 46.1791H110.966C109.296 46.1791 107.694 45.5156 106.513 44.3344C105.332 43.1531 104.668 41.5513 104.668 39.881V18.5149L132.332 46.1791Z" fill="#05ADE5"/>
<path d="M91.4387 39.6012H65.0799C63.7446 39.6012 62.6621 40.684 62.6621 42.0193C62.6621 43.3549 63.7446 44.4374 65.0799 44.4374H91.4387C92.774 44.4374 93.8568 43.3549 93.8568 42.0193C93.8568 40.684 92.774 39.6012 91.4387 39.6012Z" fill="#D4D9E3"/>
<path d="M118.306 55.9031H65.0799C63.7446 55.9031 62.6621 56.9856 62.6621 58.3212C62.6621 59.6568 63.7446 60.7393 65.0799 60.7393H118.306C119.641 60.7393 120.724 59.6568 120.724 58.3212C120.724 56.9856 119.641 55.9031 118.306 55.9031Z" fill="#D4D9E3"/>
<path d="M118.306 72.2075H65.0799C63.7446 72.2075 62.6621 73.2903 62.6621 74.6256C62.6621 75.9613 63.7446 77.0438 65.0799 77.0438H118.306C119.641 77.0438 120.724 75.9613 120.724 74.6256C120.724 73.2903 119.641 72.2075 118.306 72.2075Z" fill="#D4D9E3"/>
<path d="M118.306 88.5094H65.0799C63.7446 88.5094 62.6621 89.5922 62.6621 90.9275C62.6621 92.2632 63.7446 93.3457 65.0799 93.3457H118.306C119.641 93.3457 120.724 92.2632 120.724 90.9275C120.724 89.5922 119.641 88.5094 118.306 88.5094Z" fill="#D4D9E3"/>
<path d="M118.501 104.814H65.0799C63.7446 104.814 62.6621 105.897 62.6621 107.232C62.6621 108.568 63.7446 109.65 65.0799 109.65H118.501C119.836 109.65 120.919 108.568 120.919 107.232C120.919 105.897 119.836 104.814 118.501 104.814Z" fill="#D4D9E3"/>
<path d="M93.8568 121.02H65.0799C63.7446 121.02 62.6621 122.103 62.6621 123.438C62.6621 124.774 63.7446 125.857 65.0799 125.857H93.8568C95.1921 125.857 96.2749 124.774 96.2749 123.438C96.2749 122.103 95.1921 121.02 93.8568 121.02Z" fill="#D4D9E3"/>
<path d="M126.036 139.772H57.9566C56.286 139.772 54.6841 139.109 53.5029 137.928C52.3216 136.746 51.6582 135.144 51.6582 133.474V24.8133C51.6582 23.9862 51.821 23.1671 52.1376 22.403C52.4541 21.6388 52.9179 20.9445 53.5029 20.3596C54.0879 19.7748 54.782 19.3109 55.5463 18.9943C56.3104 18.6778 57.1295 18.5149 57.9566 18.5149H104.67L132.334 46.1791V133.474C132.334 134.301 132.171 135.12 131.855 135.884C131.538 136.648 131.074 137.343 130.489 137.928C129.905 138.513 129.21 138.976 128.446 139.293C127.682 139.609 126.863 139.772 126.036 139.772Z" stroke="#D4D9E3" stroke-width="6" stroke-linecap="round" stroke-linejoin="round"/>
<path d="M35.8729 120.815H25.4758C24.308 120.815 23.3613 121.843 23.3613 123.11V144.351C23.3613 145.619 24.308 146.646 25.4758 146.646H35.8729C37.0404 146.646 37.9873 145.619 37.9873 144.351V123.11C37.9873 121.843 37.0404 120.815 35.8729 120.815Z" fill="white" stroke="#D4D9E3" stroke-width="6" stroke-linecap="round" stroke-linejoin="round"/>
<path d="M56.1226 108.636H45.7257C44.5579 108.636 43.6113 109.663 43.6113 110.931V144.351C43.6113 145.619 44.5579 146.646 45.7257 146.646H56.1226C57.2904 146.646 58.2373 145.619 58.2373 144.351V110.931C58.2373 109.663 57.2904 108.636 56.1226 108.636Z" fill="white" stroke="#D4D9E3" stroke-width="6" stroke-linecap="round" stroke-linejoin="round"/>
<path d="M76.3729 100.073H65.976C64.8082 100.073 63.8613 101.1 63.8613 102.368V144.352C63.8613 145.619 64.8082 146.647 65.976 146.647H76.3729C77.5407 146.647 78.4873 145.619 78.4873 144.352V102.368C78.4873 101.1 77.5407 100.073 76.3729 100.073Z" fill="#05ADE5"/>
<defs>
<linearGradient id="paint0_linear_2_4758" x1="80" y1="19.9999" x2="80.0001" y2="144.5" gradientUnits="userSpaceOnUse">
<stop offset="0.00312487" stop-color="#05ADE5"/>
<stop offset="0.51875" stop-color="#A0CD69" stop-opacity="0.8"/>
<stop offset="1" stop-color="#A0CD69" stop-opacity="0"/>
</linearGradient>
</defs>
</svg>
