<svg width="18" height="26" viewBox="0 0 18 26" fill="none" xmlns="http://www.w3.org/2000/svg">
<path d="M9 0.5C4.1625 0.5 0.25 4.4125 0.25 9.25C0.25 15.8125 9 25.5 9 25.5C9 25.5 17.75 15.8125 17.75 9.25C17.75 4.4125 13.8375 0.5 9 0.5ZM9 12.375C8.1712 12.375 7.37634 12.0458 6.79029 11.4597C6.20424 10.8737 5.875 10.0788 5.875 9.25C5.875 8.4212 6.20424 7.62634 6.79029 7.04029C7.37634 6.45424 8.1712 6.125 9 6.125C9.8288 6.125 10.6237 6.45424 11.2097 7.04029C11.7958 7.62634 12.125 8.4212 12.125 9.25C12.125 10.0788 11.7958 10.8737 11.2097 11.4597C10.6237 12.0458 9.8288 12.375 9 12.375Z" fill="url(#paint0_linear_322_59957)"/>
<defs>
<linearGradient id="paint0_linear_322_59957" x1="0.25" y1="0.5" x2="23.7399" y2="16.943" gradientUnits="userSpaceOnUse">
<stop stop-color="#86C446"/>
<stop offset="1" stop-color="#05ADE4"/>
</linearGradient>
</defs>
</svg>
