<svg width="18" height="18" viewBox="0 0 18 18" fill="none" xmlns="http://www.w3.org/2000/svg">
<mask id="mask0_217_13695" style="mask-type:alpha" maskUnits="userSpaceOnUse" x="0" y="0" width="18" height="18">
<path fill-rule="evenodd" clip-rule="evenodd" d="M9 4.5C9.31066 4.5 9.5625 4.75184 9.5625 5.0625V8.4375H12.9375C13.2482 8.4375 13.5 8.68934 13.5 9C13.5 9.31066 13.2482 9.5625 12.9375 9.5625H9.5625V12.9375C9.5625 13.2482 9.31066 13.5 9 13.5C8.68934 13.5 8.4375 13.2482 8.4375 12.9375V9.5625H5.0625C4.75184 9.5625 4.5 9.31066 4.5 9C4.5 8.68934 4.75184 8.4375 5.0625 8.4375H8.4375V5.0625C8.4375 4.75184 8.68934 4.5 9 4.5Z" fill="black"/>
</mask>
<g mask="url(#mask0_217_13695)">
<rect width="18" height="18" fill="#546E7A"/>
</g>
</svg>
