<svg width="16" height="16" viewBox="0 0 16 16" fill="none" xmlns="http://www.w3.org/2000/svg">
<path d="M7.05733 2.66667L5.838 1.448L6.78133 0.504669L9.60933 3.33334L6.78133 6.162L5.838 5.21867L7.05733 4H5.33333C4.8029 4 4.29419 4.21072 3.91912 4.58579C3.54405 4.96086 3.33333 5.46957 3.33333 6V8.66667H2V6C2 5.11595 2.35119 4.2681 2.97631 3.64298C3.60143 3.01786 4.44928 2.66667 5.33333 2.66667H7.05733ZM6 7.33334C6 7.15653 6.07024 6.98696 6.19526 6.86193C6.32029 6.73691 6.48986 6.66667 6.66667 6.66667H13.3333C13.5101 6.66667 13.6797 6.73691 13.8047 6.86193C13.9298 6.98696 14 7.15653 14 7.33334V14C14 14.1768 13.9298 14.3464 13.8047 14.4714C13.6797 14.5964 13.5101 14.6667 13.3333 14.6667H6.66667C6.48986 14.6667 6.32029 14.5964 6.19526 14.4714C6.07024 14.3464 6 14.1768 6 14V7.33334ZM7.33333 8V13.3333H12.6667V8H7.33333Z" fill="#212121"/>
</svg>
