<svg width="20" height="20" viewBox="0 0 20 20" fill="none" xmlns="http://www.w3.org/2000/svg">
<path d="M3.33341 14.9999H7.91675V16.0416C7.91675 16.6494 7.67531 17.2323 7.24553 17.6621C6.81576 18.0918 6.23287 18.3333 5.62508 18.3333C5.01729 18.3333 4.4344 18.0918 4.00463 17.6621C3.57486 17.2323 3.33341 16.6494 3.33341 16.0416V14.9999ZM6.71508 11.6666L6.75258 11.5566C7.39175 9.80161 7.50008 9.47494 7.50008 9.16661C7.50008 8.54161 7.33091 7.79744 7.06008 7.27244C6.85841 6.88078 6.71675 6.76661 6.66675 6.76661C5.60008 6.76661 4.58341 7.90328 4.58341 9.16661C4.58341 9.96578 4.64591 10.6441 4.77258 11.4649L4.80425 11.6666H6.71508ZM6.66675 5.09994C8.33341 5.09994 9.16675 7.49994 9.16675 9.16661C9.16675 9.99994 8.75008 10.8333 8.33341 12.0833L7.91675 13.3333H3.33341C3.33341 12.4999 2.91675 11.2499 2.91675 9.16661C2.91675 7.08328 4.58175 5.09994 6.66675 5.09994ZM16.7117 11.7483L16.5309 12.7741C16.4254 13.3727 16.0864 13.9049 15.5885 14.2536C15.0906 14.6022 14.4745 14.7388 13.8759 14.6333C13.2773 14.5277 12.7451 14.1887 12.3965 13.6908C12.0478 13.1929 11.9112 12.5769 12.0167 11.9783L12.1984 10.9533L16.7117 11.7483ZM15.8367 8.20994C15.9742 7.79328 16.0876 7.46411 16.0892 7.45994C16.2576 6.91161 16.3901 6.37411 16.4934 5.78661C16.7126 4.54328 15.9084 3.24744 14.8584 3.06161C14.8092 3.05328 14.6501 3.14078 14.3834 3.49078C14.0251 3.96161 13.7301 4.66578 13.6209 5.27994C13.5726 5.55494 13.5801 5.61744 13.8459 7.16578C13.8834 7.37911 13.9142 7.57078 13.9426 7.76328L13.9592 7.87828L15.8376 8.20994H15.8367ZM15.1484 1.42078C17.2017 1.78244 18.4967 4.02411 18.1351 6.07578C17.7734 8.12828 17.1459 9.28661 17.0017 10.1074L12.4876 9.31161L12.2942 8.00828C12.1009 6.70494 11.8359 5.81161 11.9801 4.99161C12.2692 3.34994 13.5067 1.13161 15.1484 1.42078V1.42078Z" fill="#757575"/>
</svg>
