<svg width="40" height="40" viewBox="0 0 40 40" fill="none" xmlns="http://www.w3.org/2000/svg">
<rect width="40" height="40" rx="20" fill="#EBFFF1"/>
<path fill-rule="evenodd" clip-rule="evenodd" d="M20 28C22.1217 28 24.1566 27.1571 25.6569 25.6569C27.1571 24.1566 28 22.1217 28 20C28 17.8783 27.1571 15.8434 25.6569 14.3431C24.1566 12.8429 22.1217 12 20 12C17.8783 12 15.8434 12.8429 14.3431 14.3431C12.8429 15.8434 12 17.8783 12 20C12 22.1217 12.8429 24.1566 14.3431 25.6569C15.8434 27.1571 17.8783 28 20 28ZM23.707 18.707C23.8892 18.5184 23.99 18.2658 23.9877 18.0036C23.9854 17.7414 23.8802 17.4906 23.6948 17.3052C23.5094 17.1198 23.2586 17.0146 22.9964 17.0123C22.7342 17.01 22.4816 17.1108 22.293 17.293L19 20.586L17.707 19.293C17.5184 19.1108 17.2658 19.01 17.0036 19.0123C16.7414 19.0146 16.4906 19.1198 16.3052 19.3052C16.1198 19.4906 16.0146 19.7414 16.0123 20.0036C16.01 20.2658 16.1108 20.5184 16.293 20.707L18.293 22.707C18.4805 22.8945 18.7348 22.9998 19 22.9998C19.2652 22.9998 19.5195 22.8945 19.707 22.707L23.707 18.707Z" fill="#47D16C"/>
</svg>
