<svg width="160" height="160" viewBox="0 0 160 160" fill="none" xmlns="http://www.w3.org/2000/svg">
<path d="M40.0116 140H119.987C122.185 140.005 124.304 139.175 125.919 137.675C132.656 131.399 138.046 123.804 141.757 115.355C145.467 106.907 147.421 97.7838 147.497 88.5472C147.842 50.9909 117.496 20.0888 80.1628 20.0002C42.8088 19.9115 12.5 50.3484 12.5 87.9069C12.4894 97.255 14.4027 106.504 18.1195 115.072C21.8363 123.639 27.276 131.34 34.0963 137.688C35.7078 139.182 37.8206 140.007 40.0116 140Z" fill="url(#paint0_linear_2_10953)" fill-opacity="0.2"/>
<path d="M145.151 46.8235L88.7071 39.7804C88.0805 39.7044 87.4455 39.8213 86.887 40.1154C86.3286 40.4091 85.873 40.866 85.5808 41.4254C85.2883 41.9847 85.1736 42.6201 85.2511 43.2463C85.3289 43.8726 85.5955 44.4604 86.0155 44.9313C86.5464 45.5266 86.828 46.3035 86.802 47.1007C86.7758 47.8979 86.4439 48.6544 85.8749 49.2138L79.9155 55.0719C79.4608 55.5188 79.1549 56.0947 79.0389 56.7216C78.9227 57.3485 79.0024 57.9957 79.2667 58.5757L90.6167 83.4669C90.8983 84.0841 90.9699 84.7766 90.8208 85.4382C90.6717 86.1 90.3102 86.6947 89.7914 87.1316L77.3533 97.6047C76.8711 98.0107 76.5236 98.5541 76.3577 99.1625C76.1917 99.771 76.2145 100.415 76.4236 101.01L81.5549 115.611L84.0652 121.805C84.2736 122.319 84.6158 122.768 85.0561 123.105C85.4967 123.442 86.0195 123.655 86.5702 123.721L135.103 129.807C136.477 129.973 137.871 129.867 139.205 129.495C140.538 129.123 141.785 128.492 142.874 127.638C143.964 126.783 144.874 125.723 145.554 124.517C146.234 123.311 146.669 121.983 146.835 120.608L154.349 58.556C154.515 57.1816 154.41 55.7879 154.037 54.4547C153.665 53.1213 153.034 51.8741 152.18 50.7847C151.326 49.6954 150.265 48.7847 149.059 48.105C147.853 47.4254 146.525 46.99 145.151 46.8235Z" fill="white" stroke="#D4D9E3" stroke-width="6" stroke-linecap="round" stroke-linejoin="round"/>
<path d="M87.6619 76.9885L150.224 84.5735L152.523 65.5882L79.9869 56.7957C79.825 56.7761 79.6613 56.8001 79.5119 56.8648C79.3625 56.9295 79.2332 57.0329 79.1369 57.1645C79.0407 57.2957 78.9813 57.4504 78.9647 57.6123C78.9482 57.7745 78.975 57.9379 79.0425 58.0861L87.6619 76.9885Z" fill="#E53935"/>
<path d="M114.404 119.018C119.807 119.018 124.186 114.638 124.186 109.235C124.186 103.833 119.807 99.4529 114.404 99.4529C109.001 99.4529 104.621 103.833 104.621 109.235C104.621 114.638 109.001 119.018 114.404 119.018Z" fill="#417A93"/>
<path d="M114.404 119.018C119.807 119.018 124.186 114.638 124.186 109.235C124.186 103.833 119.807 99.4529 114.404 99.4529C109.001 99.4529 104.621 103.833 104.621 109.235C104.621 114.638 109.001 119.018 114.404 119.018Z" fill="#E53935" fill-opacity="0.4"/>
<path d="M129.385 120.831C134.788 120.831 139.168 116.451 139.168 111.048C139.168 105.645 134.788 101.266 129.385 101.266C123.982 101.266 119.603 105.645 119.603 111.048C119.603 116.451 123.982 120.831 129.385 120.831Z" fill="#E53935"/>
<path d="M11.573 54.2273L27.3553 114.708C27.7048 116.047 28.3148 117.305 29.1503 118.408C29.9858 119.512 31.0306 120.441 32.2251 121.141C33.4191 121.841 34.7397 122.299 36.111 122.488C37.4822 122.678 38.8776 122.596 40.2172 122.246L96.5291 107.552C96.8838 107.459 97.2085 107.276 97.4707 107.019C97.7326 106.763 97.9235 106.442 98.0238 106.09C98.1241 105.737 98.131 105.364 98.0432 105.008C97.9554 104.652 97.776 104.325 97.5232 104.059L94.1182 100.483L83.5357 88.2622C83.2554 87.9388 83.0804 87.5379 83.0338 87.1126C82.9872 86.6872 83.071 86.2576 83.2744 85.8813L91.6891 70.3004C91.9079 69.8957 91.9882 69.4301 91.9176 68.9754C91.8466 68.5207 91.6291 68.1013 91.2979 67.7819L69.4938 46.7563L74.1572 36.2632C74.3772 35.7685 74.3982 35.2082 74.2163 34.6985C74.0344 34.1888 73.6632 33.7688 73.1797 33.5251L65.6938 29.7532C65.2357 29.5225 64.7094 29.4667 64.2132 29.5961L19.1114 41.3654C17.7719 41.7147 16.5144 42.3247 15.4106 43.1604C14.3068 43.996 13.3785 45.0407 12.6785 46.2351C11.9784 47.4294 11.5205 48.7498 11.3309 50.121C11.1412 51.4926 11.2235 52.8876 11.573 54.2273Z" fill="white" stroke="#D4D9E3" stroke-width="6" stroke-linecap="round" stroke-linejoin="round"/>
<path d="M68.5421 46.9292L14.3633 61.2439L19.192 79.7479L84.6727 62.4842L68.5421 46.9292Z" fill="#E53935"/>
<path d="M34.4123 98.842L64.8141 90.9089C65.3907 90.7583 66.0029 90.8429 66.517 91.1442C67.0307 91.4454 67.4038 91.9386 67.5545 92.5148C67.7048 93.0911 67.6201 93.7036 67.3188 94.2173C67.0176 94.7314 66.5248 95.1045 65.9482 95.2548L35.5463 103.188C34.9701 103.339 34.3576 103.254 33.8435 102.953C33.3298 102.652 32.9566 102.159 32.8063 101.582C32.6557 101.006 32.7404 100.394 33.0416 99.8795C33.3429 99.3658 33.836 98.9926 34.4123 98.842Z" fill="#D4D9E3"/>
<path d="M53.6652 104.769L37.0874 109.095C35.8874 109.408 35.1684 110.635 35.4815 111.835C35.7946 113.035 37.0215 113.754 38.2218 113.441L54.7993 109.115C55.9993 108.802 56.7184 107.575 56.4052 106.375C56.0921 105.175 54.8652 104.455 53.6652 104.769Z" fill="#D4D9E3"/>
<path d="M61.6711 129.273L60.683 123.321C60.6702 123.244 60.6333 123.174 60.578 123.12C60.5224 123.065 60.4511 123.03 60.3742 123.019C60.2977 123.009 60.2192 123.023 60.1508 123.059C60.0824 123.096 60.0277 123.153 59.9939 123.223L57.4536 128.531C57.4296 128.581 57.4174 128.637 57.418 128.693C57.4186 128.749 57.4324 128.804 57.4577 128.854C57.4833 128.904 57.5199 128.948 57.5649 128.981C57.6099 129.014 57.6621 129.037 57.7171 129.047L61.2458 129.691C61.3033 129.702 61.3627 129.698 61.4186 129.681C61.4745 129.664 61.5255 129.633 61.567 129.592C61.6089 129.551 61.6402 129.501 61.6583 129.445C61.6764 129.389 61.6808 129.33 61.6711 129.273Z" fill="#D4D9E3"/>
<path d="M39.2257 44.7641L44.1423 48.261C44.2054 48.306 44.2813 48.3297 44.3588 48.3285C44.4363 48.3272 44.5116 48.3016 44.5735 48.2547C44.6354 48.2082 44.6807 48.1428 44.7029 48.0685C44.7254 47.9941 44.7232 47.9147 44.6973 47.8416L42.726 42.2972C42.707 42.2444 42.6763 42.1966 42.636 42.1575C42.596 42.1185 42.5473 42.0894 42.4938 42.0722C42.4404 42.055 42.3838 42.0503 42.3282 42.0588C42.2729 42.0669 42.2201 42.0878 42.1738 42.12L39.2288 44.1675C39.1807 44.201 39.1416 44.2453 39.1141 44.2972C39.087 44.3488 39.0726 44.4066 39.0723 44.465C39.072 44.5235 39.0857 44.5813 39.1126 44.6332C39.1391 44.6853 39.1779 44.7303 39.2257 44.7641Z" fill="#D4D9E3"/>
<path d="M86.9541 22.0893L84.2731 29.938C84.2384 30.0389 84.2372 30.1482 84.2691 30.2499C84.3009 30.3517 84.3644 30.4406 84.4503 30.5039C84.5363 30.5671 84.64 30.6013 84.7466 30.6015C84.8531 30.6017 84.9572 30.5679 85.0434 30.5051L91.5766 25.7348C91.6388 25.6893 91.6897 25.6301 91.7253 25.5618C91.7609 25.4934 91.7803 25.4178 91.7822 25.3407C91.7838 25.2636 91.7675 25.1872 91.735 25.1174C91.7022 25.0476 91.6541 24.9862 91.5938 24.9381L87.7416 21.8597C87.6788 21.8095 87.605 21.7751 87.5259 21.7595C87.4472 21.7439 87.3656 21.7475 87.2884 21.7701C87.2109 21.7926 87.1403 21.8333 87.0822 21.8889C87.0241 21.9445 86.98 22.0132 86.9541 22.0893Z" fill="#D4D9E3"/>
<path d="M92.3835 134.318L94.0129 128.887C94.0338 128.817 94.032 128.742 94.0076 128.673C93.9832 128.605 93.9376 128.546 93.8773 128.505C93.817 128.464 93.7451 128.443 93.6723 128.446C93.5995 128.448 93.5295 128.474 93.4723 128.519L89.1314 131.947C89.0901 131.98 89.0567 132.021 89.0342 132.069C89.0113 132.116 89.0001 132.169 89.001 132.221C89.002 132.274 89.0148 132.326 89.0388 132.373C89.0629 132.42 89.0976 132.46 89.1401 132.491L91.8513 134.496C91.8954 134.528 91.947 134.55 92.0013 134.558C92.0557 134.567 92.1113 134.562 92.1635 134.545C92.2157 134.528 92.2629 134.498 92.301 134.459C92.3395 134.419 92.3676 134.371 92.3835 134.318Z" fill="#D4D9E3"/>
<defs>
<linearGradient id="paint0_linear_2_10953" x1="80" y1="19.9999" x2="80.0001" y2="144.5" gradientUnits="userSpaceOnUse">
<stop offset="0.00312487" stop-color="#05ADE5"/>
<stop offset="0.51875" stop-color="#A0CD69" stop-opacity="0.8"/>
<stop offset="1" stop-color="#A0CD69" stop-opacity="0"/>
</linearGradient>
</defs>
</svg>
