<svg width="160" height="160" viewBox="0 0 160 160" fill="none" xmlns="http://www.w3.org/2000/svg">
<path d="M40.0116 140H119.987C122.185 140.005 124.304 139.175 125.919 137.675C132.656 131.399 138.046 123.804 141.757 115.355C145.468 106.907 147.421 97.7838 147.497 88.5472C147.842 50.9909 117.496 20.0888 80.1628 20.0002C42.8088 19.9115 12.5 50.3484 12.5 87.9069C12.4894 97.255 14.4027 106.504 18.1195 115.072C21.8362 123.639 27.276 131.34 34.0963 137.688C35.7078 139.182 37.8206 140.007 40.0116 140Z" fill="url(#paint0_linear_2_10879)" fill-opacity="0.2"/>
<path d="M81.2369 53.9154C81.1929 54.0872 81.1154 54.2491 81.0088 54.391C80.9019 54.5332 80.7685 54.6529 80.6154 54.7432C80.4626 54.8335 80.2932 54.8929 80.1176 54.9175C79.9416 54.9425 79.7626 54.9325 79.5904 54.8882C79.4185 54.8438 79.2569 54.766 79.1151 54.6591C78.9732 54.5522 78.8538 54.4185 78.7635 54.2654C78.6735 54.1122 78.6144 53.9429 78.5897 53.7669C78.5651 53.591 78.5754 53.4119 78.6201 53.24C79.2704 50.7194 79.1191 47.6344 78.9729 44.6513C78.7457 40.0132 78.5307 35.6325 81.3319 33.3504C83.2488 31.7885 86.2523 31.5638 90.5138 32.6632C94.7754 33.7625 97.2954 35.4122 98.2176 37.7066C99.5651 41.0588 97.2579 44.7891 94.8151 48.7382C93.2438 51.2782 91.6191 53.905 90.9688 56.4257C90.8788 56.7722 90.6551 57.0691 90.3466 57.2507C90.0379 57.4325 89.6701 57.4841 89.3232 57.3947C88.9766 57.3054 88.6794 57.0819 88.4976 56.7738C88.3154 56.4654 88.2629 56.0975 88.3519 55.7507" stroke="#D4D9E3" stroke-width="6" stroke-miterlimit="10"/>
<path d="M116.318 54.683L91.4243 42.5624C90.3515 42.0408 89.168 41.7867 87.9758 41.8221L87.953 41.813L85.478 41.9936L85.6496 42.2667C85.0715 42.4764 84.5218 42.7577 84.0134 43.1039L61.1468 58.7155C60.079 59.4446 59.2212 60.4411 58.6593 61.6058C58.0977 62.7705 57.8518 64.0624 57.9459 65.3517L63.2193 137.503C63.2802 138.337 63.5046 139.15 63.8802 139.897C64.2555 140.645 64.7743 141.31 65.4071 141.857C66.0396 142.403 66.774 142.82 67.5674 143.082C68.3612 143.345 69.1987 143.449 70.0327 143.388L119.837 139.748C120.671 139.687 121.485 139.463 122.232 139.087C122.979 138.712 123.645 138.193 124.191 137.56C124.738 136.928 125.154 136.194 125.417 135.4C125.68 134.606 125.784 133.769 125.723 132.935L120.45 60.7836C120.355 59.4939 119.924 58.2517 119.199 57.1811C118.474 56.1105 117.48 55.2492 116.318 54.683Z" fill="white" stroke="#D4D9E3" stroke-width="6" stroke-miterlimit="10"/>
<path d="M87.3924 144.722L39.0377 132.248C37.4027 131.826 36.0024 130.772 35.1446 129.318C34.2868 127.864 34.0418 126.128 34.4636 124.493L52.5349 54.4432C52.858 53.191 53.5039 52.0457 54.4086 51.122C55.3133 50.1979 56.4446 49.5279 57.6896 49.1785L84.3471 41.6973C85.6036 41.3445 86.9311 41.3304 88.1946 41.6564C89.4583 41.9826 90.6133 42.637 91.5424 43.5532L111.254 62.9967C112.175 63.9048 112.84 65.0389 113.185 66.2851C113.53 67.5314 113.541 68.846 113.218 70.0982L95.1471 140.148C94.9383 140.958 94.5721 141.718 94.0693 142.386C93.5664 143.054 92.9371 143.617 92.2171 144.041C91.4971 144.466 90.7002 144.745 89.8724 144.862C89.0446 144.979 88.2018 144.931 87.3924 144.722Z" fill="white" stroke="#D4D9E3" stroke-width="6" stroke-miterlimit="10"/>
<path d="M85.4626 55.6961C87.3692 55.6961 88.9148 54.1507 88.9148 52.2442C88.9148 50.3376 87.3692 48.792 85.4626 48.792C83.5561 48.792 82.0107 50.3376 82.0107 52.2442C82.0107 54.1507 83.5561 55.6961 85.4626 55.6961Z" fill="#D4D9E3"/>
<path d="M85.4626 55.6961C87.3692 55.6961 88.9148 54.1507 88.9148 52.2442C88.9148 50.3376 87.3692 48.792 85.4626 48.792C83.5561 48.792 82.0107 50.3376 82.0107 52.2442C82.0107 54.1507 83.5561 55.6961 85.4626 55.6961Z" fill="black" fill-opacity="0.15"/>
<path d="M87.013 53.0074L87.602 50.5061C88.4767 47.1283 90.7789 44.0121 93.1161 41.4215C95.7842 38.4702 99.2064 35.4661 100.2 31.614L101.772 25.5215C102.374 23.1809 102.022 20.697 100.794 18.6156C99.5655 16.5343 97.5608 15.026 95.2205 14.4223C92.8805 13.8186 90.3961 14.1689 88.3142 15.3962C86.232 16.6235 84.7227 18.6273 84.1177 20.9672L82.5461 27.0596C81.5523 30.9116 83.0861 35.2186 83.993 39.0924C84.7852 42.4902 85.3708 46.0293 84.5027 49.4083L83.9136 51.9096" stroke="#D4D9E3" stroke-width="6" stroke-linecap="round" stroke-linejoin="round"/>
<path d="M43.717 116.379C52.3463 116.379 59.342 109.383 59.342 100.754C59.342 92.1242 52.3463 85.1289 43.717 85.1289C35.0873 85.1289 28.0918 92.1242 28.0918 100.754C28.0918 109.383 35.0873 116.379 43.717 116.379Z" fill="#86C446"/>
<path d="M40.7842 108.543C40.5552 108.543 40.3286 108.498 40.117 108.411C39.9055 108.323 39.7136 108.195 39.5517 108.033L34.4396 102.921C34.1133 102.593 33.9302 102.151 33.9302 101.688C33.9305 101.226 34.1139 100.784 34.4408 100.457C34.7674 100.13 35.2102 99.9468 35.6721 99.9465C36.1339 99.9465 36.5771 100.13 36.9042 100.456L40.7842 104.336L50.5311 94.589C50.693 94.4271 50.8849 94.2987 51.0964 94.2112C51.308 94.1237 51.5345 94.0784 51.7633 94.0784C51.9924 94.0784 52.2189 94.1237 52.4302 94.2112C52.6417 94.2987 52.8339 94.4271 52.9955 94.589C53.1574 94.7509 53.2858 94.9427 53.3733 95.1543C53.4611 95.3656 53.5061 95.5924 53.5061 95.8212C53.5061 96.0499 53.4611 96.2768 53.3733 96.4881C53.2858 96.6996 53.1574 96.8915 52.9955 97.0534L42.0164 108.033C41.8549 108.195 41.6627 108.323 41.4511 108.411C41.2399 108.498 41.013 108.543 40.7842 108.543Z" fill="white"/>
<defs>
<linearGradient id="paint0_linear_2_10879" x1="80" y1="19.9999" x2="80.0001" y2="144.5" gradientUnits="userSpaceOnUse">
<stop offset="0.00312487" stop-color="#05ADE5"/>
<stop offset="0.51875" stop-color="#A0CD69" stop-opacity="0.8"/>
<stop offset="1" stop-color="#A0CD69" stop-opacity="0"/>
</linearGradient>
</defs>
</svg>
