<svg width="72" height="72" viewBox="0 0 72 72" fill="none" xmlns="http://www.w3.org/2000/svg">
<path d="M18.0052 63H53.994C54.9831 63.0024 55.9367 62.6286 56.6634 61.9536C59.6952 59.1297 62.1205 55.7117 63.7905 51.9099C65.4604 48.108 66.3394 44.0027 66.3737 39.8462C66.529 22.9459 52.873 9.03997 36.0733 9.00009C19.2639 8.96018 5.62502 22.6568 5.62502 39.5581C5.62022 43.7648 6.4812 47.9267 8.15375 51.7822C9.8263 55.6376 12.2742 59.1029 15.3433 61.9598C16.0685 62.6317 17.0193 63.0032 18.0052 63Z" fill="url(#paint0_linear_2_13426)" fill-opacity="0.2"/>
<path d="M52.1248 26.626H14.7461C13.3298 26.626 12.1816 27.774 12.1816 29.1903V60.59C12.1816 62.0062 13.3298 63.1543 14.7461 63.1543H52.1248C53.541 63.1543 54.6891 62.0062 54.6891 60.59V29.1903C54.6891 27.774 53.541 26.626 52.1248 26.626Z" fill="white" stroke="#D4D9E3" stroke-width="0.84375" stroke-miterlimit="10"/>
<path d="M36.9858 26.626H29.8848V63.1543H36.9858V26.626Z" fill="white" stroke="#D4D9E3" stroke-width="0.84375" stroke-miterlimit="10"/>
<path d="M28.2542 19.9389L17.5858 13.6989C17.5141 13.657 17.4321 13.6362 17.3493 13.6389C17.2663 13.6416 17.1857 13.6677 17.117 13.7141C17.0482 13.7605 16.9941 13.8255 16.9606 13.9014C16.9271 13.9773 16.9157 14.0612 16.928 14.1433L17.2224 16.1387C17.2453 16.2943 17.2171 16.4534 17.1418 16.5916C17.0665 16.7297 16.9483 16.8397 16.8051 16.9048L14.9863 17.7315C14.9086 17.7668 14.8429 17.824 14.7971 17.896C14.7512 17.968 14.7273 18.0517 14.7283 18.1371C14.7291 18.2224 14.7549 18.3057 14.8021 18.3767C14.8495 18.4477 14.9165 18.5034 14.9949 18.537L21.1665 21.1843" fill="white"/>
<path d="M28.2542 19.9389L17.5858 13.6989C17.5141 13.657 17.4321 13.6362 17.3493 13.6389C17.2663 13.6416 17.1857 13.6677 17.117 13.7141C17.0482 13.7605 16.9941 13.8255 16.9606 13.9014C16.9271 13.9773 16.9157 14.0612 16.928 14.1433L17.2224 16.1387C17.2453 16.2943 17.2171 16.4534 17.1418 16.5916C17.0665 16.7297 16.9483 16.8397 16.8051 16.9048L14.9863 17.7315C14.9086 17.7668 14.8429 17.824 14.7971 17.896C14.7512 17.968 14.7273 18.0517 14.7283 18.1371C14.7291 18.2224 14.7549 18.3057 14.8021 18.3767C14.8495 18.4477 14.9165 18.5034 14.9949 18.537L21.1665 21.1843" stroke="#D4D9E3" stroke-width="0.84375" stroke-miterlimit="10"/>
<path fill-rule="evenodd" clip-rule="evenodd" d="M22.3066 12.709C24.4279 10.8188 27.6029 10.8363 29.892 12.5196C32.0309 14.0926 33.496 16.5311 34.3652 19.7348L32.5918 19.819C31.9679 18.0776 30.9698 16.3859 29.5517 15.5112C27.9576 14.5279 25.9457 14.3936 24.332 15.3447C22.7188 16.2958 22.2987 18.2277 22.8833 20.28L20.8548 20.3764C19.994 17.0085 20.4014 14.4065 22.3066 12.709Z" fill="white"/>
<path d="M29.8922 12.5196L30.1421 12.1797L29.8922 12.5196ZM22.3067 12.709L22.026 12.394L22.3067 12.709ZM34.3653 19.7347L34.3853 20.156L34.9099 20.1312L34.7724 19.6242L34.3653 19.7347ZM32.5919 19.819L32.1948 19.9611L32.2999 20.2552L32.6119 20.2403L32.5919 19.819ZM29.5519 15.5112L29.3304 15.8702L29.5519 15.5112ZM24.3321 15.3447L24.1178 14.9813L24.3321 15.3447ZM22.8834 20.2799L22.9035 20.7014L23.4349 20.6762L23.2893 20.1645L22.8834 20.2799ZM20.8549 20.3764L20.4461 20.4807L20.5313 20.814L20.8749 20.7977L20.8549 20.3764ZM30.1421 12.1797C27.7108 10.3918 24.3126 10.3566 22.026 12.394L22.5873 13.0239C24.5436 11.2809 27.4954 11.2806 29.6423 12.8594L30.1421 12.1797ZM34.7724 19.6242C33.8865 16.3589 32.3798 13.8253 30.1421 12.1797L29.6423 12.8594C31.6823 14.3598 33.1057 16.7031 33.9581 19.8451L34.7724 19.6242ZM32.6119 20.2403L34.3853 20.156L34.3452 19.3133L32.5719 19.3975L32.6119 20.2403ZM29.3304 15.8702C30.6278 16.6705 31.5832 18.2541 32.1948 19.9611L32.989 19.6767C32.3531 17.9013 31.3121 16.1013 29.7733 15.1522L29.3304 15.8702ZM24.5463 15.7082C26.0078 14.8467 27.8513 14.9578 29.3304 15.8702L29.7733 15.1522C28.064 14.0978 25.8838 13.9404 24.1178 14.9813L24.5463 15.7082ZM23.2893 20.1645C22.7332 18.2126 23.1633 16.5234 24.5463 15.7082L24.1178 14.9813C22.2744 16.0681 21.8644 18.2426 22.4777 20.3955L23.2893 20.1645ZM20.8749 20.7977L22.9035 20.7014L22.8634 19.8586L20.8348 19.9549L20.8749 20.7977ZM22.026 12.394C19.9512 14.2426 19.5673 17.042 20.4461 20.4807L21.2636 20.2719C20.4211 16.975 20.8519 14.5703 22.5873 13.0239L22.026 12.394Z" fill="#D4D9E3"/>
<path fill-rule="evenodd" clip-rule="evenodd" d="M37.4576 12.5196C39.7466 10.8363 42.9216 10.8188 45.0431 12.709C46.9481 14.4065 47.3555 17.0085 46.4949 20.3764L44.4662 20.28C45.0508 18.2276 44.6309 16.2958 43.0175 15.3449C41.4039 14.3936 39.3921 14.5279 37.7978 15.5112C36.3797 16.3859 35.3816 18.0778 34.7578 19.819L32.9845 19.7348C33.8537 16.5311 35.3186 14.0926 37.4576 12.5196Z" fill="white"/>
<path d="M45.0431 12.7089L45.3238 12.394L45.0431 12.7089ZM37.4576 12.5196L37.2076 12.1797L37.4576 12.5196ZM46.4949 20.3764L46.4748 20.7977L46.8185 20.814L46.9035 20.4807L46.4949 20.3764ZM44.4662 20.2799L44.0605 20.1645L43.9147 20.6762L44.4463 20.7014L44.4662 20.2799ZM43.0175 15.3448L43.2318 14.9813L43.0175 15.3448ZM37.7978 15.5112L38.0193 15.8702L37.7978 15.5112ZM34.7578 19.819L34.7378 20.2403L35.0497 20.2552L35.155 19.9611L34.7578 19.819ZM32.9845 19.7347L32.5772 19.6242L32.4397 20.1311L32.9644 20.156L32.9845 19.7347ZM45.3238 12.394C43.0371 10.3566 39.6389 10.3918 37.2076 12.1797L37.7075 12.8594C39.8544 11.2806 42.8061 11.2809 44.7624 13.0239L45.3238 12.394ZM46.9035 20.4807C47.7824 17.042 47.3985 14.2426 45.3238 12.394L44.7624 13.0239C46.4978 14.5703 46.9287 16.975 46.0861 20.2719L46.9035 20.4807ZM44.4463 20.7014L46.4748 20.7977L46.5149 19.9549L44.4862 19.8586L44.4463 20.7014ZM42.8033 15.7082C44.1864 16.5234 44.6164 18.2126 44.0605 20.1645L44.8719 20.3955C45.4852 18.2426 45.0753 16.0681 43.2318 14.9813L42.8033 15.7082ZM38.0193 15.8702C39.4984 14.9578 41.3418 14.8467 42.8033 15.7082L43.2318 14.9813C41.466 13.9404 39.2856 14.0978 37.5763 15.1522L38.0193 15.8702ZM35.155 19.9611C35.7665 18.2541 36.7219 16.6705 38.0193 15.8702L37.5763 15.1522C36.0376 16.1013 34.9967 17.9013 34.3606 19.6767L35.155 19.9611ZM32.9644 20.156L34.7378 20.2403L34.7779 19.3975L33.0044 19.3133L32.9644 20.156ZM37.2076 12.1797C34.9698 13.8253 33.4632 16.3589 32.5772 19.6242L33.3916 19.8451C34.2441 16.7031 35.6675 14.3596 37.7075 12.8594L37.2076 12.1797Z" fill="#D4D9E3"/>
<path d="M38.912 19.9385L49.5804 13.6987C49.6519 13.6568 49.7341 13.636 49.8169 13.6387C49.8999 13.6413 49.9803 13.6674 50.0491 13.7139C50.1178 13.7603 50.1721 13.8252 50.2056 13.9012C50.239 13.9771 50.2504 14.0609 50.2382 14.143L49.9437 16.1384C49.9208 16.2941 49.9491 16.4532 50.0243 16.5913C50.0997 16.7295 50.2178 16.8395 50.3611 16.9046L52.1798 17.7313C52.2576 17.7666 52.3233 17.8237 52.3691 17.8957C52.4149 17.9677 52.4388 18.0515 52.4379 18.1369C52.437 18.2222 52.4113 18.3055 52.3639 18.3763C52.3166 18.4474 52.2497 18.5032 52.1712 18.5368L45.9996 21.1839" fill="white"/>
<path d="M38.912 19.9385L49.5804 13.6987C49.6519 13.6568 49.7341 13.636 49.8169 13.6387C49.8999 13.6413 49.9803 13.6674 50.0491 13.7139C50.1178 13.7603 50.1721 13.8252 50.2056 13.9012C50.239 13.9771 50.2504 14.0609 50.2382 14.143L49.9437 16.1384C49.9208 16.2941 49.9491 16.4532 50.0243 16.5913C50.0997 16.7295 50.2178 16.8395 50.3611 16.9046L52.1798 17.7313C52.2576 17.7666 52.3233 17.8237 52.3691 17.8957C52.4149 17.9677 52.4388 18.0515 52.4379 18.1369C52.437 18.2222 52.4113 18.3055 52.3639 18.3763C52.3166 18.4474 52.2497 18.5032 52.1712 18.5368L45.9996 21.1839" stroke="#D4D9E3" stroke-width="0.84375" stroke-miterlimit="10"/>
<path d="M12.3708 19.2061H54.7955C55.1323 19.2061 55.4657 19.2724 55.7768 19.4012C56.088 19.5302 56.3707 19.7191 56.6087 19.9571C56.8469 20.1954 57.0358 20.478 57.1646 20.7891C57.2936 21.1003 57.3598 21.4337 57.3598 21.7705V26.6114C57.3598 27.2914 57.0897 27.9438 56.6087 28.4247C56.1279 28.9055 55.4756 29.1758 54.7955 29.1758H12.3708C11.6907 29.1758 11.0384 28.9055 10.5575 28.4247C10.0766 27.9438 9.8064 27.2914 9.8064 26.6114V21.7705C9.8064 21.0903 10.0766 20.4381 10.5575 19.9571C11.0384 19.4762 11.6907 19.2061 12.3708 19.2061Z" fill="white" stroke="#D4D9E3" stroke-width="0.84375" stroke-miterlimit="10"/>
<path d="M36.9858 19.2061H29.8848V29.1758H36.9858V19.2061Z" fill="white" stroke="#D4D9E3" stroke-width="0.84375" stroke-miterlimit="10"/>
<defs>
<linearGradient id="paint0_linear_2_13426" x1="36" y1="8.99998" x2="36" y2="65.025" gradientUnits="userSpaceOnUse">
<stop offset="0.00312487" stop-color="#05ADE5"/>
<stop offset="0.51875" stop-color="#A0CD69" stop-opacity="0.8"/>
<stop offset="1" stop-color="#A0CD69" stop-opacity="0"/>
</linearGradient>
</defs>
</svg>
