<svg width="72" height="72" viewBox="0 0 72 72" fill="none" xmlns="http://www.w3.org/2000/svg">
<path d="M18.0052 63H53.994C54.9831 63.0024 55.9367 62.6286 56.6634 61.9536C59.6952 59.1297 62.1205 55.7117 63.7905 51.9099C65.4604 48.108 66.3394 44.0027 66.3737 39.8462C66.529 22.9459 52.873 9.03997 36.0733 9.00009C19.2639 8.96018 5.62502 22.6568 5.62502 39.5581C5.62022 43.7648 6.4812 47.9267 8.15375 51.7822C9.8263 55.6376 12.2742 59.1029 15.3433 61.9598C16.0685 62.6317 17.0193 63.0032 18.0052 63Z" fill="url(#paint0_linear_2_13455)" fill-opacity="0.2"/>
<path d="M52.1248 26.626H14.7461C13.3298 26.626 12.1816 27.774 12.1816 29.1903V60.59C12.1816 62.0062 13.3298 63.1543 14.7461 63.1543H52.1248C53.541 63.1543 54.6891 62.0062 54.6891 60.59V29.1903C54.6891 27.774 53.541 26.626 52.1248 26.626Z" fill="white" stroke="#D4D9E3" stroke-width="0.84375" stroke-miterlimit="10"/>
<path d="M36.9858 26.626H29.8848V63.1543H36.9858V26.626Z" fill="#51B4E8" stroke="#D4D9E3" stroke-width="0.84375" stroke-miterlimit="10"/>
<path d="M28.2542 19.9389L17.5858 13.6989C17.5141 13.657 17.4321 13.6362 17.3493 13.6389C17.2663 13.6416 17.1857 13.6677 17.117 13.7141C17.0482 13.7605 16.9941 13.8255 16.9606 13.9014C16.9271 13.9773 16.9157 14.0612 16.928 14.1433L17.2224 16.1387C17.2453 16.2943 17.2171 16.4534 17.1418 16.5916C17.0665 16.7297 16.9483 16.8397 16.8051 16.9048L14.9863 17.7315C14.9086 17.7668 14.8429 17.824 14.7971 17.896C14.7512 17.968 14.7273 18.0517 14.7283 18.1371C14.7291 18.2224 14.7549 18.3057 14.8021 18.3767C14.8495 18.4477 14.9165 18.5034 14.9949 18.537L21.1665 21.1843" fill="#51B4E8"/>
<path d="M28.2542 19.9389L17.5858 13.6989C17.5141 13.657 17.4321 13.6362 17.3493 13.6389C17.2663 13.6416 17.1857 13.6677 17.117 13.7141C17.0482 13.7605 16.9941 13.8255 16.9606 13.9014C16.9271 13.9773 16.9157 14.0612 16.928 14.1433L17.2224 16.1387C17.2453 16.2943 17.2171 16.4534 17.1418 16.5916C17.0665 16.7297 16.9483 16.8397 16.8051 16.9048L14.9863 17.7315C14.9086 17.7668 14.8429 17.824 14.7971 17.896C14.7512 17.968 14.7273 18.0517 14.7283 18.1371C14.7291 18.2224 14.7549 18.3057 14.8021 18.3767C14.8495 18.4477 14.9165 18.5034 14.9949 18.537L21.1665 21.1843" stroke="#D4D9E3" stroke-width="0.84375" stroke-miterlimit="10"/>
<path fill-rule="evenodd" clip-rule="evenodd" d="M22.3067 12.709C24.428 10.8188 27.6031 10.8363 29.8922 12.5196C32.0311 14.0926 33.4961 16.5311 34.3653 19.7348L32.5919 19.819C31.9681 18.0776 30.9699 16.3859 29.5518 15.5112C27.9577 14.5279 25.9458 14.3936 24.3321 15.3447C22.7189 16.2958 22.2988 18.2277 22.8834 20.28L20.8549 20.3764C19.9941 17.0085 20.4015 14.4065 22.3067 12.709Z" fill="#51B4E8"/>
<path d="M29.892 12.5196L30.1419 12.1797L29.892 12.5196ZM22.3066 12.709L22.0259 12.394L22.3066 12.709ZM34.3652 19.7347L34.3852 20.156L34.9098 20.1312L34.7723 19.6242L34.3652 19.7347ZM32.5918 19.819L32.1946 19.9611L32.2998 20.2552L32.6117 20.2403L32.5918 19.819ZM29.5517 15.5112L29.3302 15.8702L29.5517 15.5112ZM24.332 15.3447L24.1177 14.9813L24.332 15.3447ZM22.8833 20.2799L22.9034 20.7014L23.4348 20.6762L23.2891 20.1645L22.8833 20.2799ZM20.8548 20.3764L20.446 20.4807L20.5312 20.814L20.8747 20.7977L20.8548 20.3764ZM30.1419 12.1797C27.7107 10.3918 24.3125 10.3566 22.0259 12.394L22.5871 13.0239C24.5435 11.2809 27.4952 11.2806 29.6422 12.8594L30.1419 12.1797ZM34.7723 19.6242C33.8864 16.3589 32.3797 13.8253 30.1419 12.1797L29.6422 12.8594C31.6822 14.3598 33.1056 16.7031 33.9579 19.8451L34.7723 19.6242ZM32.6117 20.2403L34.3852 20.156L34.3451 19.3133L32.5718 19.3975L32.6117 20.2403ZM29.3302 15.8702C30.6277 16.6705 31.5831 18.2541 32.1946 19.9611L32.9889 19.6767C32.353 17.9013 31.3119 16.1013 29.7732 15.1522L29.3302 15.8702ZM24.5462 15.7082C26.0077 14.8467 27.8512 14.9578 29.3302 15.8702L29.7732 15.1522C28.0639 14.0978 25.8837 13.9404 24.1177 14.9813L24.5462 15.7082ZM23.2891 20.1645C22.7331 18.2126 23.1631 16.5234 24.5462 15.7082L24.1177 14.9813C22.2742 16.0681 21.8643 18.2426 22.4776 20.3955L23.2891 20.1645ZM20.8747 20.7977L22.9034 20.7014L22.8633 19.8586L20.8347 19.9549L20.8747 20.7977ZM22.0259 12.394C19.9511 14.2426 19.5672 17.042 20.446 20.4807L21.2634 20.2719C20.421 16.975 20.8518 14.5703 22.5871 13.0239L22.0259 12.394Z" fill="#D4D9E3"/>
<path fill-rule="evenodd" clip-rule="evenodd" d="M37.4575 12.5196C39.7465 10.8363 42.9215 10.8188 45.043 12.709C46.948 14.4065 47.3554 17.0085 46.4948 20.3764L44.4661 20.28C45.0507 18.2276 44.6308 16.2958 43.0174 15.3449C41.4037 14.3936 39.392 14.5279 37.7977 15.5112C36.3796 16.3859 35.3815 18.0778 34.7577 19.819L32.9844 19.7348C33.8536 16.5311 35.3185 14.0926 37.4575 12.5196Z" fill="#51B4E8"/>
<path d="M45.0431 12.7089L45.3238 12.394L45.0431 12.7089ZM37.4576 12.5196L37.2076 12.1797L37.4576 12.5196ZM46.4949 20.3764L46.4748 20.7977L46.8185 20.814L46.9035 20.4807L46.4949 20.3764ZM44.4662 20.2799L44.0605 20.1645L43.9147 20.6762L44.4463 20.7014L44.4662 20.2799ZM43.0175 15.3448L43.2318 14.9813L43.0175 15.3448ZM37.7978 15.5112L38.0193 15.8702L37.7978 15.5112ZM34.7578 19.819L34.7378 20.2403L35.0497 20.2552L35.155 19.9611L34.7578 19.819ZM32.9845 19.7347L32.5772 19.6242L32.4397 20.1311L32.9644 20.156L32.9845 19.7347ZM45.3238 12.394C43.0371 10.3566 39.6389 10.3918 37.2076 12.1797L37.7075 12.8594C39.8544 11.2806 42.8061 11.2809 44.7624 13.0239L45.3238 12.394ZM46.9035 20.4807C47.7824 17.042 47.3985 14.2426 45.3238 12.394L44.7624 13.0239C46.4978 14.5703 46.9287 16.975 46.0861 20.2719L46.9035 20.4807ZM44.4463 20.7014L46.4748 20.7977L46.5149 19.9549L44.4862 19.8586L44.4463 20.7014ZM42.8033 15.7082C44.1864 16.5234 44.6164 18.2126 44.0605 20.1645L44.8719 20.3955C45.4852 18.2426 45.0753 16.0681 43.2318 14.9813L42.8033 15.7082ZM38.0193 15.8702C39.4984 14.9578 41.3418 14.8467 42.8033 15.7082L43.2318 14.9813C41.466 13.9404 39.2856 14.0978 37.5763 15.1522L38.0193 15.8702ZM35.155 19.9611C35.7665 18.2541 36.7219 16.6705 38.0193 15.8702L37.5763 15.1522C36.0376 16.1013 34.9967 17.9013 34.3606 19.6767L35.155 19.9611ZM32.9644 20.156L34.7378 20.2403L34.7779 19.3975L33.0044 19.3133L32.9644 20.156ZM37.2076 12.1797C34.9698 13.8253 33.4632 16.3589 32.5772 19.6242L33.3916 19.8451C34.2441 16.7031 35.6675 14.3596 37.7075 12.8594L37.2076 12.1797Z" fill="#D4D9E3"/>
<path d="M38.9119 19.9385L49.5802 13.6987C49.6518 13.6568 49.7339 13.636 49.8168 13.6387C49.8997 13.6413 49.9802 13.6674 50.0489 13.7139C50.1177 13.7603 50.172 13.8252 50.2055 13.9012C50.2389 13.9771 50.2503 14.0609 50.2381 14.143L49.9436 16.1384C49.9207 16.2941 49.949 16.4532 50.0242 16.5913C50.0996 16.7295 50.2177 16.8395 50.361 16.9046L52.1797 17.7313C52.2575 17.7666 52.3231 17.8237 52.369 17.8957C52.4148 17.9677 52.4387 18.0515 52.4377 18.1369C52.4369 18.2222 52.4112 18.3055 52.3638 18.3763C52.3165 18.4474 52.2496 18.5032 52.1711 18.5368L45.9995 21.1839" fill="#51B4E8"/>
<path d="M38.9119 19.9385L49.5802 13.6987C49.6518 13.6568 49.7339 13.636 49.8168 13.6387C49.8997 13.6413 49.9802 13.6674 50.0489 13.7139C50.1177 13.7603 50.172 13.8252 50.2055 13.9012C50.2389 13.9771 50.2503 14.0609 50.2381 14.143L49.9436 16.1384C49.9207 16.2941 49.949 16.4532 50.0242 16.5913C50.0996 16.7295 50.2177 16.8395 50.361 16.9046L52.1797 17.7313C52.2575 17.7666 52.3231 17.8237 52.369 17.8957C52.4148 17.9677 52.4387 18.0515 52.4377 18.1369C52.4369 18.2222 52.4112 18.3055 52.3638 18.3763C52.3165 18.4474 52.2496 18.5032 52.1711 18.5368L45.9995 21.1839" stroke="#D4D9E3" stroke-width="0.84375" stroke-miterlimit="10"/>
<path d="M12.3708 19.2061H54.7955C55.1323 19.2061 55.4657 19.2724 55.7768 19.4012C56.088 19.5302 56.3707 19.7191 56.6087 19.9571C56.8469 20.1954 57.0358 20.478 57.1646 20.7891C57.2936 21.1003 57.3598 21.4337 57.3598 21.7705V26.6114C57.3598 27.2914 57.0897 27.9438 56.6087 28.4247C56.1279 28.9055 55.4756 29.1758 54.7955 29.1758H12.3708C11.6907 29.1758 11.0384 28.9055 10.5575 28.4247C10.0766 27.9438 9.8064 27.2914 9.8064 26.6114V21.7705C9.8064 21.0903 10.0766 20.4381 10.5575 19.9571C11.0384 19.4762 11.6907 19.2061 12.3708 19.2061Z" fill="white" stroke="#D4D9E3" stroke-width="0.84375" stroke-miterlimit="10"/>
<path d="M36.9858 19.2061H29.8848V29.1758H36.9858V19.2061Z" fill="#51B4E8" stroke="#D4D9E3" stroke-width="0.84375" stroke-miterlimit="10"/>
<path d="M64.3227 48.3419C63.79 49.5705 62.0294 49.9379 61.1232 50.8141C60.1838 51.7225 59.7435 53.4586 58.5471 53.9313C57.3506 54.4041 55.8427 53.438 54.5362 53.4171C53.2757 53.397 51.7395 54.3324 50.5109 53.7997C49.2824 53.2672 48.9151 51.5064 48.0389 50.6002C47.1304 49.6608 45.3944 49.2207 44.9216 48.0242C44.4488 46.8278 45.4149 45.3197 45.4359 44.0132C45.456 42.7528 44.5206 41.2166 45.0532 39.9881C45.5858 38.7594 47.3466 38.3921 48.2527 37.5159C49.1921 36.6075 49.6323 34.8714 50.8287 34.3987C52.0252 33.9259 53.5332 34.8921 54.8398 34.9129C56.1002 34.9332 57.6364 33.9977 58.8649 34.5303C60.0935 35.063 60.4608 36.8236 61.3371 37.7298C62.2455 38.6692 63.9815 39.1095 64.4543 40.3059C64.9271 41.5023 63.9608 43.0103 63.94 44.3168C63.9198 45.5772 64.8552 47.1134 64.3227 48.3419Z" fill="#FF5722"/>
<path d="M51.2544 39.8795C51.3699 39.604 51.5236 39.3461 51.7108 39.1134C51.8787 38.9071 52.0858 38.7362 52.3201 38.6106C52.5696 38.4831 52.8484 38.4239 53.1281 38.4388C53.4739 38.4571 53.813 38.5407 54.1274 38.6857C54.8258 38.9885 55.2524 39.3938 55.4075 39.9016C55.5624 40.4095 55.504 40.9769 55.2322 41.604C55.1178 41.8765 54.9648 42.1312 54.7777 42.36C54.6076 42.5649 54.3997 42.7352 54.1652 42.8613C53.9141 42.9907 53.6333 43.0516 53.351 43.0378C52.6549 42.9893 51.9964 42.7038 51.4851 42.2289C51.2833 42.0326 51.137 41.7864 51.0608 41.5154C50.9933 41.2583 50.9764 40.9906 51.0112 40.727C51.0518 40.4345 51.1338 40.1491 51.2544 39.8795ZM52.4472 40.3966C52.1878 40.9951 52.3214 41.4084 52.848 41.6366C53.1338 41.7605 53.3754 41.7654 53.5728 41.6514C53.7788 41.5106 53.9408 41.3144 54.0401 41.0855C54.1394 40.8565 54.1717 40.6043 54.1337 40.3576C54.0813 40.1375 53.9121 39.9654 53.6264 39.8415C53.0996 39.6131 52.7065 39.7982 52.4472 40.3966ZM50.3993 46.7982C50.4411 46.7064 50.5041 46.6258 50.5831 46.5632L57.8822 40.7819C57.9616 40.7058 58.0625 40.6563 58.1711 40.64C58.3201 40.6173 58.4726 40.6448 58.6045 40.7178C58.7364 40.7907 58.8406 40.9052 58.9006 41.0434C58.934 41.1212 58.9509 41.2049 58.9499 41.2894C58.9489 41.3739 58.9303 41.4573 58.8953 41.5342C58.8571 41.6196 58.799 41.6945 58.7258 41.7529L51.4214 47.5473C51.3277 47.6213 51.2148 47.667 51.0961 47.679C50.9774 47.6908 50.8577 47.6686 50.7511 47.6147C50.5928 47.551 50.466 47.4275 50.398 47.2709C50.3646 47.1966 50.3473 47.1159 50.3474 47.0345C50.3477 46.9529 50.3654 46.8723 50.3993 46.7982ZM54.1088 46.7892C54.2281 46.5052 54.3853 46.2387 54.5764 45.9971C54.7471 45.7839 54.9582 45.6064 55.1977 45.4751C55.4493 45.3429 55.7312 45.2793 56.0152 45.2906C56.3614 45.3052 56.7016 45.3873 57.0164 45.5325C57.717 45.8364 58.1417 46.2477 58.2903 46.7669C58.4391 47.2862 58.3733 47.8692 58.0928 48.5162C57.8329 49.1155 57.466 49.5279 56.9918 49.7536C56.5176 49.9793 55.9323 49.9412 55.236 49.6393C54.9155 49.5089 54.6224 49.3195 54.372 49.0809C54.1696 48.8885 54.0203 48.6472 53.9383 48.3803C53.8663 48.1307 53.8453 47.8691 53.8767 47.6112C53.9137 47.3274 53.9918 47.0504 54.1088 46.7892ZM55.33 47.2408C55.0706 47.8393 55.2061 48.2534 55.737 48.4835C56.0228 48.6074 56.2643 48.6123 56.4618 48.4983C56.6678 48.3575 56.8298 48.1613 56.9291 47.9324C57.0282 47.7034 57.0607 47.4512 57.0226 47.2045C56.9701 46.9843 56.8011 46.8123 56.5154 46.6883C55.9845 46.4582 55.5894 46.6423 55.33 47.2408Z" fill="white"/>
<defs>
<linearGradient id="paint0_linear_2_13455" x1="36" y1="8.99998" x2="36" y2="65.025" gradientUnits="userSpaceOnUse">
<stop offset="0.00312487" stop-color="#05ADE5"/>
<stop offset="0.51875" stop-color="#A0CD69" stop-opacity="0.8"/>
<stop offset="1" stop-color="#A0CD69" stop-opacity="0"/>
</linearGradient>
</defs>
</svg>
