<svg width="20" height="20" viewBox="0 0 20 20" fill="none" xmlns="http://www.w3.org/2000/svg">
<path d="M16.2935 2.49759C16.0929 2.51219 15.8959 2.55926 15.7104 2.63696H15.7079C15.5298 2.70759 14.6829 3.06384 13.3954 3.60384L8.78164 5.54696C5.47102 6.94071 2.21664 8.31321 2.21664 8.31321L2.25539 8.29821C2.25539 8.29821 2.03102 8.37196 1.79664 8.53259C1.65185 8.62473 1.52725 8.74528 1.43039 8.88696C1.31539 9.05571 1.22289 9.31384 1.25727 9.58071C1.31352 10.032 1.60602 10.3026 1.81602 10.452C2.02852 10.6032 2.23102 10.6738 2.23102 10.6738H2.23602L5.28789 11.702C5.42477 12.1413 6.21789 14.7488 6.40852 15.3495C6.52102 15.7082 6.63039 15.9326 6.76727 16.1038C6.83352 16.1913 6.91102 16.2645 7.00414 16.3232C7.05256 16.3514 7.10418 16.3736 7.15789 16.3895L7.12664 16.382C7.13602 16.3845 7.14352 16.392 7.15039 16.3945C7.17539 16.4013 7.19227 16.4038 7.22414 16.4088C7.70727 16.5551 8.09539 16.2551 8.09539 16.2551L8.11727 16.2376L9.91914 14.597L12.9391 16.9138L13.0079 16.9432C13.6373 17.2195 14.2748 17.0657 14.6116 16.7945C14.951 16.5213 15.0829 16.172 15.0829 16.172L15.1048 16.1157L17.4385 4.16009C17.5048 3.86509 17.5216 3.58884 17.4485 3.32071C17.3731 3.04935 17.199 2.81597 16.9604 2.66634C16.76 2.54453 16.5277 2.48574 16.2935 2.49759V2.49759ZM16.2304 3.77884C16.2279 3.81821 16.2354 3.81384 16.2179 3.88946V3.89634L13.906 15.7276C13.896 15.7445 13.8791 15.7813 13.8329 15.8182C13.7841 15.857 13.7454 15.8813 13.5423 15.8007L9.84852 12.9688L7.61727 15.0026L8.08602 12.0088L14.121 6.38384C14.3698 6.15259 14.2866 6.10384 14.2866 6.10384C14.3041 5.82009 13.911 6.02071 13.911 6.02071L6.30102 10.7351L6.29852 10.7226L2.65102 9.49446V9.49196L2.64164 9.49009C2.64804 9.48797 2.6543 9.48546 2.66039 9.48259L2.68039 9.47259L2.69977 9.46571C2.69977 9.46571 5.95664 8.09321 9.26727 6.69946C10.9248 6.00134 12.5948 5.29821 13.8791 4.75571C15.1635 4.21634 16.1129 3.82071 16.1666 3.79946C16.2179 3.77946 16.1935 3.77946 16.2304 3.77946V3.77884Z" fill="#141F27"/>
</svg>
