<svg width="20" height="20" viewBox="0 0 20 20" fill="none" xmlns="http://www.w3.org/2000/svg">
<path d="M10 0C4.47711 0 0 4.47711 0 10C0 15.5229 4.47711 20 10 20C15.5229 20 20 15.5229 20 10C20 4.47711 15.5229 0 10 0Z" fill="#40B3E0"/>
<path d="M14.8654 5.75235L13.0792 14.7577C13.0792 14.7577 12.8295 15.3823 12.1425 15.0825L8.02078 11.9225L6.52203 11.1981L3.99906 10.3488C3.99906 10.3488 3.61188 10.2114 3.57438 9.91165C3.53688 9.61189 4.01156 9.44954 4.01156 9.44954L14.0409 5.51517C14.0409 5.51517 14.8653 5.15298 14.8653 5.75251" fill="white"/>
<path d="M7.70449 14.6565C7.70449 14.6565 7.58418 14.6452 7.43418 14.1705C7.28441 13.6959 6.52246 11.198 6.52246 11.198L12.5801 7.35109C12.5801 7.35109 12.9299 7.13875 12.9174 7.35109C12.9174 7.35109 12.9798 7.38859 12.7924 7.56343C12.6051 7.73835 8.03379 11.8475 8.03379 11.8475" fill="#D2E5F1"/>
<path d="M9.60121 13.1339L7.97098 14.6204C7.97098 14.6204 7.84348 14.7171 7.7041 14.6564L8.01629 11.8955" fill="#B5CFE4"/>
</svg>
