<svg width="20" height="20" viewBox="0 0 20 20" fill="none" xmlns="http://www.w3.org/2000/svg">
<path d="M9.75529 1.66797C8.45846 1.68681 5.67233 1.89947 4.11573 3.32821C2.95955 4.48573 2.55172 6.17693 2.50932 8.27461C2.46693 10.3716 2.41174 14.3038 6.20196 15.3698H6.20398L6.20129 16.9957C6.20129 16.9957 6.17639 17.6532 6.61181 17.7878C7.13471 17.9507 7.44226 17.4514 7.9443 16.9116C8.21821 16.6155 8.59844 16.1821 8.88446 15.8483C11.4754 16.0677 13.4688 15.5684 13.6963 15.495C14.2185 15.3254 17.1796 14.9459 17.6615 11.015C18.1595 6.96364 17.4192 4.39959 16.0867 3.24476C15.6856 2.87462 14.0637 1.69691 10.4505 1.68143C10.4505 1.68143 10.1847 1.6646 9.7526 1.66999L9.75529 1.66797ZM9.79432 2.80732C10.1611 2.80463 10.3865 2.81876 10.3865 2.81876C13.4432 2.83222 14.9069 3.75286 15.2468 4.06108C16.374 5.02681 16.9494 7.33715 16.5295 10.7216V10.7229C16.123 14.0057 13.7205 14.2116 13.2777 14.3536C13.0892 14.4142 11.3381 14.8496 9.13682 14.7063C9.13682 14.7063 7.49745 16.6848 6.98531 17.199C6.90455 17.2797 6.81033 17.3114 6.74842 17.2959C6.66093 17.2737 6.63671 17.1694 6.63738 17.0173L6.65084 14.3133C3.44611 13.4249 3.63253 10.0789 3.66954 8.3271C3.70588 6.57466 4.03497 5.13852 5.01281 4.1728C6.33185 2.97961 8.6967 2.81473 9.79769 2.80665L9.79432 2.80732ZM10.0501 4.55842C9.99788 4.56105 9.94869 4.58354 9.91256 4.62128C9.87644 4.65902 9.85612 4.70915 9.85578 4.76139C9.85544 4.81363 9.87509 4.86403 9.91071 4.90224C9.94634 4.94046 9.99523 4.96359 10.0474 4.96691C11.1403 4.97364 12.03 5.3283 12.7581 6.0383C13.4802 6.74223 13.8484 7.69921 13.8571 8.95499C13.8584 9.06738 13.9513 9.15688 14.0637 9.15688C14.1175 9.15618 14.1688 9.13431 14.2066 9.09602C14.2444 9.05773 14.2656 9.00609 14.2656 8.9523C14.2562 7.61711 13.8497 6.53226 13.0435 5.74622C12.2426 4.96557 11.2318 4.56649 10.0507 4.55842H10.0501ZM7.38506 5.02614C7.24198 5.00633 7.09635 5.03398 6.9705 5.10487L6.96377 5.10622C6.67439 5.27245 6.41462 5.48443 6.19254 5.73344C6.19119 5.73613 6.1885 5.73613 6.18716 5.73882C6.00747 5.95619 5.9045 6.16818 5.87759 6.37681C5.87231 6.40792 5.87073 6.43954 5.87287 6.47102C5.87287 6.56255 5.88768 6.65273 5.91662 6.74021L5.92537 6.74694C6.01622 7.06997 6.24369 7.60567 6.73631 8.49938C7.01896 9.01623 7.34401 9.50885 7.70943 9.97051C7.89114 10.202 8.0863 10.4234 8.29493 10.6327L8.38376 10.7216C8.59238 10.9288 8.81447 11.1253 9.04597 11.3071C9.50802 11.6726 10.0001 11.9983 10.5171 12.2809C11.4108 12.7741 11.9479 13.0009 12.2695 13.0925L12.2763 13.1019C12.3933 13.1402 12.5173 13.1528 12.6397 13.1389C12.8483 13.1147 13.0616 13.011 13.2777 12.8293C13.2804 12.8293 13.2797 12.828 13.2831 12.826C13.5321 12.6039 13.7427 12.3414 13.9089 12.0534L13.9109 12.0467C14.0624 11.7559 14.0119 11.48 13.7898 11.2929C13.7871 11.2929 13.3201 10.9026 13.0919 10.7343C12.8497 10.5627 12.6006 10.4032 12.3429 10.2565C11.9997 10.0647 11.6484 10.1852 11.503 10.3736L11.2022 10.7532C11.0474 10.9436 10.76 10.9187 10.76 10.9187C8.66035 10.3831 8.09842 8.25711 8.09842 8.25711C8.09842 8.25711 8.07352 7.97042 8.26532 7.81564L8.6442 7.51414C8.83062 7.36945 8.95108 7.01815 8.75861 6.67426C8.61244 6.41603 8.45295 6.16557 8.28079 5.92389C8.10006 5.68739 7.91382 5.45515 7.72222 5.22736C7.63783 5.12167 7.51764 5.05057 7.38439 5.02748L7.38506 5.02614ZM10.4067 5.61836C10.3527 5.61675 10.3002 5.63669 10.2608 5.6738C10.2214 5.7109 10.1984 5.76213 10.1968 5.81621C10.1952 5.87029 10.2151 5.9228 10.2522 5.96218C10.2893 6.00155 10.3405 6.02458 10.3946 6.02618C11.1753 6.08339 11.752 6.33979 12.1747 6.80011C12.5986 7.26312 12.8005 7.82573 12.7844 8.52967C12.7873 8.58142 12.8097 8.63016 12.847 8.66617C12.8843 8.70217 12.9338 8.72278 12.9856 8.72388C13.0374 8.72498 13.0877 8.7065 13.1265 8.67212C13.1653 8.63774 13.1897 8.59 13.1949 8.53841C13.2117 7.74766 12.9701 7.06257 12.4768 6.52351C11.9788 5.9784 11.2809 5.68027 10.4242 5.61768H10.4081L10.4067 5.61836ZM10.7183 6.71531C10.6665 6.71607 10.6169 6.73641 10.5794 6.77223C10.542 6.80806 10.5195 6.85672 10.5164 6.90846C10.511 7.02085 10.5972 7.11708 10.7102 7.12381C11.0622 7.14266 11.2991 7.24158 11.4593 7.40781C11.6208 7.57269 11.7204 7.82506 11.7392 8.19116C11.7462 8.2419 11.7719 8.28819 11.8113 8.3209C11.8507 8.35361 11.9009 8.37034 11.9521 8.36781C12.0032 8.36527 12.0516 8.34365 12.0875 8.3072C12.1235 8.27076 12.1445 8.22214 12.1464 8.17097C12.1262 7.73757 12.0017 7.3782 11.7561 7.12314C11.5091 6.86875 11.1551 6.73685 10.7331 6.71464H10.721L10.7183 6.71531Z" fill="#141F27"/>
</svg>
