<svg width="20" height="20" viewBox="0 0 20 20" fill="none" xmlns="http://www.w3.org/2000/svg">
<path d="M6.3476 7.26L9.01843 5.32C9.31826 5.10059 9.68293 4.98793 10.0543 5C10.5072 5.01129 10.9453 5.16342 11.3078 5.43524C11.6703 5.70705 11.939 6.08504 12.0768 6.51667C12.2318 7.0025 12.3734 7.33083 12.5018 7.50167C12.8895 8.019 13.3925 8.43884 13.9709 8.72786C14.5492 9.01688 15.1869 9.16712 15.8334 9.16667V10.8333C14.9728 10.8343 14.1228 10.6444 13.3444 10.2774C12.5659 9.91038 11.8786 9.37535 11.3318 8.71083L10.7509 12.0067L12.4684 13.4483L14.3209 18.5383L12.7543 19.1083L11.0543 14.4383L8.22927 12.0675C7.99743 11.8803 7.82003 11.6344 7.71553 11.3553C7.61103 11.0762 7.58326 10.7743 7.6351 10.4808L8.05927 8.07667L7.4951 8.48667L5.7226 10.9267L4.37427 9.94667L6.33343 7.25L6.3476 7.26ZM11.2501 4.58333C10.8081 4.58333 10.3842 4.40774 10.0716 4.09518C9.75903 3.78262 9.58343 3.35869 9.58343 2.91667C9.58343 2.47464 9.75903 2.05072 10.0716 1.73816C10.3842 1.42559 10.8081 1.25 11.2501 1.25C11.6921 1.25 12.1161 1.42559 12.4286 1.73816C12.7412 2.05072 12.9168 2.47464 12.9168 2.91667C12.9168 3.35869 12.7412 3.78262 12.4286 4.09518C12.1161 4.40774 11.6921 4.58333 11.2501 4.58333ZM8.77343 15.5675L6.0951 18.7592L4.81843 17.6883L7.29843 14.7333L7.9201 12.9167L9.4126 14.1667L8.77343 15.5675Z" fill="#757575"/>
</svg>
