<svg width="20" height="20" viewBox="0 0 20 20" fill="none" xmlns="http://www.w3.org/2000/svg">
<path fill-rule="evenodd" clip-rule="evenodd" d="M13.6659 11.6342C13.4662 11.5344 12.4876 11.0534 12.3054 10.9864C12.1231 10.9201 11.9905 10.8873 11.8572 11.0869C11.7246 11.2852 11.3434 11.734 11.2275 11.8666C11.111 11.9999 10.9951 12.016 10.7961 11.9169C10.5972 11.8164 9.95543 11.6067 9.19513 10.9288C8.60363 10.4009 8.20371 9.74914 8.08782 9.54952C7.97193 9.35056 8.0751 9.24271 8.17491 9.14357C8.26467 9.05448 8.37386 8.91113 8.47367 8.79524C8.57348 8.67868 8.60631 8.59562 8.67262 8.46231C8.73961 8.32968 8.70612 8.21379 8.65588 8.11398C8.60631 8.01416 8.2084 7.03414 8.04227 6.63556C7.88083 6.2477 7.71671 6.30062 7.5948 6.29393C7.47824 6.28857 7.3456 6.28723 7.21297 6.28723C7.08033 6.28723 6.86463 6.3368 6.68243 6.53642C6.49955 6.73537 5.98576 7.21701 5.98576 8.19704C5.98576 9.1764 6.6985 10.1229 6.79831 10.2562C6.89813 10.3889 8.2017 12.3998 10.1986 13.262C10.6742 13.4669 11.0447 13.5895 11.3334 13.6806C11.8103 13.8327 12.2444 13.8113 12.5874 13.7597C12.9692 13.7027 13.765 13.278 13.9311 12.8131C14.0966 12.3483 14.0966 11.9497 14.047 11.8666C13.9975 11.7836 13.8648 11.734 13.6652 11.6342H13.6659ZM10.0338 16.5933H10.0311C8.84507 16.5935 7.68079 16.2746 6.66032 15.6702L6.41916 15.5268L3.91249 16.1846L4.5817 13.7409L4.42428 13.4904C3.76119 12.4349 3.41028 11.2133 3.4121 9.96685C3.41344 6.31603 6.38366 3.34581 10.0365 3.34581C11.805 3.34581 13.4676 4.03578 14.7176 5.2871C15.3341 5.9011 15.8228 6.63125 16.1553 7.43532C16.4878 8.2394 16.6576 9.10142 16.6549 9.97154C16.6535 13.6224 13.6833 16.5933 10.0338 16.5933ZM15.6688 4.33655C14.9307 3.59361 14.0525 3.00453 13.0851 2.60345C12.1178 2.20237 11.0804 1.99727 10.0331 2.00003C5.64278 2.00003 2.06833 5.57381 2.06699 9.96618C2.06632 11.3702 2.43274 12.7408 3.13008 13.9486L2 18.077L6.22289 16.9691C7.39107 17.6055 8.70015 17.939 10.0305 17.939H10.0338C14.4242 17.939 17.9986 14.3652 18 9.97221C18.0032 8.92538 17.7988 7.88829 17.3987 6.92095C16.9986 5.95361 16.4106 5.0752 15.6688 4.33655Z" fill="#141F27"/>
</svg>
