<svg width="20" height="20" viewBox="0 0 20 20" fill="none" xmlns="http://www.w3.org/2000/svg">
<path fill-rule="evenodd" clip-rule="evenodd" d="M10.6853 2.46626C12.5426 2.55754 14.2733 3.32346 15.5952 4.64622C17.0052 6.0571 17.7813 7.93255 17.7805 9.927C17.7788 14.0427 14.4283 17.3915 10.3123 17.3915C8.76449 17.3915 7.5345 16.9159 6.7403 16.4829L2.78125 17.5209L3.84078 13.6528C3.18723 12.5208 2.84333 11.2367 2.84387 9.92108C2.84552 5.80545 6.19579 2.45703 10.3122 2.45703L10.6853 2.46626ZM6.92371 15.1316L7.15041 15.266C8.10345 15.8313 9.1959 16.1304 10.3098 16.1308H10.3123C13.7336 16.1308 16.5182 13.3476 16.5195 9.92657C16.5202 8.26881 15.8752 6.71001 14.7032 5.53731C13.5312 4.36455 11.9727 3.71832 10.3147 3.71778C6.8908 3.71778 4.10618 6.50077 4.10481 9.92151C4.10435 11.0938 4.43251 12.2356 5.05387 13.2233L5.20146 13.4581L4.57438 15.7475L6.92371 15.1316ZM14.0747 11.702C14.0281 11.6242 13.9037 11.5775 13.7171 11.4842C13.5305 11.3908 12.6131 10.9396 12.442 10.8773C12.271 10.8152 12.1465 10.7841 12.0222 10.9707C11.8978 11.1574 11.5402 11.5775 11.4313 11.702C11.3224 11.8265 11.2136 11.8421 11.027 11.7487C10.8404 11.6554 10.2391 11.4584 9.52636 10.823C8.9716 10.3284 8.5971 9.71765 8.48824 9.53092C8.37941 9.34423 8.47663 9.24325 8.57004 9.15028C8.654 9.06668 8.75668 8.93242 8.84999 8.8235C8.94329 8.71462 8.97437 8.63677 9.0366 8.51235C9.09879 8.38785 9.06767 8.27897 9.02104 8.18561C8.97437 8.0922 8.60119 7.17414 8.4457 6.80068C8.29419 6.43703 8.14035 6.48626 8.02581 6.48051C7.9171 6.47513 7.79258 6.47394 7.66819 6.47394C7.54378 6.47394 7.34161 6.52059 7.17056 6.70735C6.99951 6.89405 6.51744 7.34532 6.51744 8.26331C6.51744 9.18141 7.18612 10.0682 7.27943 10.1927C7.37273 10.3173 8.59526 12.2011 10.4672 13.009C10.9124 13.2012 11.26 13.316 11.531 13.4019C11.978 13.5439 12.3848 13.5239 12.7064 13.4758C13.0649 13.4223 13.8104 13.0246 13.9659 12.589C14.1214 12.1532 14.1214 11.7798 14.0747 11.702Z" fill="white"/>
<mask id="mask0_322_59926" style="mask-type:alpha" maskUnits="userSpaceOnUse" x="4" y="3" width="13" height="14">
<path fill-rule="evenodd" clip-rule="evenodd" d="M6.92241 15.1326L7.14911 15.267C8.10216 15.8323 9.1946 16.1314 10.3085 16.1318H10.311C13.7323 16.1318 16.5169 13.3485 16.5182 9.92754C16.5189 8.26978 15.8739 6.71098 14.7019 5.53829C13.5299 4.36552 11.9714 3.71929 10.3134 3.71875C6.8895 3.71875 4.10488 6.50174 4.10352 9.92248C4.10305 11.0948 4.43121 12.2365 5.05257 13.2243L5.20016 13.4591L4.57309 15.7485L6.92241 15.1326ZM14.0734 11.703C14.0268 11.6252 13.9024 11.5785 13.7158 11.4852C13.5292 11.3918 12.6118 10.9406 12.4407 10.8783C12.2697 10.8161 12.1452 10.785 12.0209 10.9717C11.8965 11.1584 11.5389 11.5785 11.43 11.703C11.3211 11.8275 11.2123 11.8431 11.0257 11.7497C10.8391 11.6564 10.2378 11.4594 9.52506 10.824C8.97031 10.3294 8.5958 9.71862 8.48694 9.53189C8.37812 9.3452 8.47533 9.24422 8.56874 9.15125C8.65271 9.06765 8.75539 8.93339 8.84869 8.82447C8.94199 8.7156 8.97307 8.63774 9.0353 8.51332C9.09749 8.38882 9.06638 8.27994 9.01974 8.18658C8.97307 8.09318 8.59989 7.17511 8.4444 6.80165C8.2929 6.438 8.13905 6.48723 8.02452 6.48148C7.9158 6.4761 7.79128 6.47491 7.6669 6.47491C7.54248 6.47491 7.34032 6.52156 7.16927 6.70832C6.99822 6.89502 6.51615 7.34629 6.51615 8.26429C6.51615 9.18238 7.18482 10.0692 7.27813 10.1937C7.37143 10.3182 8.59397 12.2021 10.4659 13.01C10.9111 13.2022 11.2587 13.3169 11.5297 13.4029C11.9767 13.5449 12.3835 13.5249 12.7051 13.4768C13.0636 13.4233 13.8091 13.0256 13.9646 12.59C14.1201 12.1542 14.1201 11.7808 14.0734 11.703Z" fill="black"/>
</mask>
<g mask="url(#mask0_322_59926)">
<path d="M20.5653 -0.414062H-0.417969V20.5693H20.5653V-0.414062Z" fill="url(#paint0_linear_322_59926)"/>
</g>
<defs>
<linearGradient id="paint0_linear_322_59926" x1="10.0737" y1="20.5693" x2="10.0737" y2="-0.414062" gradientUnits="userSpaceOnUse">
<stop stop-color="#25CF43"/>
<stop offset="1" stop-color="#61FD7D"/>
</linearGradient>
</defs>
</svg>
