<svg width="20" height="20" viewBox="0 0 20 20" fill="none" xmlns="http://www.w3.org/2000/svg">
<path d="M10 3C13.866 3 17 6.13401 17 10C17 13.866 13.866 17 10 17C6.13401 17 3 13.866 3 10C3 6.13401 6.13401 3 10 3Z" fill="#7F4DA0" stroke="white" stroke-width="1.63333"/>
<path d="M11.8648 9.11431C11.8307 8.83772 11.7457 8.62054 11.5947 8.42817C11.3987 8.18046 11.1482 8.03213 10.7773 7.94414C10.5355 7.8855 10.4379 7.89223 10.3504 7.97208C10.269 8.0469 10.2531 8.19689 10.3153 8.29401C10.3591 8.36451 10.4096 8.38977 10.55 8.41733C10.737 8.45173 10.8662 8.49638 10.9838 8.56359C11.2333 8.70766 11.3495 8.9331 11.3619 9.29808C11.3677 9.46944 11.3825 9.52213 11.4424 9.58291C11.5533 9.69401 11.7508 9.6724 11.8345 9.53945C11.8652 9.48934 11.8699 9.46752 11.8732 9.35116C11.8753 9.27912 11.8722 9.17189 11.8648 9.11431Z" fill="white"/>
<path d="M12.8416 9.42386C12.7923 8.57646 12.4608 7.89468 11.8676 7.415C11.5334 7.14547 11.1294 6.96013 10.6866 6.87C10.5244 6.83776 10.2258 6.81163 10.1745 6.82658C10.1262 6.84042 10.0578 6.89277 10.0273 6.94011C9.99507 6.99145 9.9878 7.10608 10.0153 7.17238C10.0597 7.28322 10.1422 7.32238 10.3735 7.34261C10.7299 7.3738 11.0975 7.49903 11.3753 7.68442C11.6925 7.89551 11.9446 8.18423 12.1077 8.5235C12.2486 8.81501 12.3352 9.2351 12.3328 9.61128C12.332 9.74734 12.3531 9.82418 12.4078 9.88035C12.4904 9.96673 12.6107 9.98562 12.717 9.92825C12.8347 9.86632 12.8623 9.75762 12.8416 9.42386Z" fill="white"/>
<path d="M13.923 12.6896C13.9064 12.6412 13.8677 12.5664 13.8401 12.5235C13.666 12.2607 12.7307 11.5287 12.2637 11.2894C11.9971 11.1524 11.7996 11.1067 11.6531 11.1496C11.4956 11.1939 11.4127 11.2672 11.1488 11.5951C11.0425 11.7266 10.9333 11.8497 10.9043 11.8691C10.8325 11.9189 10.6916 11.959 10.5921 11.959C10.3614 11.9576 9.94277 11.8082 9.62087 11.6117C9.37081 11.4596 9.05032 11.187 8.80439 10.9172C8.51426 10.6003 8.31672 10.3208 8.16059 10.0054C7.9589 9.59996 7.90778 9.35228 7.99204 9.17102C8.01277 9.12537 8.0404 9.07695 8.05282 9.06171C8.06526 9.0479 8.19514 8.94135 8.3388 8.82512C8.62065 8.60098 8.66623 8.54979 8.71873 8.3962C8.78504 8.2011 8.76709 8.00186 8.66485 7.80124C8.5861 7.64904 8.38025 7.31697 8.23105 7.10251C8.03349 6.82026 7.54167 6.217 7.44356 6.13535C7.26673 5.99146 7.04018 5.96654 6.7901 6.06342C6.52625 6.16581 6.03164 6.56429 5.82026 6.8424C5.62961 7.09421 5.55641 7.27269 5.54535 7.50791C5.53569 7.70161 5.55226 7.78186 5.65449 8.02954C6.4544 9.97215 7.64803 11.5232 9.28793 12.7546C10.1445 13.398 11.0328 13.8878 11.9543 14.2227C12.4917 14.4177 12.7252 14.4274 13.0001 14.2669C13.1161 14.1977 13.4035 13.903 13.5638 13.6886C13.829 13.3316 13.9271 13.1669 13.9547 13.0355C13.9741 12.9456 13.9589 12.7892 13.923 12.6896Z" fill="white"/>
<path d="M13.8368 9.6198C13.8191 9.14046 13.7384 8.74729 13.5701 8.30894C13.404 7.87774 13.2358 7.59636 12.9183 7.21579C12.618 6.85896 12.3848 6.65522 12.015 6.42842C11.499 6.11243 10.871 5.90332 10.1673 5.81538C9.92731 5.78464 9.87301 5.78684 9.79939 5.83597C9.65671 5.92903 9.65861 6.16116 9.80174 6.25283C9.84912 6.28199 9.89116 6.29262 10.0831 6.31775C10.3778 6.35742 10.5673 6.39481 10.7922 6.45616C11.6739 6.69719 12.3519 7.18985 12.8052 7.9212C13.1846 8.53078 13.342 9.14041 13.3197 9.919C13.3119 10.1822 13.3176 10.2285 13.3578 10.2918C13.4348 10.4097 13.638 10.433 13.7423 10.3352C13.8072 10.2756 13.8194 10.2308 13.8322 10.0055C13.8383 9.88799 13.8396 9.7145 13.8368 9.6198Z" fill="white"/>
</svg>
