<svg width="20" height="20" viewBox="0 0 20 20" fill="none" xmlns="http://www.w3.org/2000/svg">
<path fill-rule="evenodd" clip-rule="evenodd" d="M19.1613 9.81298C19.1613 4.19176 17.1811 1.61328 10.5806 1.61328C3.98015 1.61328 2 4.19176 2 9.81298C2 13.8134 3.00289 16.2728 5.9603 17.3585V19.2511C5.9603 19.9477 6.83439 20.2659 7.28717 19.7341L8.81326 17.9417C9.36176 17.9891 9.95012 18.0127 10.5806 18.0127C17.1811 18.0127 19.1613 15.4342 19.1613 9.81298ZM9.17787 16.6488C9.61541 16.6835 10.0825 16.7007 10.5806 16.7007C16.1657 16.7007 17.8412 14.5348 17.8412 9.81298C17.8412 5.09116 16.1657 2.92523 10.5806 2.92523C4.99561 2.92523 3.3201 5.09116 3.3201 9.81298C3.3201 13.1505 4.15721 15.2111 6.62035 16.1324V18.9363C6.62035 19.1807 6.92705 19.2924 7.08592 19.1058L9.17787 16.6488Z" fill="#BFC8D0"/>
<path d="M10.5804 16.2343C10.0758 16.2343 9.60265 16.2168 9.15943 16.1815L7.04031 18.6799C6.87938 18.8697 6.56869 18.7562 6.56869 18.5076V15.6565C4.07356 14.7196 3.22559 12.6243 3.22559 9.23044C3.22559 4.42901 4.92286 2.22656 10.5804 2.22656C16.238 2.22656 17.9353 4.42901 17.9353 9.23044C17.9353 14.0319 16.238 16.2343 10.5804 16.2343Z" fill="#9179EE"/>
<path fill-rule="evenodd" clip-rule="evenodd" d="M19.1613 9.1997C19.1613 3.57848 17.1811 1 10.5806 1C3.98015 1 2 3.57848 2 9.1997C2 13.2001 3.00289 15.6595 5.9603 16.7452V18.6378C5.9603 19.3344 6.83439 19.6526 7.28717 19.1208L8.81326 17.3284C9.36176 17.3759 9.95012 17.3994 10.5806 17.3994C17.1811 17.3994 19.1613 14.8209 19.1613 9.1997ZM9.17787 16.0355C9.61541 16.0702 10.0825 16.0874 10.5806 16.0874C16.1657 16.0874 17.8412 13.9215 17.8412 9.1997C17.8412 4.47787 16.1657 2.31195 10.5806 2.31195C4.99561 2.31195 3.3201 4.47787 3.3201 9.1997C3.3201 12.5372 4.15721 14.5978 6.62035 15.5192V18.323C6.62035 18.5675 6.92705 18.6791 7.08592 18.4925L9.17787 16.0355Z" fill="white"/>
<path d="M6.60927 5.37431C6.66528 5.34721 6.75303 5.32332 6.83927 5.32193C6.92769 5.32051 6.97376 5.34247 6.99218 5.35862C7.22226 5.56037 7.57889 5.9165 7.81917 6.22084C7.9433 6.37806 8.09332 6.57777 8.21832 6.75132C8.28082 6.8381 8.33596 6.91679 8.37793 6.97936C8.39896 7.01072 8.41574 7.03663 8.4281 7.05666C8.43656 7.07038 8.4411 7.07838 8.44303 7.08183C8.44406 7.08529 8.44877 7.10018 8.45292 7.12721C8.45814 7.1612 8.46064 7.20307 8.45709 7.24681C8.44983 7.33632 8.42041 7.40819 8.36748 7.45665C8.18793 7.62109 7.94449 7.77338 7.849 7.82625L7.82409 7.84005L7.80214 7.85821C7.63262 7.99844 7.37851 8.38334 7.60111 8.8591C7.78658 9.25552 8.19987 10.0651 8.92605 10.6751C9.63623 11.2717 10.3946 11.5926 10.8927 11.6976L10.924 11.7042H10.9525C10.9539 11.7044 10.9569 11.7047 10.9617 11.7054C10.9736 11.707 10.9879 11.7095 11.0103 11.7134C11.0142 11.7141 11.0182 11.7148 11.0224 11.7155C11.1756 11.7427 11.5431 11.8076 11.851 11.5008C12.0488 11.3038 12.2292 11.0984 12.3068 11.006C12.3614 10.9562 12.5392 10.8532 12.7641 10.9292C13.1901 11.0732 13.6965 11.398 13.9413 11.5627C14.1309 11.6903 14.5598 11.9976 14.7532 12.1373L14.7533 12.1374C14.7694 12.149 14.8071 12.1869 14.8275 12.2397C14.8438 12.2819 14.8525 12.3399 14.8133 12.4238C14.7407 12.5793 14.5194 12.8763 14.2199 13.136C13.9148 13.4006 13.5974 13.5664 13.3431 13.5664C13.344 13.5664 13.3431 13.5663 13.3402 13.5659C13.3289 13.5644 13.2867 13.5587 13.2033 13.54C13.1095 13.5189 12.9828 13.4858 12.828 13.4393C12.5187 13.3462 12.1036 13.2011 11.6243 12.9949C10.6648 12.5821 9.45701 11.9285 8.32621 10.966C7.61493 10.3606 6.94384 9.52343 6.4213 8.73983C5.89437 7.94965 5.54188 7.24931 5.44595 6.92589L5.43923 6.90326L5.42913 6.88192C5.40525 6.83147 5.37159 6.72365 5.37092 6.60139C5.37026 6.48329 5.39986 6.37045 5.47795 6.27688C5.73538 5.96838 6.00794 5.66522 6.60927 5.37431ZM6.60927 5.37431L6.47582 5.09844M6.60927 5.37431L6.47582 5.09844M6.47582 5.09844C5.81965 5.41589 5.51418 5.75516 5.24265 6.08054C4.97113 6.40592 5.06918 6.83778 5.15215 7.01304L7.99747 8.09434C8.10495 8.03482 8.37081 7.86915 8.57446 7.68265C8.82901 7.44953 8.77244 7.06264 8.72153 6.95352C8.67062 6.84439 8.31425 6.35334 8.0597 6.03094C7.80514 5.70853 7.43463 5.33901 7.19422 5.1282C7.00189 4.95956 6.66634 5.00628 6.47582 5.09844ZM10.7501 4.38274C10.7503 4.38257 10.7505 4.3824 10.7507 4.38222C10.7551 4.37808 10.7641 4.37286 10.7783 4.37286C13.225 4.37286 15.1764 6.23476 15.1774 8.49342C15.177 8.49396 15.1763 8.49472 15.1753 8.49565C15.1709 8.49979 15.1619 8.50501 15.1477 8.50501C15.1335 8.50501 15.1245 8.49979 15.1201 8.49565C15.1191 8.49472 15.1184 8.49395 15.118 8.49342C15.1171 6.21124 13.1567 4.39263 10.7783 4.39263C10.7641 4.39263 10.7551 4.38741 10.7507 4.38327C10.7505 4.38309 10.7503 4.38291 10.7501 4.38274ZM10.7507 6.91397C10.7505 6.91378 10.7503 6.91361 10.7501 6.91344C10.7503 6.91327 10.7505 6.9131 10.7507 6.91291C10.7551 6.90878 10.7641 6.90356 10.7783 6.90356C11.7399 6.90356 12.4875 7.6324 12.4885 8.49342C12.4881 8.49396 12.4875 8.49472 12.4865 8.49565C12.4821 8.49979 12.473 8.50501 12.4588 8.50501C12.4447 8.50501 12.4356 8.49979 12.4312 8.49565C12.4302 8.49472 12.4296 8.49396 12.4292 8.49342C12.4282 7.60893 11.6717 6.92333 10.7783 6.92333C10.7641 6.92333 10.7551 6.9181 10.7507 6.91397ZM10.7507 5.64862C10.7505 5.64844 10.7503 5.64826 10.7501 5.64809C10.7503 5.64792 10.7505 5.64775 10.7507 5.64757C10.7551 5.64343 10.7641 5.63821 10.7783 5.63821C12.4825 5.63821 13.8319 6.93359 13.8329 8.49342C13.8325 8.49395 13.8319 8.49472 13.8309 8.49565C13.8265 8.49979 13.8174 8.50501 13.8033 8.50501C13.7891 8.50501 13.78 8.49979 13.7756 8.49565C13.7746 8.49472 13.774 8.49395 13.7736 8.49342C13.7726 6.91008 12.4142 5.65798 10.7783 5.65798C10.7641 5.65798 10.7551 5.65275 10.7507 5.64862Z" fill="white" stroke="white" stroke-width="0.612903" stroke-linecap="round"/>
</svg>
