<svg width="20" height="20" viewBox="0 0 20 20" fill="none" xmlns="http://www.w3.org/2000/svg">
<path d="M16 9.95691C16 9.92305 16 9.88458 15.9985 9.83995C15.9971 9.7153 15.9942 9.57525 15.9913 9.42598C15.9797 8.99661 15.9594 8.56879 15.9275 8.16559C15.8839 7.61003 15.8201 7.14681 15.733 6.79901C15.6412 6.43606 15.4611 6.10503 15.2108 5.83902C14.9605 5.57301 14.6488 5.38134 14.3068 5.28316C13.8962 5.1662 13.0924 5.09387 11.9607 5.04925C11.4224 5.0277 10.8464 5.01385 10.2704 5.00616C10.0687 5.00308 9.88158 5.00154 9.71328 5H9.28672C9.11841 5.00154 8.93125 5.00308 8.72958 5.00616C8.15357 5.01385 7.57757 5.0277 7.03929 5.04925C5.90759 5.09541 5.10234 5.16774 4.69319 5.28316C4.35107 5.3811 4.03923 5.57269 3.78891 5.83874C3.5386 6.10478 3.3586 6.43594 3.26696 6.79901C3.17846 7.14681 3.11607 7.61003 3.07254 8.16559C3.04062 8.56879 3.02031 8.99661 3.00871 9.42598C3.00435 9.57525 3.0029 9.7153 3.00145 9.83995C3.00145 9.88458 3 9.92305 3 9.95691V10.0431C3 10.0769 3 10.1154 3.00145 10.16C3.0029 10.2847 3.0058 10.4247 3.00871 10.574C3.02031 11.0034 3.04062 11.4312 3.07254 11.8344C3.11607 12.39 3.17991 12.8532 3.26696 13.201C3.45268 13.9381 3.99821 14.5199 4.69319 14.7168C5.10234 14.8338 5.90759 14.9061 7.03929 14.9508C7.57757 14.9723 8.15357 14.9861 8.72958 14.9938C8.93125 14.9969 9.11841 14.9985 9.28672 15H9.71328C9.88158 14.9985 10.0687 14.9969 10.2704 14.9938C10.8464 14.9861 11.4224 14.9723 11.9607 14.9508C13.0924 14.9046 13.8977 14.8323 14.3068 14.7168C15.0018 14.5199 15.5473 13.9397 15.733 13.201C15.8215 12.8532 15.8839 12.39 15.9275 11.8344C15.9594 11.4312 15.9797 11.0034 15.9913 10.574C15.9956 10.4247 15.9971 10.2847 15.9985 10.16C15.9985 10.1154 16 10.0769 16 10.0431V9.95691V9.95691ZM14.9554 10.0369C14.9554 10.0693 14.9554 10.1046 14.9539 10.1462C14.9525 10.2662 14.9496 10.3986 14.9467 10.5417C14.9365 10.9511 14.9162 11.3604 14.8857 11.7405C14.8465 12.2361 14.7914 12.6424 14.7232 12.9147C14.6333 13.2702 14.3692 13.5519 14.0355 13.6457C13.7308 13.7319 12.9633 13.8012 11.9201 13.8427C11.392 13.8643 10.8232 13.8781 10.2559 13.8858C10.0571 13.8889 9.87288 13.8904 9.70748 13.8904H9.29252L8.74408 13.8858C8.17679 13.8781 7.60949 13.8643 7.07991 13.8427C6.03672 13.7996 5.26775 13.7319 4.96451 13.6457C4.6308 13.5503 4.36674 13.2702 4.27679 12.9147C4.20859 12.6424 4.15346 12.2361 4.11429 11.7405C4.08382 11.3604 4.06496 10.9511 4.05335 10.5417C4.049 10.3986 4.04754 10.2647 4.04609 10.1462C4.04609 10.1046 4.04464 10.0677 4.04464 10.0369V9.96307C4.04464 9.93075 4.04464 9.89535 4.04609 9.8538C4.04754 9.73376 4.05045 9.60142 4.05335 9.45829C4.0635 9.04894 4.08382 8.63958 4.11429 8.25946C4.15346 7.76393 4.20859 7.35765 4.27679 7.08526C4.36674 6.72976 4.6308 6.44814 4.96451 6.35426C5.2692 6.26808 6.03672 6.19883 7.07991 6.15728C7.60804 6.13573 8.17679 6.12188 8.74408 6.11419C8.94286 6.11111 9.12712 6.10957 9.29252 6.10957H9.70748L10.2559 6.11419C10.8232 6.12188 11.3905 6.13573 11.9201 6.15728C12.9633 6.20037 13.7323 6.26808 14.0355 6.35426C14.3692 6.44968 14.6333 6.72976 14.7232 7.08526C14.7914 7.35765 14.8465 7.76393 14.8857 8.25946C14.9162 8.63958 14.935 9.04894 14.9467 9.45829C14.951 9.60142 14.9525 9.7353 14.9539 9.8538C14.9539 9.89535 14.9554 9.93229 14.9554 9.96307V10.0369ZM8.20871 12.0622L11.5748 9.98461L8.20871 7.93783V12.0622Z" fill="#141F27"/>
</svg>
